%TF.GenerationSoftware,KiCad,Pcbnew,(6.0.6-0)*%
%TF.CreationDate,2023-02-07T03:51:43+09:00*%
%TF.ProjectId,AD1868I2S,41443138-3638-4493-9253-2e6b69636164,rev?*%
%TF.SameCoordinates,Original*%
%TF.FileFunction,Legend,Top*%
%TF.FilePolarity,Positive*%
%FSLAX46Y46*%
G04 Gerber Fmt 4.6, Leading zero omitted, Abs format (unit mm)*
G04 Created by KiCad (PCBNEW (6.0.6-0)) date 2023-02-07 03:51:43*
%MOMM*%
%LPD*%
G01*
G04 APERTURE LIST*
%ADD10C,0.150000*%
%ADD11C,0.125000*%
%ADD12C,0.120000*%
G04 APERTURE END LIST*
D10*
X111760000Y-105410000D02*
X111760000Y-107950000D01*
D11*
X104679761Y-81404904D02*
X104441666Y-81404904D01*
X104417857Y-81785857D01*
X104441666Y-81747761D01*
X104489285Y-81709666D01*
X104608333Y-81709666D01*
X104655952Y-81747761D01*
X104679761Y-81785857D01*
X104703571Y-81862047D01*
X104703571Y-82052523D01*
X104679761Y-82128714D01*
X104655952Y-82166809D01*
X104608333Y-82204904D01*
X104489285Y-82204904D01*
X104441666Y-82166809D01*
X104417857Y-82128714D01*
X104846428Y-81404904D02*
X105013095Y-82204904D01*
X105179761Y-81404904D01*
X104025000Y-87356904D02*
X104025000Y-86556904D01*
X104144047Y-86556904D01*
X104215476Y-86595000D01*
X104263095Y-86671190D01*
X104286904Y-86747380D01*
X104310714Y-86899761D01*
X104310714Y-87014047D01*
X104286904Y-87166428D01*
X104263095Y-87242619D01*
X104215476Y-87318809D01*
X104144047Y-87356904D01*
X104025000Y-87356904D01*
X104501190Y-87128333D02*
X104739285Y-87128333D01*
X104453571Y-87356904D02*
X104620238Y-86556904D01*
X104786904Y-87356904D01*
X104882142Y-86556904D02*
X105167857Y-86556904D01*
X105025000Y-87356904D02*
X105025000Y-86556904D01*
X105310714Y-87128333D02*
X105548809Y-87128333D01*
X105263095Y-87356904D02*
X105429761Y-86556904D01*
X105596428Y-87356904D01*
X104179761Y-89932904D02*
X103941666Y-89932904D01*
X103941666Y-89132904D01*
X104632142Y-89932904D02*
X104465476Y-89551952D01*
X104346428Y-89932904D02*
X104346428Y-89132904D01*
X104536904Y-89132904D01*
X104584523Y-89171000D01*
X104608333Y-89209095D01*
X104632142Y-89285285D01*
X104632142Y-89399571D01*
X104608333Y-89475761D01*
X104584523Y-89513857D01*
X104536904Y-89551952D01*
X104346428Y-89551952D01*
X105132142Y-89856714D02*
X105108333Y-89894809D01*
X105036904Y-89932904D01*
X104989285Y-89932904D01*
X104917857Y-89894809D01*
X104870238Y-89818619D01*
X104846428Y-89742428D01*
X104822619Y-89590047D01*
X104822619Y-89475761D01*
X104846428Y-89323380D01*
X104870238Y-89247190D01*
X104917857Y-89171000D01*
X104989285Y-89132904D01*
X105036904Y-89132904D01*
X105108333Y-89171000D01*
X105132142Y-89209095D01*
X105346428Y-89932904D02*
X105346428Y-89132904D01*
X105632142Y-89932904D02*
X105417857Y-89475761D01*
X105632142Y-89132904D02*
X105346428Y-89590047D01*
X104382142Y-92508904D02*
X104382142Y-91708904D01*
X104667857Y-92508904D01*
X104667857Y-91708904D01*
X105191666Y-92432714D02*
X105167857Y-92470809D01*
X105096428Y-92508904D01*
X105048809Y-92508904D01*
X104977380Y-92470809D01*
X104929761Y-92394619D01*
X104905952Y-92318428D01*
X104882142Y-92166047D01*
X104882142Y-92051761D01*
X104905952Y-91899380D01*
X104929761Y-91823190D01*
X104977380Y-91747000D01*
X105048809Y-91708904D01*
X105096428Y-91708904D01*
X105167857Y-91747000D01*
X105191666Y-91785095D01*
D10*
X71381428Y-115230714D02*
X71417142Y-115195000D01*
X71488571Y-115159285D01*
X71667142Y-115159285D01*
X71738571Y-115195000D01*
X71774285Y-115230714D01*
X71810000Y-115302142D01*
X71810000Y-115373571D01*
X71774285Y-115480714D01*
X71345714Y-115909285D01*
X71810000Y-115909285D01*
X72274285Y-115159285D02*
X72345714Y-115159285D01*
X72417142Y-115195000D01*
X72452857Y-115230714D01*
X72488571Y-115302142D01*
X72524285Y-115445000D01*
X72524285Y-115623571D01*
X72488571Y-115766428D01*
X72452857Y-115837857D01*
X72417142Y-115873571D01*
X72345714Y-115909285D01*
X72274285Y-115909285D01*
X72202857Y-115873571D01*
X72167142Y-115837857D01*
X72131428Y-115766428D01*
X72095714Y-115623571D01*
X72095714Y-115445000D01*
X72131428Y-115302142D01*
X72167142Y-115230714D01*
X72202857Y-115195000D01*
X72274285Y-115159285D01*
X72810000Y-115230714D02*
X72845714Y-115195000D01*
X72917142Y-115159285D01*
X73095714Y-115159285D01*
X73167142Y-115195000D01*
X73202857Y-115230714D01*
X73238571Y-115302142D01*
X73238571Y-115373571D01*
X73202857Y-115480714D01*
X72774285Y-115909285D01*
X73238571Y-115909285D01*
X73488571Y-115159285D02*
X73952857Y-115159285D01*
X73702857Y-115445000D01*
X73810000Y-115445000D01*
X73881428Y-115480714D01*
X73917142Y-115516428D01*
X73952857Y-115587857D01*
X73952857Y-115766428D01*
X73917142Y-115837857D01*
X73881428Y-115873571D01*
X73810000Y-115909285D01*
X73595714Y-115909285D01*
X73524285Y-115873571D01*
X73488571Y-115837857D01*
X74274285Y-115837857D02*
X74310000Y-115873571D01*
X74274285Y-115909285D01*
X74238571Y-115873571D01*
X74274285Y-115837857D01*
X74274285Y-115909285D01*
X75024285Y-115909285D02*
X74595714Y-115909285D01*
X74810000Y-115909285D02*
X74810000Y-115159285D01*
X74738571Y-115266428D01*
X74667142Y-115337857D01*
X74595714Y-115373571D01*
X75345714Y-115837857D02*
X75381428Y-115873571D01*
X75345714Y-115909285D01*
X75310000Y-115873571D01*
X75345714Y-115837857D01*
X75345714Y-115909285D01*
X75667142Y-115230714D02*
X75702857Y-115195000D01*
X75774285Y-115159285D01*
X75952857Y-115159285D01*
X76024285Y-115195000D01*
X76060000Y-115230714D01*
X76095714Y-115302142D01*
X76095714Y-115373571D01*
X76060000Y-115480714D01*
X75631428Y-115909285D01*
X76095714Y-115909285D01*
X76738571Y-115409285D02*
X76738571Y-115909285D01*
X76560000Y-115123571D02*
X76381428Y-115659285D01*
X76845714Y-115659285D01*
X78131428Y-115909285D02*
X77881428Y-115552142D01*
X77702857Y-115909285D02*
X77702857Y-115159285D01*
X77988571Y-115159285D01*
X78060000Y-115195000D01*
X78095714Y-115230714D01*
X78131428Y-115302142D01*
X78131428Y-115409285D01*
X78095714Y-115480714D01*
X78060000Y-115516428D01*
X77988571Y-115552142D01*
X77702857Y-115552142D01*
X78738571Y-115873571D02*
X78667142Y-115909285D01*
X78524285Y-115909285D01*
X78452857Y-115873571D01*
X78417142Y-115802142D01*
X78417142Y-115516428D01*
X78452857Y-115445000D01*
X78524285Y-115409285D01*
X78667142Y-115409285D01*
X78738571Y-115445000D01*
X78774285Y-115516428D01*
X78774285Y-115587857D01*
X78417142Y-115659285D01*
X79024285Y-115409285D02*
X79202857Y-115909285D01*
X79381428Y-115409285D01*
X79667142Y-115837857D02*
X79702857Y-115873571D01*
X79667142Y-115909285D01*
X79631428Y-115873571D01*
X79667142Y-115837857D01*
X79667142Y-115909285D01*
X79952857Y-115159285D02*
X80417142Y-115159285D01*
X80167142Y-115445000D01*
X80274285Y-115445000D01*
X80345714Y-115480714D01*
X80381428Y-115516428D01*
X80417142Y-115587857D01*
X80417142Y-115766428D01*
X80381428Y-115837857D01*
X80345714Y-115873571D01*
X80274285Y-115909285D01*
X80060000Y-115909285D01*
X79988571Y-115873571D01*
X79952857Y-115837857D01*
X81310000Y-115909285D02*
X81310000Y-115159285D01*
X81488571Y-115159285D01*
X81595714Y-115195000D01*
X81667142Y-115266428D01*
X81702857Y-115337857D01*
X81738571Y-115480714D01*
X81738571Y-115587857D01*
X81702857Y-115730714D01*
X81667142Y-115802142D01*
X81595714Y-115873571D01*
X81488571Y-115909285D01*
X81310000Y-115909285D01*
X82345714Y-115873571D02*
X82274285Y-115909285D01*
X82131428Y-115909285D01*
X82060000Y-115873571D01*
X82024285Y-115802142D01*
X82024285Y-115516428D01*
X82060000Y-115445000D01*
X82131428Y-115409285D01*
X82274285Y-115409285D01*
X82345714Y-115445000D01*
X82381428Y-115516428D01*
X82381428Y-115587857D01*
X82024285Y-115659285D01*
X82667142Y-115873571D02*
X82738571Y-115909285D01*
X82881428Y-115909285D01*
X82952857Y-115873571D01*
X82988571Y-115802142D01*
X82988571Y-115766428D01*
X82952857Y-115695000D01*
X82881428Y-115659285D01*
X82774285Y-115659285D01*
X82702857Y-115623571D01*
X82667142Y-115552142D01*
X82667142Y-115516428D01*
X82702857Y-115445000D01*
X82774285Y-115409285D01*
X82881428Y-115409285D01*
X82952857Y-115445000D01*
X83310000Y-115909285D02*
X83310000Y-115409285D01*
X83310000Y-115159285D02*
X83274285Y-115195000D01*
X83310000Y-115230714D01*
X83345714Y-115195000D01*
X83310000Y-115159285D01*
X83310000Y-115230714D01*
X83988571Y-115409285D02*
X83988571Y-116016428D01*
X83952857Y-116087857D01*
X83917142Y-116123571D01*
X83845714Y-116159285D01*
X83738571Y-116159285D01*
X83667142Y-116123571D01*
X83988571Y-115873571D02*
X83917142Y-115909285D01*
X83774285Y-115909285D01*
X83702857Y-115873571D01*
X83667142Y-115837857D01*
X83631428Y-115766428D01*
X83631428Y-115552142D01*
X83667142Y-115480714D01*
X83702857Y-115445000D01*
X83774285Y-115409285D01*
X83917142Y-115409285D01*
X83988571Y-115445000D01*
X84345714Y-115409285D02*
X84345714Y-115909285D01*
X84345714Y-115480714D02*
X84381428Y-115445000D01*
X84452857Y-115409285D01*
X84560000Y-115409285D01*
X84631428Y-115445000D01*
X84667142Y-115516428D01*
X84667142Y-115909285D01*
X85310000Y-115873571D02*
X85238571Y-115909285D01*
X85095714Y-115909285D01*
X85024285Y-115873571D01*
X84988571Y-115802142D01*
X84988571Y-115516428D01*
X85024285Y-115445000D01*
X85095714Y-115409285D01*
X85238571Y-115409285D01*
X85310000Y-115445000D01*
X85345714Y-115516428D01*
X85345714Y-115587857D01*
X84988571Y-115659285D01*
X85988571Y-115909285D02*
X85988571Y-115159285D01*
X85988571Y-115873571D02*
X85917142Y-115909285D01*
X85774285Y-115909285D01*
X85702857Y-115873571D01*
X85667142Y-115837857D01*
X85631428Y-115766428D01*
X85631428Y-115552142D01*
X85667142Y-115480714D01*
X85702857Y-115445000D01*
X85774285Y-115409285D01*
X85917142Y-115409285D01*
X85988571Y-115445000D01*
X86917142Y-115909285D02*
X86917142Y-115159285D01*
X86917142Y-115445000D02*
X86988571Y-115409285D01*
X87131428Y-115409285D01*
X87202857Y-115445000D01*
X87238571Y-115480714D01*
X87274285Y-115552142D01*
X87274285Y-115766428D01*
X87238571Y-115837857D01*
X87202857Y-115873571D01*
X87131428Y-115909285D01*
X86988571Y-115909285D01*
X86917142Y-115873571D01*
X87524285Y-115409285D02*
X87702857Y-115909285D01*
X87881428Y-115409285D02*
X87702857Y-115909285D01*
X87631428Y-116087857D01*
X87595714Y-116123571D01*
X87524285Y-116159285D01*
X88738571Y-115909285D02*
X88738571Y-115159285D01*
X88988571Y-115695000D01*
X89238571Y-115159285D01*
X89238571Y-115909285D01*
X89881428Y-115873571D02*
X89810000Y-115909285D01*
X89667142Y-115909285D01*
X89595714Y-115873571D01*
X89560000Y-115802142D01*
X89560000Y-115516428D01*
X89595714Y-115445000D01*
X89667142Y-115409285D01*
X89810000Y-115409285D01*
X89881428Y-115445000D01*
X89917142Y-115516428D01*
X89917142Y-115587857D01*
X89560000Y-115659285D01*
X90345714Y-115909285D02*
X90274285Y-115873571D01*
X90238571Y-115802142D01*
X90238571Y-115159285D01*
X90738571Y-115909285D02*
X90667142Y-115873571D01*
X90631428Y-115802142D01*
X90631428Y-115159285D01*
X91131428Y-115909285D02*
X91060000Y-115873571D01*
X91024285Y-115837857D01*
X90988571Y-115766428D01*
X90988571Y-115552142D01*
X91024285Y-115480714D01*
X91060000Y-115445000D01*
X91131428Y-115409285D01*
X91238571Y-115409285D01*
X91310000Y-115445000D01*
X91345714Y-115480714D01*
X91381428Y-115552142D01*
X91381428Y-115766428D01*
X91345714Y-115837857D01*
X91310000Y-115873571D01*
X91238571Y-115909285D01*
X91131428Y-115909285D01*
X91631428Y-115409285D02*
X91774285Y-115909285D01*
X91917142Y-115552142D01*
X92060000Y-115909285D01*
X92202857Y-115409285D01*
X93060000Y-115909285D02*
X93060000Y-115159285D01*
X93345714Y-115159285D01*
X93417142Y-115195000D01*
X93452857Y-115230714D01*
X93488571Y-115302142D01*
X93488571Y-115409285D01*
X93452857Y-115480714D01*
X93417142Y-115516428D01*
X93345714Y-115552142D01*
X93060000Y-115552142D01*
X94238571Y-115837857D02*
X94202857Y-115873571D01*
X94095714Y-115909285D01*
X94024285Y-115909285D01*
X93917142Y-115873571D01*
X93845714Y-115802142D01*
X93810000Y-115730714D01*
X93774285Y-115587857D01*
X93774285Y-115480714D01*
X93810000Y-115337857D01*
X93845714Y-115266428D01*
X93917142Y-115195000D01*
X94024285Y-115159285D01*
X94095714Y-115159285D01*
X94202857Y-115195000D01*
X94238571Y-115230714D01*
X94810000Y-115516428D02*
X94917142Y-115552142D01*
X94952857Y-115587857D01*
X94988571Y-115659285D01*
X94988571Y-115766428D01*
X94952857Y-115837857D01*
X94917142Y-115873571D01*
X94845714Y-115909285D01*
X94560000Y-115909285D01*
X94560000Y-115159285D01*
X94810000Y-115159285D01*
X94881428Y-115195000D01*
X94917142Y-115230714D01*
X94952857Y-115302142D01*
X94952857Y-115373571D01*
X94917142Y-115445000D01*
X94881428Y-115480714D01*
X94810000Y-115516428D01*
X94560000Y-115516428D01*
X70986666Y-88988904D02*
X70653333Y-88988904D01*
X70620000Y-89369857D01*
X70653333Y-89331761D01*
X70720000Y-89293666D01*
X70886666Y-89293666D01*
X70953333Y-89331761D01*
X70986666Y-89369857D01*
X71020000Y-89446047D01*
X71020000Y-89636523D01*
X70986666Y-89712714D01*
X70953333Y-89750809D01*
X70886666Y-89788904D01*
X70720000Y-89788904D01*
X70653333Y-89750809D01*
X70620000Y-89712714D01*
X71220000Y-88988904D02*
X71453333Y-89788904D01*
X71686666Y-88988904D01*
X71053333Y-92364904D02*
X70720000Y-92364904D01*
X70720000Y-91564904D01*
X71620000Y-92364904D02*
X71286666Y-92364904D01*
X71286666Y-91564904D01*
X70653333Y-94940904D02*
X70653333Y-94140904D01*
X70820000Y-94140904D01*
X70920000Y-94179000D01*
X70986666Y-94255190D01*
X71020000Y-94331380D01*
X71053333Y-94483761D01*
X71053333Y-94598047D01*
X71020000Y-94750428D01*
X70986666Y-94826619D01*
X70920000Y-94902809D01*
X70820000Y-94940904D01*
X70653333Y-94940904D01*
X71686666Y-94940904D02*
X71353333Y-94940904D01*
X71353333Y-94140904D01*
X70986666Y-97440714D02*
X70953333Y-97478809D01*
X70853333Y-97516904D01*
X70786666Y-97516904D01*
X70686666Y-97478809D01*
X70620000Y-97402619D01*
X70586666Y-97326428D01*
X70553333Y-97174047D01*
X70553333Y-97059761D01*
X70586666Y-96907380D01*
X70620000Y-96831190D01*
X70686666Y-96755000D01*
X70786666Y-96716904D01*
X70853333Y-96716904D01*
X70953333Y-96755000D01*
X70986666Y-96793095D01*
X71286666Y-97516904D02*
X71286666Y-96716904D01*
X71686666Y-97516904D02*
X71386666Y-97059761D01*
X71686666Y-96716904D02*
X71286666Y-97174047D01*
X70586666Y-100092904D02*
X70586666Y-99292904D01*
X70753333Y-99292904D01*
X70853333Y-99331000D01*
X70920000Y-99407190D01*
X70953333Y-99483380D01*
X70986666Y-99635761D01*
X70986666Y-99750047D01*
X70953333Y-99902428D01*
X70920000Y-99978619D01*
X70853333Y-100054809D01*
X70753333Y-100092904D01*
X70586666Y-100092904D01*
X71686666Y-100092904D02*
X71453333Y-99711952D01*
X71286666Y-100092904D02*
X71286666Y-99292904D01*
X71553333Y-99292904D01*
X71620000Y-99331000D01*
X71653333Y-99369095D01*
X71686666Y-99445285D01*
X71686666Y-99559571D01*
X71653333Y-99635761D01*
X71620000Y-99673857D01*
X71553333Y-99711952D01*
X71286666Y-99711952D01*
X70986666Y-102668904D02*
X70653333Y-102668904D01*
X70653333Y-101868904D01*
X71620000Y-102668904D02*
X71386666Y-102287952D01*
X71220000Y-102668904D02*
X71220000Y-101868904D01*
X71486666Y-101868904D01*
X71553333Y-101907000D01*
X71586666Y-101945095D01*
X71620000Y-102021285D01*
X71620000Y-102135571D01*
X71586666Y-102211761D01*
X71553333Y-102249857D01*
X71486666Y-102287952D01*
X71220000Y-102287952D01*
X70586666Y-104483000D02*
X70520000Y-104444904D01*
X70420000Y-104444904D01*
X70320000Y-104483000D01*
X70253333Y-104559190D01*
X70220000Y-104635380D01*
X70186666Y-104787761D01*
X70186666Y-104902047D01*
X70220000Y-105054428D01*
X70253333Y-105130619D01*
X70320000Y-105206809D01*
X70420000Y-105244904D01*
X70486666Y-105244904D01*
X70586666Y-105206809D01*
X70620000Y-105168714D01*
X70620000Y-104902047D01*
X70486666Y-104902047D01*
X70920000Y-105244904D02*
X70920000Y-104444904D01*
X71320000Y-105244904D01*
X71320000Y-104444904D01*
X71653333Y-105244904D02*
X71653333Y-104444904D01*
X71820000Y-104444904D01*
X71920000Y-104483000D01*
X71986666Y-104559190D01*
X72020000Y-104635380D01*
X72053333Y-104787761D01*
X72053333Y-104902047D01*
X72020000Y-105054428D01*
X71986666Y-105130619D01*
X71920000Y-105206809D01*
X71820000Y-105244904D01*
X71653333Y-105244904D01*
D11*
X111633047Y-81443000D02*
X111585428Y-81404904D01*
X111514000Y-81404904D01*
X111442571Y-81443000D01*
X111394952Y-81519190D01*
X111371142Y-81595380D01*
X111347333Y-81747761D01*
X111347333Y-81862047D01*
X111371142Y-82014428D01*
X111394952Y-82090619D01*
X111442571Y-82166809D01*
X111514000Y-82204904D01*
X111561619Y-82204904D01*
X111633047Y-82166809D01*
X111656857Y-82128714D01*
X111656857Y-81862047D01*
X111561619Y-81862047D01*
X111871142Y-82204904D02*
X111871142Y-81404904D01*
X112156857Y-82204904D01*
X112156857Y-81404904D01*
X112394952Y-82204904D02*
X112394952Y-81404904D01*
X112514000Y-81404904D01*
X112585428Y-81443000D01*
X112633047Y-81519190D01*
X112656857Y-81595380D01*
X112680666Y-81747761D01*
X112680666Y-81862047D01*
X112656857Y-82014428D01*
X112633047Y-82090619D01*
X112585428Y-82166809D01*
X112514000Y-82204904D01*
X112394952Y-82204904D01*
X111740190Y-86937857D02*
X111811619Y-86975952D01*
X111835428Y-87014047D01*
X111859238Y-87090238D01*
X111859238Y-87204523D01*
X111835428Y-87280714D01*
X111811619Y-87318809D01*
X111764000Y-87356904D01*
X111573523Y-87356904D01*
X111573523Y-86556904D01*
X111740190Y-86556904D01*
X111787809Y-86595000D01*
X111811619Y-86633095D01*
X111835428Y-86709285D01*
X111835428Y-86785476D01*
X111811619Y-86861666D01*
X111787809Y-86899761D01*
X111740190Y-86937857D01*
X111573523Y-86937857D01*
X112073523Y-87356904D02*
X112073523Y-86556904D01*
X112240190Y-86556904D02*
X112525904Y-86556904D01*
X112383047Y-87356904D02*
X112383047Y-86556904D01*
X111347333Y-89932904D02*
X111347333Y-89132904D01*
X111514000Y-89704333D01*
X111680666Y-89132904D01*
X111680666Y-89932904D01*
X112204476Y-89856714D02*
X112180666Y-89894809D01*
X112109238Y-89932904D01*
X112061619Y-89932904D01*
X111990190Y-89894809D01*
X111942571Y-89818619D01*
X111918761Y-89742428D01*
X111894952Y-89590047D01*
X111894952Y-89475761D01*
X111918761Y-89323380D01*
X111942571Y-89247190D01*
X111990190Y-89171000D01*
X112061619Y-89132904D01*
X112109238Y-89132904D01*
X112180666Y-89171000D01*
X112204476Y-89209095D01*
X112418761Y-89932904D02*
X112418761Y-89132904D01*
X112704476Y-89932904D02*
X112490190Y-89475761D01*
X112704476Y-89132904D02*
X112418761Y-89590047D01*
X111621142Y-92508904D02*
X111621142Y-91708904D01*
X111906857Y-92508904D01*
X111906857Y-91708904D01*
X112430666Y-92432714D02*
X112406857Y-92470809D01*
X112335428Y-92508904D01*
X112287809Y-92508904D01*
X112216380Y-92470809D01*
X112168761Y-92394619D01*
X112144952Y-92318428D01*
X112121142Y-92166047D01*
X112121142Y-92051761D01*
X112144952Y-91899380D01*
X112168761Y-91823190D01*
X112216380Y-91747000D01*
X112287809Y-91708904D01*
X112335428Y-91708904D01*
X112406857Y-91747000D01*
X112430666Y-91785095D01*
D10*
%TO.C,C2*%
X86193333Y-107037142D02*
X86145714Y-107084761D01*
X86002857Y-107132380D01*
X85907619Y-107132380D01*
X85764761Y-107084761D01*
X85669523Y-106989523D01*
X85621904Y-106894285D01*
X85574285Y-106703809D01*
X85574285Y-106560952D01*
X85621904Y-106370476D01*
X85669523Y-106275238D01*
X85764761Y-106180000D01*
X85907619Y-106132380D01*
X86002857Y-106132380D01*
X86145714Y-106180000D01*
X86193333Y-106227619D01*
X86574285Y-106227619D02*
X86621904Y-106180000D01*
X86717142Y-106132380D01*
X86955238Y-106132380D01*
X87050476Y-106180000D01*
X87098095Y-106227619D01*
X87145714Y-106322857D01*
X87145714Y-106418095D01*
X87098095Y-106560952D01*
X86526666Y-107132380D01*
X87145714Y-107132380D01*
%TO.C,C10*%
X102227142Y-85447142D02*
X102179523Y-85494761D01*
X102036666Y-85542380D01*
X101941428Y-85542380D01*
X101798571Y-85494761D01*
X101703333Y-85399523D01*
X101655714Y-85304285D01*
X101608095Y-85113809D01*
X101608095Y-84970952D01*
X101655714Y-84780476D01*
X101703333Y-84685238D01*
X101798571Y-84590000D01*
X101941428Y-84542380D01*
X102036666Y-84542380D01*
X102179523Y-84590000D01*
X102227142Y-84637619D01*
X103179523Y-85542380D02*
X102608095Y-85542380D01*
X102893809Y-85542380D02*
X102893809Y-84542380D01*
X102798571Y-84685238D01*
X102703333Y-84780476D01*
X102608095Y-84828095D01*
X103798571Y-84542380D02*
X103893809Y-84542380D01*
X103989047Y-84590000D01*
X104036666Y-84637619D01*
X104084285Y-84732857D01*
X104131904Y-84923333D01*
X104131904Y-85161428D01*
X104084285Y-85351904D01*
X104036666Y-85447142D01*
X103989047Y-85494761D01*
X103893809Y-85542380D01*
X103798571Y-85542380D01*
X103703333Y-85494761D01*
X103655714Y-85447142D01*
X103608095Y-85351904D01*
X103560476Y-85161428D01*
X103560476Y-84923333D01*
X103608095Y-84732857D01*
X103655714Y-84637619D01*
X103703333Y-84590000D01*
X103798571Y-84542380D01*
%TO.C,C6*%
X84288333Y-94812142D02*
X84240714Y-94859761D01*
X84097857Y-94907380D01*
X84002619Y-94907380D01*
X83859761Y-94859761D01*
X83764523Y-94764523D01*
X83716904Y-94669285D01*
X83669285Y-94478809D01*
X83669285Y-94335952D01*
X83716904Y-94145476D01*
X83764523Y-94050238D01*
X83859761Y-93955000D01*
X84002619Y-93907380D01*
X84097857Y-93907380D01*
X84240714Y-93955000D01*
X84288333Y-94002619D01*
X85145476Y-93907380D02*
X84955000Y-93907380D01*
X84859761Y-93955000D01*
X84812142Y-94002619D01*
X84716904Y-94145476D01*
X84669285Y-94335952D01*
X84669285Y-94716904D01*
X84716904Y-94812142D01*
X84764523Y-94859761D01*
X84859761Y-94907380D01*
X85050238Y-94907380D01*
X85145476Y-94859761D01*
X85193095Y-94812142D01*
X85240714Y-94716904D01*
X85240714Y-94478809D01*
X85193095Y-94383571D01*
X85145476Y-94335952D01*
X85050238Y-94288333D01*
X84859761Y-94288333D01*
X84764523Y-94335952D01*
X84716904Y-94383571D01*
X84669285Y-94478809D01*
%TO.C,U1*%
X90043095Y-109942380D02*
X90043095Y-110751904D01*
X90090714Y-110847142D01*
X90138333Y-110894761D01*
X90233571Y-110942380D01*
X90424047Y-110942380D01*
X90519285Y-110894761D01*
X90566904Y-110847142D01*
X90614523Y-110751904D01*
X90614523Y-109942380D01*
X91614523Y-110942380D02*
X91043095Y-110942380D01*
X91328809Y-110942380D02*
X91328809Y-109942380D01*
X91233571Y-110085238D01*
X91138333Y-110180476D01*
X91043095Y-110228095D01*
%TO.C,U4*%
X90043095Y-90257380D02*
X90043095Y-91066904D01*
X90090714Y-91162142D01*
X90138333Y-91209761D01*
X90233571Y-91257380D01*
X90424047Y-91257380D01*
X90519285Y-91209761D01*
X90566904Y-91162142D01*
X90614523Y-91066904D01*
X90614523Y-90257380D01*
X91519285Y-90590714D02*
X91519285Y-91257380D01*
X91281190Y-90209761D02*
X91043095Y-90924047D01*
X91662142Y-90924047D01*
%TO.C,J2*%
X108251666Y-113542380D02*
X108251666Y-114256666D01*
X108204047Y-114399523D01*
X108108809Y-114494761D01*
X107965952Y-114542380D01*
X107870714Y-114542380D01*
X108680238Y-113637619D02*
X108727857Y-113590000D01*
X108823095Y-113542380D01*
X109061190Y-113542380D01*
X109156428Y-113590000D01*
X109204047Y-113637619D01*
X109251666Y-113732857D01*
X109251666Y-113828095D01*
X109204047Y-113970952D01*
X108632619Y-114542380D01*
X109251666Y-114542380D01*
%TO.C,C3*%
X93032066Y-98147142D02*
X92984447Y-98194761D01*
X92841590Y-98242380D01*
X92746352Y-98242380D01*
X92603494Y-98194761D01*
X92508256Y-98099523D01*
X92460637Y-98004285D01*
X92413018Y-97813809D01*
X92413018Y-97670952D01*
X92460637Y-97480476D01*
X92508256Y-97385238D01*
X92603494Y-97290000D01*
X92746352Y-97242380D01*
X92841590Y-97242380D01*
X92984447Y-97290000D01*
X93032066Y-97337619D01*
X93365399Y-97242380D02*
X93984447Y-97242380D01*
X93651113Y-97623333D01*
X93793971Y-97623333D01*
X93889209Y-97670952D01*
X93936828Y-97718571D01*
X93984447Y-97813809D01*
X93984447Y-98051904D01*
X93936828Y-98147142D01*
X93889209Y-98194761D01*
X93793971Y-98242380D01*
X93508256Y-98242380D01*
X93413018Y-98194761D01*
X93365399Y-98147142D01*
%TO.C,C9*%
X95083333Y-78302142D02*
X95035714Y-78349761D01*
X94892857Y-78397380D01*
X94797619Y-78397380D01*
X94654761Y-78349761D01*
X94559523Y-78254523D01*
X94511904Y-78159285D01*
X94464285Y-77968809D01*
X94464285Y-77825952D01*
X94511904Y-77635476D01*
X94559523Y-77540238D01*
X94654761Y-77445000D01*
X94797619Y-77397380D01*
X94892857Y-77397380D01*
X95035714Y-77445000D01*
X95083333Y-77492619D01*
X95559523Y-78397380D02*
X95750000Y-78397380D01*
X95845238Y-78349761D01*
X95892857Y-78302142D01*
X95988095Y-78159285D01*
X96035714Y-77968809D01*
X96035714Y-77587857D01*
X95988095Y-77492619D01*
X95940476Y-77445000D01*
X95845238Y-77397380D01*
X95654761Y-77397380D01*
X95559523Y-77445000D01*
X95511904Y-77492619D01*
X95464285Y-77587857D01*
X95464285Y-77825952D01*
X95511904Y-77921190D01*
X95559523Y-77968809D01*
X95654761Y-78016428D01*
X95845238Y-78016428D01*
X95940476Y-77968809D01*
X95988095Y-77921190D01*
X96035714Y-77825952D01*
%TO.C,C11*%
X97000875Y-96242142D02*
X96953256Y-96289761D01*
X96810399Y-96337380D01*
X96715161Y-96337380D01*
X96572304Y-96289761D01*
X96477066Y-96194523D01*
X96429447Y-96099285D01*
X96381828Y-95908809D01*
X96381828Y-95765952D01*
X96429447Y-95575476D01*
X96477066Y-95480238D01*
X96572304Y-95385000D01*
X96715161Y-95337380D01*
X96810399Y-95337380D01*
X96953256Y-95385000D01*
X97000875Y-95432619D01*
X97953256Y-96337380D02*
X97381828Y-96337380D01*
X97667542Y-96337380D02*
X97667542Y-95337380D01*
X97572304Y-95480238D01*
X97477066Y-95575476D01*
X97381828Y-95623095D01*
X98905637Y-96337380D02*
X98334209Y-96337380D01*
X98619923Y-96337380D02*
X98619923Y-95337380D01*
X98524685Y-95480238D01*
X98429447Y-95575476D01*
X98334209Y-95623095D01*
%TO.C,C1*%
X97623333Y-115927142D02*
X97575714Y-115974761D01*
X97432857Y-116022380D01*
X97337619Y-116022380D01*
X97194761Y-115974761D01*
X97099523Y-115879523D01*
X97051904Y-115784285D01*
X97004285Y-115593809D01*
X97004285Y-115450952D01*
X97051904Y-115260476D01*
X97099523Y-115165238D01*
X97194761Y-115070000D01*
X97337619Y-115022380D01*
X97432857Y-115022380D01*
X97575714Y-115070000D01*
X97623333Y-115117619D01*
X98575714Y-116022380D02*
X98004285Y-116022380D01*
X98290000Y-116022380D02*
X98290000Y-115022380D01*
X98194761Y-115165238D01*
X98099523Y-115260476D01*
X98004285Y-115308095D01*
%TO.C,X1*%
X78633976Y-109307380D02*
X79300642Y-110307380D01*
X79300642Y-109307380D02*
X78633976Y-110307380D01*
X80205404Y-110307380D02*
X79633976Y-110307380D01*
X79919690Y-110307380D02*
X79919690Y-109307380D01*
X79824452Y-109450238D01*
X79729214Y-109545476D01*
X79633976Y-109593095D01*
%TO.C,J1*%
X73326666Y-86652380D02*
X73326666Y-87366666D01*
X73279047Y-87509523D01*
X73183809Y-87604761D01*
X73040952Y-87652380D01*
X72945714Y-87652380D01*
X74326666Y-87652380D02*
X73755238Y-87652380D01*
X74040952Y-87652380D02*
X74040952Y-86652380D01*
X73945714Y-86795238D01*
X73850476Y-86890476D01*
X73755238Y-86938095D01*
%TO.C,J3*%
X108251666Y-79037380D02*
X108251666Y-79751666D01*
X108204047Y-79894523D01*
X108108809Y-79989761D01*
X107965952Y-80037380D01*
X107870714Y-80037380D01*
X108632619Y-79037380D02*
X109251666Y-79037380D01*
X108918333Y-79418333D01*
X109061190Y-79418333D01*
X109156428Y-79465952D01*
X109204047Y-79513571D01*
X109251666Y-79608809D01*
X109251666Y-79846904D01*
X109204047Y-79942142D01*
X109156428Y-79989761D01*
X109061190Y-80037380D01*
X108775476Y-80037380D01*
X108680238Y-79989761D01*
X108632619Y-79942142D01*
%TO.C,C8*%
X86828333Y-85447142D02*
X86780714Y-85494761D01*
X86637857Y-85542380D01*
X86542619Y-85542380D01*
X86399761Y-85494761D01*
X86304523Y-85399523D01*
X86256904Y-85304285D01*
X86209285Y-85113809D01*
X86209285Y-84970952D01*
X86256904Y-84780476D01*
X86304523Y-84685238D01*
X86399761Y-84590000D01*
X86542619Y-84542380D01*
X86637857Y-84542380D01*
X86780714Y-84590000D01*
X86828333Y-84637619D01*
X87399761Y-84970952D02*
X87304523Y-84923333D01*
X87256904Y-84875714D01*
X87209285Y-84780476D01*
X87209285Y-84732857D01*
X87256904Y-84637619D01*
X87304523Y-84590000D01*
X87399761Y-84542380D01*
X87590238Y-84542380D01*
X87685476Y-84590000D01*
X87733095Y-84637619D01*
X87780714Y-84732857D01*
X87780714Y-84780476D01*
X87733095Y-84875714D01*
X87685476Y-84923333D01*
X87590238Y-84970952D01*
X87399761Y-84970952D01*
X87304523Y-85018571D01*
X87256904Y-85066190D01*
X87209285Y-85161428D01*
X87209285Y-85351904D01*
X87256904Y-85447142D01*
X87304523Y-85494761D01*
X87399761Y-85542380D01*
X87590238Y-85542380D01*
X87685476Y-85494761D01*
X87733095Y-85447142D01*
X87780714Y-85351904D01*
X87780714Y-85161428D01*
X87733095Y-85066190D01*
X87685476Y-85018571D01*
X87590238Y-84970952D01*
%TO.C,U2*%
X78613095Y-87082380D02*
X78613095Y-87891904D01*
X78660714Y-87987142D01*
X78708333Y-88034761D01*
X78803571Y-88082380D01*
X78994047Y-88082380D01*
X79089285Y-88034761D01*
X79136904Y-87987142D01*
X79184523Y-87891904D01*
X79184523Y-87082380D01*
X79613095Y-87177619D02*
X79660714Y-87130000D01*
X79755952Y-87082380D01*
X79994047Y-87082380D01*
X80089285Y-87130000D01*
X80136904Y-87177619D01*
X80184523Y-87272857D01*
X80184523Y-87368095D01*
X80136904Y-87510952D01*
X79565476Y-88082380D01*
X80184523Y-88082380D01*
%TO.C,J4*%
X82107380Y-100663333D02*
X82821666Y-100663333D01*
X82964523Y-100710952D01*
X83059761Y-100806190D01*
X83107380Y-100949047D01*
X83107380Y-101044285D01*
X82440714Y-99758571D02*
X83107380Y-99758571D01*
X82059761Y-99996666D02*
X82774047Y-100234761D01*
X82774047Y-99615714D01*
%TO.C,C7*%
X83018333Y-110212142D02*
X82970714Y-110259761D01*
X82827857Y-110307380D01*
X82732619Y-110307380D01*
X82589761Y-110259761D01*
X82494523Y-110164523D01*
X82446904Y-110069285D01*
X82399285Y-109878809D01*
X82399285Y-109735952D01*
X82446904Y-109545476D01*
X82494523Y-109450238D01*
X82589761Y-109355000D01*
X82732619Y-109307380D01*
X82827857Y-109307380D01*
X82970714Y-109355000D01*
X83018333Y-109402619D01*
X83351666Y-109307380D02*
X84018333Y-109307380D01*
X83589761Y-110307380D01*
%TO.C,C5*%
X75398333Y-110212142D02*
X75350714Y-110259761D01*
X75207857Y-110307380D01*
X75112619Y-110307380D01*
X74969761Y-110259761D01*
X74874523Y-110164523D01*
X74826904Y-110069285D01*
X74779285Y-109878809D01*
X74779285Y-109735952D01*
X74826904Y-109545476D01*
X74874523Y-109450238D01*
X74969761Y-109355000D01*
X75112619Y-109307380D01*
X75207857Y-109307380D01*
X75350714Y-109355000D01*
X75398333Y-109402619D01*
X76303095Y-109307380D02*
X75826904Y-109307380D01*
X75779285Y-109783571D01*
X75826904Y-109735952D01*
X75922142Y-109688333D01*
X76160238Y-109688333D01*
X76255476Y-109735952D01*
X76303095Y-109783571D01*
X76350714Y-109878809D01*
X76350714Y-110116904D01*
X76303095Y-110212142D01*
X76255476Y-110259761D01*
X76160238Y-110307380D01*
X75922142Y-110307380D01*
X75826904Y-110259761D01*
X75779285Y-110212142D01*
%TO.C,C4*%
X102703333Y-105132142D02*
X102655714Y-105179761D01*
X102512857Y-105227380D01*
X102417619Y-105227380D01*
X102274761Y-105179761D01*
X102179523Y-105084523D01*
X102131904Y-104989285D01*
X102084285Y-104798809D01*
X102084285Y-104655952D01*
X102131904Y-104465476D01*
X102179523Y-104370238D01*
X102274761Y-104275000D01*
X102417619Y-104227380D01*
X102512857Y-104227380D01*
X102655714Y-104275000D01*
X102703333Y-104322619D01*
X103560476Y-104560714D02*
X103560476Y-105227380D01*
X103322380Y-104179761D02*
X103084285Y-104894047D01*
X103703333Y-104894047D01*
%TO.C,U3*%
X78613095Y-98312380D02*
X78613095Y-99121904D01*
X78660714Y-99217142D01*
X78708333Y-99264761D01*
X78803571Y-99312380D01*
X78994047Y-99312380D01*
X79089285Y-99264761D01*
X79136904Y-99217142D01*
X79184523Y-99121904D01*
X79184523Y-98312380D01*
X79565476Y-98312380D02*
X80184523Y-98312380D01*
X79851190Y-98693333D01*
X79994047Y-98693333D01*
X80089285Y-98740952D01*
X80136904Y-98788571D01*
X80184523Y-98883809D01*
X80184523Y-99121904D01*
X80136904Y-99217142D01*
X80089285Y-99264761D01*
X79994047Y-99312380D01*
X79708333Y-99312380D01*
X79613095Y-99264761D01*
X79565476Y-99217142D01*
D12*
%TO.C,C2*%
X85850000Y-109073733D02*
X85850000Y-109366267D01*
X86870000Y-109073733D02*
X86870000Y-109366267D01*
%TO.C,C10*%
X102745000Y-87483733D02*
X102745000Y-87776267D01*
X101725000Y-87483733D02*
X101725000Y-87776267D01*
%TO.C,C6*%
X84308733Y-95375000D02*
X84601267Y-95375000D01*
X84308733Y-96395000D02*
X84601267Y-96395000D01*
D10*
%TO.C,U1*%
X99790000Y-101505000D02*
X99790000Y-102180000D01*
X89440000Y-101505000D02*
X90115000Y-101505000D01*
X89440000Y-111855000D02*
X89440000Y-111180000D01*
X89440000Y-111855000D02*
X90015000Y-111855000D01*
X99790000Y-111855000D02*
X99115000Y-111855000D01*
X99790000Y-101505000D02*
X99115000Y-101505000D01*
X89440000Y-101505000D02*
X89440000Y-102180000D01*
X90015000Y-111855000D02*
X90015000Y-113130000D01*
X99790000Y-111855000D02*
X99790000Y-111180000D01*
%TO.C,U4*%
X89440000Y-92170000D02*
X89440000Y-91495000D01*
X90015000Y-92170000D02*
X90015000Y-93445000D01*
X99790000Y-81820000D02*
X99115000Y-81820000D01*
X99790000Y-92170000D02*
X99115000Y-92170000D01*
X99790000Y-81820000D02*
X99790000Y-82495000D01*
X89440000Y-81820000D02*
X90115000Y-81820000D01*
X89440000Y-81820000D02*
X89440000Y-82495000D01*
X89440000Y-92170000D02*
X90015000Y-92170000D01*
X99790000Y-92170000D02*
X99790000Y-91495000D01*
D12*
%TO.C,J2*%
X108585000Y-113090000D02*
X105985000Y-113090000D01*
X105985000Y-113090000D02*
X105985000Y-100270000D01*
X111185000Y-110490000D02*
X108585000Y-110490000D01*
X111185000Y-100270000D02*
X105985000Y-100270000D01*
X111185000Y-113090000D02*
X109855000Y-113090000D01*
X108585000Y-110490000D02*
X108585000Y-113090000D01*
X111185000Y-110490000D02*
X111185000Y-100270000D01*
X111185000Y-111760000D02*
X111185000Y-113090000D01*
%TO.C,C3*%
X93491267Y-99570000D02*
X93198733Y-99570000D01*
X93491267Y-98550000D02*
X93198733Y-98550000D01*
%TO.C,C9*%
X95103733Y-78865000D02*
X95396267Y-78865000D01*
X95103733Y-79885000D02*
X95396267Y-79885000D01*
%TO.C,C11*%
X97643733Y-94105000D02*
X97936267Y-94105000D01*
X97643733Y-95125000D02*
X97936267Y-95125000D01*
%TO.C,C1*%
X97643733Y-114810000D02*
X97936267Y-114810000D01*
X97643733Y-113790000D02*
X97936267Y-113790000D01*
%TO.C,X1*%
X81026000Y-112739000D02*
X81026000Y-111289000D01*
X80808000Y-112903000D02*
X78958000Y-112903000D01*
%TO.C,J1*%
X72330000Y-90800000D02*
X74990000Y-90800000D01*
X74990000Y-90800000D02*
X74990000Y-106100000D01*
X72330000Y-89530000D02*
X72330000Y-88200000D01*
X72330000Y-90800000D02*
X72330000Y-106100000D01*
X72330000Y-88200000D02*
X73660000Y-88200000D01*
X72330000Y-106100000D02*
X74990000Y-106100000D01*
%TO.C,J3*%
X105985000Y-80585000D02*
X107315000Y-80585000D01*
X108585000Y-83185000D02*
X108585000Y-80585000D01*
X105985000Y-83185000D02*
X105985000Y-93405000D01*
X108585000Y-80585000D02*
X111185000Y-80585000D01*
X105985000Y-93405000D02*
X111185000Y-93405000D01*
X105985000Y-81915000D02*
X105985000Y-80585000D01*
X105985000Y-83185000D02*
X108585000Y-83185000D01*
X111185000Y-80585000D02*
X111185000Y-93405000D01*
%TO.C,C8*%
X87505000Y-87776267D02*
X87505000Y-87483733D01*
X86485000Y-87776267D02*
X86485000Y-87483733D01*
%TO.C,U2*%
X82785000Y-94620000D02*
X81525000Y-94620000D01*
X82785000Y-88610000D02*
X82785000Y-94620000D01*
X75965000Y-90860000D02*
X75965000Y-94620000D01*
X75965000Y-94620000D02*
X77225000Y-94620000D01*
%TO.C,J4*%
X83455000Y-98280000D02*
X85455000Y-98280000D01*
X83455000Y-102380000D02*
X83455000Y-98280000D01*
X85955000Y-101930000D02*
X85955000Y-101330000D01*
X85655000Y-101630000D02*
X85955000Y-101330000D01*
X85655000Y-101630000D02*
X85955000Y-101930000D01*
X85455000Y-98280000D02*
X85455000Y-102380000D01*
X85455000Y-102380000D02*
X83455000Y-102380000D01*
%TO.C,C7*%
X83695000Y-111906267D02*
X83695000Y-111613733D01*
X82675000Y-111906267D02*
X82675000Y-111613733D01*
%TO.C,C5*%
X76075000Y-111906267D02*
X76075000Y-111613733D01*
X75055000Y-111906267D02*
X75055000Y-111613733D01*
%TO.C,C4*%
X103380000Y-107168733D02*
X103380000Y-107461267D01*
X102360000Y-107168733D02*
X102360000Y-107461267D01*
%TO.C,U3*%
X79375000Y-99705000D02*
X81325000Y-99705000D01*
X79375000Y-99705000D02*
X75925000Y-99705000D01*
X79375000Y-108575000D02*
X77425000Y-108575000D01*
X79375000Y-108575000D02*
X81325000Y-108575000D01*
%TD*%
M02*
