M48
; DRILL file {KiCad (6.0.6-0)} date Tuesday, 24 January 2023 at 02:47:12
; FORMAT={-:-/ absolute / inch / decimal}
; #@! TF.CreationDate,2023-01-24T02:47:12+09:00
; #@! TF.GenerationSoftware,Kicad,Pcbnew,(6.0.6-0)
; #@! TF.FileFunction,MixedPlating,1,2
FMAT,2
INCH
; #@! TA.AperFunction,Plated,PTH,ViaDrill
T1C0.0157
; #@! TA.AperFunction,Plated,PTH,ComponentDrill
T2C0.0394
%
G90
G05
T1
X2.9751Y-3.8852
X3.1036Y-4.0544
X3.1092Y-4.0076
X3.201Y-3.774
X3.25Y-3.9
X3.251Y-3.774
X3.2905Y-4.0578
X3.3017Y-3.5401
X3.3677Y-4.0473
X3.3707Y-4.2222
X3.3714Y-4.1482
X3.4341Y-4.2499
X3.4464Y-3.7107
X3.4888Y-4.0277
X3.5Y-3.925
X3.5132Y-4.1435
X3.5251Y-4.2195
X3.5315Y-4.0129
X3.6182Y-4.33
X3.6254Y-4.1709
X3.6294Y-4.218
X3.7307Y-3.8901
X3.775Y-3.7
X3.7959Y-3.7459
X3.8222Y-3.7196
X3.902Y-3.7184
X3.9512Y-4.2262
X3.975Y-4.175
X3.9806Y-3.507
T2
X2.9Y-3.5248
X2.9Y-3.6248
X2.9Y-3.7248
X2.9Y-3.8248
X2.9Y-3.9248
X2.9Y-4.0248
X2.9Y-4.1248
X3.4748Y-3.4998
X3.4748Y-3.5998
X3.5748Y-3.4998
X3.5748Y-3.5998
X3.6748Y-3.4998
X3.6748Y-3.5998
X3.7748Y-3.4998
X3.7748Y-3.5998
X3.8748Y-3.4998
X3.8748Y-3.5998
X4.175Y-3.725
X4.175Y-3.825
X4.175Y-3.925
X4.175Y-4.025
X4.175Y-4.125
X4.275Y-3.725
X4.275Y-3.825
X4.275Y-3.925
X4.275Y-4.025
X4.275Y-4.125
T0
M30
