%TF.GenerationSoftware,KiCad,Pcbnew,(6.0.6-0)*%
%TF.CreationDate,2023-02-07T03:51:43+09:00*%
%TF.ProjectId,AD1868I2S,41443138-3638-4493-9253-2e6b69636164,rev?*%
%TF.SameCoordinates,Original*%
%TF.FileFunction,Soldermask,Top*%
%TF.FilePolarity,Negative*%
%FSLAX46Y46*%
G04 Gerber Fmt 4.6, Leading zero omitted, Abs format (unit mm)*
G04 Created by KiCad (PCBNEW (6.0.6-0)) date 2023-02-07 03:51:43*
%MOMM*%
%LPD*%
G01*
G04 APERTURE LIST*
G04 Aperture macros list*
%AMRoundRect*
0 Rectangle with rounded corners*
0 $1 Rounding radius*
0 $2 $3 $4 $5 $6 $7 $8 $9 X,Y pos of 4 corners*
0 Add a 4 corners polygon primitive as box body*
4,1,4,$2,$3,$4,$5,$6,$7,$8,$9,$2,$3,0*
0 Add four circle primitives for the rounded corners*
1,1,$1+$1,$2,$3*
1,1,$1+$1,$4,$5*
1,1,$1+$1,$6,$7*
1,1,$1+$1,$8,$9*
0 Add four rect primitives between the rounded corners*
20,1,$1+$1,$2,$3,$4,$5,0*
20,1,$1+$1,$4,$5,$6,$7,0*
20,1,$1+$1,$6,$7,$8,$9,0*
20,1,$1+$1,$8,$9,$2,$3,0*%
G04 Aperture macros list end*
%ADD10RoundRect,0.237500X-0.237500X0.300000X-0.237500X-0.300000X0.237500X-0.300000X0.237500X0.300000X0*%
%ADD11RoundRect,0.237500X-0.300000X-0.237500X0.300000X-0.237500X0.300000X0.237500X-0.300000X0.237500X0*%
%ADD12R,0.550000X1.500000*%
%ADD13R,1.500000X0.550000*%
%ADD14R,1.700000X1.700000*%
%ADD15O,1.700000X1.700000*%
%ADD16RoundRect,0.237500X0.300000X0.237500X-0.300000X0.237500X-0.300000X-0.237500X0.300000X-0.237500X0*%
%ADD17R,0.900000X0.650000*%
%ADD18RoundRect,0.237500X0.237500X-0.300000X0.237500X0.300000X-0.237500X0.300000X-0.237500X-0.300000X0*%
%ADD19R,1.500000X2.000000*%
%ADD20R,3.800000X2.000000*%
%ADD21R,1.500000X1.000000*%
%ADD22RoundRect,0.150000X-0.825000X-0.150000X0.825000X-0.150000X0.825000X0.150000X-0.825000X0.150000X0*%
G04 APERTURE END LIST*
D10*
%TO.C,C2*%
X86360000Y-108357500D03*
X86360000Y-110082500D03*
%TD*%
%TO.C,C10*%
X102235000Y-86767500D03*
X102235000Y-88492500D03*
%TD*%
D11*
%TO.C,C6*%
X83592500Y-95885000D03*
X85317500Y-95885000D03*
%TD*%
D12*
%TO.C,U1*%
X90615000Y-112380000D03*
X91415000Y-112380000D03*
X92215000Y-112380000D03*
X93015000Y-112380000D03*
X93815000Y-112380000D03*
X94615000Y-112380000D03*
X95415000Y-112380000D03*
X96215000Y-112380000D03*
X97015000Y-112380000D03*
X97815000Y-112380000D03*
X98615000Y-112380000D03*
D13*
X100315000Y-110680000D03*
X100315000Y-109880000D03*
X100315000Y-109080000D03*
X100315000Y-108280000D03*
X100315000Y-107480000D03*
X100315000Y-106680000D03*
X100315000Y-105880000D03*
X100315000Y-105080000D03*
X100315000Y-104280000D03*
X100315000Y-103480000D03*
X100315000Y-102680000D03*
D12*
X98615000Y-100980000D03*
X97815000Y-100980000D03*
X97015000Y-100980000D03*
X96215000Y-100980000D03*
X95415000Y-100980000D03*
X94615000Y-100980000D03*
X93815000Y-100980000D03*
X93015000Y-100980000D03*
X92215000Y-100980000D03*
X91415000Y-100980000D03*
X90615000Y-100980000D03*
D13*
X88915000Y-102680000D03*
X88915000Y-103480000D03*
X88915000Y-104280000D03*
X88915000Y-105080000D03*
X88915000Y-105880000D03*
X88915000Y-106680000D03*
X88915000Y-107480000D03*
X88915000Y-108280000D03*
X88915000Y-109080000D03*
X88915000Y-109880000D03*
X88915000Y-110680000D03*
%TD*%
D12*
%TO.C,U4*%
X90615000Y-92695000D03*
X91415000Y-92695000D03*
X92215000Y-92695000D03*
X93015000Y-92695000D03*
X93815000Y-92695000D03*
X94615000Y-92695000D03*
X95415000Y-92695000D03*
X96215000Y-92695000D03*
X97015000Y-92695000D03*
X97815000Y-92695000D03*
X98615000Y-92695000D03*
D13*
X100315000Y-90995000D03*
X100315000Y-90195000D03*
X100315000Y-89395000D03*
X100315000Y-88595000D03*
X100315000Y-87795000D03*
X100315000Y-86995000D03*
X100315000Y-86195000D03*
X100315000Y-85395000D03*
X100315000Y-84595000D03*
X100315000Y-83795000D03*
X100315000Y-82995000D03*
D12*
X98615000Y-81295000D03*
X97815000Y-81295000D03*
X97015000Y-81295000D03*
X96215000Y-81295000D03*
X95415000Y-81295000D03*
X94615000Y-81295000D03*
X93815000Y-81295000D03*
X93015000Y-81295000D03*
X92215000Y-81295000D03*
X91415000Y-81295000D03*
X90615000Y-81295000D03*
D13*
X88915000Y-82995000D03*
X88915000Y-83795000D03*
X88915000Y-84595000D03*
X88915000Y-85395000D03*
X88915000Y-86195000D03*
X88915000Y-86995000D03*
X88915000Y-87795000D03*
X88915000Y-88595000D03*
X88915000Y-89395000D03*
X88915000Y-90195000D03*
X88915000Y-90995000D03*
%TD*%
D14*
%TO.C,J2*%
X109855000Y-111760000D03*
D15*
X107315000Y-111760000D03*
X109855000Y-109220000D03*
X107315000Y-109220000D03*
X109855000Y-106680000D03*
X107315000Y-106680000D03*
X109855000Y-104140000D03*
X107315000Y-104140000D03*
X109855000Y-101600000D03*
X107315000Y-101600000D03*
%TD*%
D16*
%TO.C,C3*%
X94207500Y-99060000D03*
X92482500Y-99060000D03*
%TD*%
D11*
%TO.C,C9*%
X94387500Y-79375000D03*
X96112500Y-79375000D03*
%TD*%
%TO.C,C11*%
X96927500Y-94615000D03*
X98652500Y-94615000D03*
%TD*%
%TO.C,C1*%
X96927500Y-114300000D03*
X98652500Y-114300000D03*
%TD*%
D17*
%TO.C,X1*%
X80425000Y-111035000D03*
X78325000Y-111035000D03*
X78325000Y-112485000D03*
X80425000Y-112485000D03*
%TD*%
D14*
%TO.C,J1*%
X73660000Y-89530000D03*
D15*
X73660000Y-92070000D03*
X73660000Y-94610000D03*
X73660000Y-97150000D03*
X73660000Y-99690000D03*
X73660000Y-102230000D03*
X73660000Y-104770000D03*
%TD*%
D14*
%TO.C,J3*%
X107315000Y-81915000D03*
D15*
X109855000Y-81915000D03*
X107315000Y-84455000D03*
X109855000Y-84455000D03*
X107315000Y-86995000D03*
X109855000Y-86995000D03*
X107315000Y-89535000D03*
X109855000Y-89535000D03*
X107315000Y-92075000D03*
X109855000Y-92075000D03*
%TD*%
D18*
%TO.C,C8*%
X86995000Y-88492500D03*
X86995000Y-86767500D03*
%TD*%
D19*
%TO.C,U2*%
X81675000Y-89560000D03*
X79375000Y-89560000D03*
D20*
X79375000Y-95860000D03*
D19*
X77075000Y-89560000D03*
%TD*%
D21*
%TO.C,J4*%
X84455000Y-101630000D03*
X84455000Y-100330000D03*
X84455000Y-99030000D03*
%TD*%
D18*
%TO.C,C7*%
X83185000Y-112622500D03*
X83185000Y-110897500D03*
%TD*%
%TO.C,C5*%
X75565000Y-112622500D03*
X75565000Y-110897500D03*
%TD*%
D10*
%TO.C,C4*%
X102870000Y-106452500D03*
X102870000Y-108177500D03*
%TD*%
D22*
%TO.C,U3*%
X76900000Y-100330000D03*
X76900000Y-101600000D03*
X76900000Y-102870000D03*
X76900000Y-104140000D03*
X76900000Y-105410000D03*
X76900000Y-106680000D03*
X76900000Y-107950000D03*
X81850000Y-107950000D03*
X81850000Y-106680000D03*
X81850000Y-105410000D03*
X81850000Y-104140000D03*
X81850000Y-102870000D03*
X81850000Y-101600000D03*
X81850000Y-100330000D03*
%TD*%
M02*
