%TF.GenerationSoftware,KiCad,Pcbnew,(6.0.6-0)*%
%TF.CreationDate,2022-12-11T00:29:41+09:00*%
%TF.ProjectId,AD1868I2S,41443138-3638-4493-9253-2e6b69636164,rev?*%
%TF.SameCoordinates,Original*%
%TF.FileFunction,Paste,Top*%
%TF.FilePolarity,Positive*%
%FSLAX46Y46*%
G04 Gerber Fmt 4.6, Leading zero omitted, Abs format (unit mm)*
G04 Created by KiCad (PCBNEW (6.0.6-0)) date 2022-12-11 00:29:41*
%MOMM*%
%LPD*%
G01*
G04 APERTURE LIST*
G04 Aperture macros list*
%AMRoundRect*
0 Rectangle with rounded corners*
0 $1 Rounding radius*
0 $2 $3 $4 $5 $6 $7 $8 $9 X,Y pos of 4 corners*
0 Add a 4 corners polygon primitive as box body*
4,1,4,$2,$3,$4,$5,$6,$7,$8,$9,$2,$3,0*
0 Add four circle primitives for the rounded corners*
1,1,$1+$1,$2,$3*
1,1,$1+$1,$4,$5*
1,1,$1+$1,$6,$7*
1,1,$1+$1,$8,$9*
0 Add four rect primitives between the rounded corners*
20,1,$1+$1,$2,$3,$4,$5,0*
20,1,$1+$1,$4,$5,$6,$7,0*
20,1,$1+$1,$6,$7,$8,$9,0*
20,1,$1+$1,$8,$9,$2,$3,0*%
G04 Aperture macros list end*
%ADD10RoundRect,0.237500X0.237500X-0.250000X0.237500X0.250000X-0.237500X0.250000X-0.237500X-0.250000X0*%
%ADD11RoundRect,0.237500X-0.237500X0.300000X-0.237500X-0.300000X0.237500X-0.300000X0.237500X0.300000X0*%
%ADD12RoundRect,0.237500X-0.300000X-0.237500X0.300000X-0.237500X0.300000X0.237500X-0.300000X0.237500X0*%
%ADD13R,0.550000X1.500000*%
%ADD14R,1.500000X0.550000*%
%ADD15RoundRect,0.237500X0.300000X0.237500X-0.300000X0.237500X-0.300000X-0.237500X0.300000X-0.237500X0*%
%ADD16R,0.900000X0.650000*%
%ADD17R,1.500000X2.000000*%
%ADD18R,3.800000X2.000000*%
%ADD19RoundRect,0.237500X0.237500X-0.300000X0.237500X0.300000X-0.237500X0.300000X-0.237500X-0.300000X0*%
G04 APERTURE END LIST*
D10*
%TO.C,R2*%
X84455000Y-96797500D03*
X84455000Y-94972500D03*
%TD*%
%TO.C,R1*%
X76835000Y-96797500D03*
X76835000Y-94972500D03*
%TD*%
D11*
%TO.C,C2*%
X84455000Y-104547500D03*
X84455000Y-106272500D03*
%TD*%
D12*
%TO.C,C6*%
X79782500Y-97155000D03*
X81507500Y-97155000D03*
%TD*%
D13*
%TO.C,U1*%
X88710000Y-108570000D03*
X89510000Y-108570000D03*
X90310000Y-108570000D03*
X91110000Y-108570000D03*
X91910000Y-108570000D03*
X92710000Y-108570000D03*
X93510000Y-108570000D03*
X94310000Y-108570000D03*
X95110000Y-108570000D03*
X95910000Y-108570000D03*
X96710000Y-108570000D03*
D14*
X98410000Y-106870000D03*
X98410000Y-106070000D03*
X98410000Y-105270000D03*
X98410000Y-104470000D03*
X98410000Y-103670000D03*
X98410000Y-102870000D03*
X98410000Y-102070000D03*
X98410000Y-101270000D03*
X98410000Y-100470000D03*
X98410000Y-99670000D03*
X98410000Y-98870000D03*
D13*
X96710000Y-97170000D03*
X95910000Y-97170000D03*
X95110000Y-97170000D03*
X94310000Y-97170000D03*
X93510000Y-97170000D03*
X92710000Y-97170000D03*
X91910000Y-97170000D03*
X91110000Y-97170000D03*
X90310000Y-97170000D03*
X89510000Y-97170000D03*
X88710000Y-97170000D03*
D14*
X87010000Y-98870000D03*
X87010000Y-99670000D03*
X87010000Y-100470000D03*
X87010000Y-101270000D03*
X87010000Y-102070000D03*
X87010000Y-102870000D03*
X87010000Y-103670000D03*
X87010000Y-104470000D03*
X87010000Y-105270000D03*
X87010000Y-106070000D03*
X87010000Y-106870000D03*
%TD*%
D15*
%TO.C,C3*%
X92302500Y-95250000D03*
X90577500Y-95250000D03*
%TD*%
D12*
%TO.C,C1*%
X95022500Y-110490000D03*
X96747500Y-110490000D03*
%TD*%
D16*
%TO.C,X1*%
X78325000Y-111035000D03*
X80425000Y-111035000D03*
X78325000Y-112485000D03*
X80425000Y-112485000D03*
%TD*%
D17*
%TO.C,U2*%
X82945000Y-87655000D03*
X80645000Y-87655000D03*
D18*
X80645000Y-93955000D03*
D17*
X78345000Y-87655000D03*
%TD*%
D19*
%TO.C,C7*%
X83185000Y-112622500D03*
X83185000Y-110897500D03*
%TD*%
%TO.C,C5*%
X75565000Y-112622500D03*
X75565000Y-110897500D03*
%TD*%
D11*
%TO.C,C4*%
X100965000Y-102642500D03*
X100965000Y-104367500D03*
%TD*%
M02*
