M48
; DRILL file {KiCad (6.0.6-0)} date Sunday, 11 December 2022 at 00:29:45
; FORMAT={-:-/ absolute / inch / decimal}
; #@! TF.CreationDate,2022-12-11T00:29:45+09:00
; #@! TF.GenerationSoftware,Kicad,Pcbnew,(6.0.6-0)
; #@! TF.FileFunction,MixedPlating,1,2
FMAT,2
INCH
; #@! TA.AperFunction,Plated,PTH,ViaDrill
T1C0.0157
; #@! TA.AperFunction,Plated,PTH,ComponentDrill
T2C0.0315
; #@! TA.AperFunction,Plated,PTH,ComponentDrill
T3C0.0394
%
G90
G05
T1
X2.8422Y-3.7145
X3.025Y-3.7391
X3.0419Y-4.4309
X3.1284Y-3.8909
X3.3195Y-3.7445
X3.3554Y-4.0529
X3.3723Y-4.165
X3.3723Y-4.2075
X3.3996Y-3.858
X3.4379Y-3.7432
X3.48Y-4.1445
X3.5252Y-4.2206
X3.5442Y-4.1362
X3.5741Y-4.2206
X3.6309Y-4.194
X3.696Y-4.3277
X3.7444Y-3.7723
X3.83Y-3.73
T2
X3.0748Y-3.9233
X3.0748Y-4.2233
X3.1748Y-3.9233
X3.1748Y-4.2233
T3
X2.9Y-3.5248
X2.9Y-3.6248
X2.9Y-3.7248
X2.9Y-3.8248
X2.9Y-3.9248
X2.9Y-4.0248
X2.9Y-4.1248
X3.4748Y-3.4998
X3.4748Y-3.5998
X3.5748Y-3.4998
X3.5748Y-3.5998
X3.6748Y-3.4998
X3.6748Y-3.5998
X3.7748Y-3.4998
X3.7748Y-3.5998
X3.8748Y-3.4998
X3.8748Y-3.5998
X4.175Y-3.725
X4.175Y-3.825
X4.175Y-3.925
X4.175Y-4.025
X4.175Y-4.125
X4.275Y-3.725
X4.275Y-3.825
X4.275Y-3.925
X4.275Y-4.025
X4.275Y-4.125
T0
M30
