%TF.GenerationSoftware,KiCad,Pcbnew,(6.0.6-0)*%
%TF.CreationDate,2023-01-24T02:47:04+09:00*%
%TF.ProjectId,AD1868I2S,41443138-3638-4493-9253-2e6b69636164,rev?*%
%TF.SameCoordinates,Original*%
%TF.FileFunction,Copper,L2,Bot*%
%TF.FilePolarity,Positive*%
%FSLAX46Y46*%
G04 Gerber Fmt 4.6, Leading zero omitted, Abs format (unit mm)*
G04 Created by KiCad (PCBNEW (6.0.6-0)) date 2023-01-24 02:47:04*
%MOMM*%
%LPD*%
G01*
G04 APERTURE LIST*
%TA.AperFunction,ComponentPad*%
%ADD10R,1.700000X1.700000*%
%TD*%
%TA.AperFunction,ComponentPad*%
%ADD11O,1.700000X1.700000*%
%TD*%
%TA.AperFunction,ViaPad*%
%ADD12C,0.800000*%
%TD*%
%TA.AperFunction,Conductor*%
%ADD13C,0.250000*%
%TD*%
%TA.AperFunction,Conductor*%
%ADD14C,1.000000*%
%TD*%
G04 APERTURE END LIST*
D10*
%TO.P,J2,1,Pin_1*%
%TO.N,/TCK*%
X98420000Y-88895000D03*
D11*
%TO.P,J2,2,Pin_2*%
%TO.N,GND*%
X98420000Y-91435000D03*
%TO.P,J2,3,Pin_3*%
%TO.N,/TDO*%
X95880000Y-88895000D03*
%TO.P,J2,4,Pin_4*%
%TO.N,+3.3V*%
X95880000Y-91435000D03*
%TO.P,J2,5,Pin_5*%
%TO.N,/TMS*%
X93340000Y-88895000D03*
%TO.P,J2,6,Pin_6*%
%TO.N,unconnected-(J2-Pad6)*%
X93340000Y-91435000D03*
%TO.P,J2,7,Pin_7*%
%TO.N,unconnected-(J2-Pad7)*%
X90800000Y-88895000D03*
%TO.P,J2,8,Pin_8*%
%TO.N,unconnected-(J2-Pad8)*%
X90800000Y-91435000D03*
%TO.P,J2,9,Pin_9*%
%TO.N,/TDI*%
X88260000Y-88895000D03*
%TO.P,J2,10,Pin_10*%
%TO.N,GND*%
X88260000Y-91435000D03*
%TD*%
D10*
%TO.P,J1,1,Pin_1*%
%TO.N,+5V*%
X73660000Y-89530000D03*
D11*
%TO.P,J1,2,Pin_2*%
%TO.N,/LL*%
X73660000Y-92070000D03*
%TO.P,J1,3,Pin_3*%
%TO.N,/DL*%
X73660000Y-94610000D03*
%TO.P,J1,4,Pin_4*%
%TO.N,/CK*%
X73660000Y-97150000D03*
%TO.P,J1,5,Pin_5*%
%TO.N,/DR*%
X73660000Y-99690000D03*
%TO.P,J1,6,Pin_6*%
%TO.N,/LR*%
X73660000Y-102230000D03*
%TO.P,J1,7,Pin_7*%
%TO.N,GND*%
X73660000Y-104770000D03*
%TD*%
D10*
%TO.P,J3,1,Pin_1*%
%TO.N,+5V*%
X106045000Y-94615000D03*
D11*
%TO.P,J3,2,Pin_2*%
%TO.N,GND*%
X108585000Y-94615000D03*
%TO.P,J3,3,Pin_3*%
%TO.N,unconnected-(J3-Pad3)*%
X106045000Y-97155000D03*
%TO.P,J3,4,Pin_4*%
%TO.N,unconnected-(J3-Pad4)*%
X108585000Y-97155000D03*
%TO.P,J3,5,Pin_5*%
%TO.N,/I2S_DT*%
X106045000Y-99695000D03*
%TO.P,J3,6,Pin_6*%
%TO.N,/I2S_CLK*%
X108585000Y-99695000D03*
%TO.P,J3,7,Pin_7*%
%TO.N,/I2S_LR*%
X106045000Y-102235000D03*
%TO.P,J3,8,Pin_8*%
%TO.N,/I2S_MCK*%
X108585000Y-102235000D03*
%TO.P,J3,9,Pin_9*%
%TO.N,unconnected-(J3-Pad9)*%
X106045000Y-104775000D03*
%TO.P,J3,10,Pin_10*%
%TO.N,unconnected-(J3-Pad10)*%
X108585000Y-104775000D03*
%TD*%
D12*
%TO.N,/XCK_X*%
X78832000Y-102980500D03*
X83577800Y-103068900D03*
%TO.N,/XCK*%
X78972500Y-101793900D03*
X85540400Y-102800400D03*
%TO.N,/I2S_LR*%
X92185500Y-107138200D03*
%TO.N,/I2S_DT*%
X92085900Y-105942000D03*
%TO.N,/I2S_CLK*%
X89538000Y-107174800D03*
%TO.N,/TDI*%
X75568800Y-98684700D03*
X89235775Y-105244500D03*
%TO.N,/TMS*%
X91902000Y-109981500D03*
X83864200Y-89918500D03*
%TO.N,/TDO*%
X101107900Y-89077500D03*
X87538300Y-94250600D03*
%TO.N,/TCK*%
X99111300Y-94446300D03*
X94760000Y-98807500D03*
%TO.N,/LR*%
X85616900Y-107244500D03*
%TO.N,/DR*%
X87226000Y-107948000D03*
%TO.N,/CK*%
X88615000Y-102303700D03*
%TO.N,/DL*%
X88900000Y-99695000D03*
%TO.N,/LL*%
X85633100Y-105364800D03*
%TO.N,/I2S_MCK*%
X89701300Y-101928700D03*
%TO.N,GND*%
X100360000Y-107345000D03*
X100965000Y-106045000D03*
X95885000Y-93980000D03*
%TO.N,+3.3V*%
X82550000Y-99060000D03*
X96415700Y-95145700D03*
X97084500Y-94476900D03*
X81305000Y-95860000D03*
X82575000Y-95860000D03*
%TD*%
D13*
%TO.N,/TDI*%
X88055000Y-104381800D02*
X88917700Y-105244500D01*
X75568800Y-98684700D02*
X77676500Y-100792400D01*
X84626900Y-100792400D02*
X88055000Y-104220500D01*
%TO.N,/I2S_MCK*%
X107409700Y-105130300D02*
X103398400Y-109141600D01*
%TO.N,/TDI*%
X77676500Y-100792400D02*
X84626900Y-100792400D01*
%TO.N,/I2S_MCK*%
X108585000Y-102235000D02*
X107409700Y-103410300D01*
X89960275Y-102187675D02*
X89701300Y-101928700D01*
X107409700Y-103410300D02*
X107409700Y-105130300D01*
X103398400Y-109141600D02*
X93124500Y-109141600D01*
%TO.N,/TDI*%
X88917700Y-105244500D02*
X89235775Y-105244500D01*
%TO.N,/I2S_MCK*%
X93124500Y-109141600D02*
X89960275Y-105977375D01*
%TO.N,/TDI*%
X88055000Y-104220500D02*
X88055000Y-104381800D01*
%TO.N,/I2S_MCK*%
X89960275Y-105977375D02*
X89960275Y-102187675D01*
%TO.N,/XCK_X*%
X78920400Y-103068900D02*
X78832000Y-102980500D01*
X83577800Y-103068900D02*
X78920400Y-103068900D01*
%TO.N,/XCK*%
X84533900Y-101793900D02*
X78972500Y-101793900D01*
X85540400Y-102800400D02*
X84533900Y-101793900D01*
%TO.N,/I2S_LR*%
X93738600Y-108691300D02*
X92185500Y-107138200D01*
X100906200Y-108691300D02*
X93738600Y-108691300D01*
X104869700Y-104727800D02*
X100906200Y-108691300D01*
X104869700Y-104218200D02*
X104869700Y-104727800D01*
X105677600Y-103410300D02*
X104869700Y-104218200D01*
X106045000Y-103410300D02*
X105677600Y-103410300D01*
X106045000Y-102235000D02*
X106045000Y-103410300D01*
%TO.N,/I2S_DT*%
X94354700Y-108210800D02*
X92085900Y-105942000D01*
X100707400Y-108210800D02*
X94354700Y-108210800D01*
X103754300Y-105163900D02*
X100707400Y-108210800D01*
X103754300Y-102793700D02*
X103754300Y-105163900D01*
X105677700Y-100870300D02*
X103754300Y-102793700D01*
X106045000Y-100870300D02*
X105677700Y-100870300D01*
X106045000Y-99695000D02*
X106045000Y-100870300D01*
%TO.N,/I2S_CLK*%
X108585000Y-99695000D02*
X108585000Y-100870300D01*
X90121100Y-107174800D02*
X89538000Y-107174800D01*
X92573500Y-109627200D02*
X90121100Y-107174800D01*
X105466000Y-109627200D02*
X92573500Y-109627200D01*
X109780600Y-105312600D02*
X105466000Y-109627200D01*
X109780600Y-101698600D02*
X109780600Y-105312600D01*
X108952300Y-100870300D02*
X109780600Y-101698600D01*
X108585000Y-100870300D02*
X108952300Y-100870300D01*
%TO.N,/TMS*%
X83077300Y-90705400D02*
X83864200Y-89918500D01*
X73321700Y-90705400D02*
X83077300Y-90705400D01*
X71993100Y-92034000D02*
X73321700Y-90705400D01*
X71993100Y-102300800D02*
X71993100Y-92034000D01*
X73192300Y-103500000D02*
X71993100Y-102300800D01*
X75315300Y-103500000D02*
X73192300Y-103500000D01*
X81796800Y-109981500D02*
X75315300Y-103500000D01*
X91902000Y-109981500D02*
X81796800Y-109981500D01*
%TO.N,/TDO*%
X85506800Y-92219100D02*
X87538300Y-94250600D01*
X85506800Y-88288500D02*
X85506800Y-92219100D01*
X87670300Y-86125000D02*
X85506800Y-88288500D01*
X99992500Y-86125000D02*
X87670300Y-86125000D01*
X101107900Y-87240400D02*
X99992500Y-86125000D01*
X101107900Y-89077500D02*
X101107900Y-87240400D01*
%TO.N,/TCK*%
X94760000Y-98797600D02*
X94760000Y-98807500D01*
X99111300Y-94446300D02*
X94760000Y-98797600D01*
%TO.N,/LR*%
X79849800Y-107244500D02*
X85616900Y-107244500D01*
X74835300Y-102230000D02*
X79849800Y-107244500D01*
X73660000Y-102230000D02*
X74835300Y-102230000D01*
%TO.N,/DR*%
X87226000Y-107824200D02*
X87226000Y-107948000D01*
X85492000Y-106090200D02*
X87226000Y-107824200D01*
X80060200Y-106090200D02*
X85492000Y-106090200D01*
X73660000Y-99690000D02*
X80060200Y-106090200D01*
%TO.N,/CK*%
X73660000Y-97150000D02*
X74835300Y-97150000D01*
X75059900Y-97150000D02*
X74835300Y-97150000D01*
X78251900Y-100342000D02*
X75059900Y-97150000D01*
X86653300Y-100342000D02*
X78251900Y-100342000D01*
X88615000Y-102303700D02*
X86653300Y-100342000D01*
%TO.N,/DL*%
X80116900Y-99891600D02*
X74835300Y-94610000D01*
X88703400Y-99891600D02*
X80116900Y-99891600D01*
X88900000Y-99695000D02*
X88703400Y-99891600D01*
X73660000Y-94610000D02*
X74835300Y-94610000D01*
%TO.N,/LL*%
X80094700Y-105364800D02*
X85633100Y-105364800D01*
X78040900Y-103311000D02*
X80094700Y-105364800D01*
X78040900Y-102403500D02*
X78040900Y-103311000D01*
X74057400Y-98420000D02*
X78040900Y-102403500D01*
X73262400Y-98420000D02*
X74057400Y-98420000D01*
X72462500Y-97620100D02*
X73262400Y-98420000D01*
X72462500Y-94075500D02*
X72462500Y-97620100D01*
X73292700Y-93245300D02*
X72462500Y-94075500D01*
X73660000Y-93245300D02*
X73292700Y-93245300D01*
X73660000Y-92070000D02*
X73660000Y-93245300D01*
D14*
%TO.N,GND*%
X100965000Y-93980000D02*
X98420000Y-91435000D01*
X100965000Y-106045000D02*
X100965000Y-93980000D01*
X100360000Y-106650000D02*
X100965000Y-106045000D01*
X100360000Y-107345000D02*
X100360000Y-106650000D01*
X99970000Y-91087100D02*
X99622100Y-91435000D01*
X99970000Y-87270000D02*
X99970000Y-91087100D01*
X99695000Y-86995000D02*
X99970000Y-87270000D01*
X87968000Y-86995000D02*
X99695000Y-86995000D01*
X86360000Y-88603000D02*
X87968000Y-86995000D01*
X86360000Y-89535000D02*
X86360000Y-88603000D01*
X88260000Y-91435000D02*
X86360000Y-89535000D01*
X99622100Y-91435000D02*
X98420000Y-91435000D01*
X90805000Y-93980000D02*
X95885000Y-93980000D01*
X88260000Y-91435000D02*
X90805000Y-93980000D01*
X98420000Y-91435000D02*
X99622100Y-91435000D01*
X108585000Y-93412900D02*
X108585000Y-94615000D01*
X106607000Y-91435000D02*
X108585000Y-93412900D01*
X99622100Y-91435000D02*
X106607000Y-91435000D01*
%TO.N,+3.3V*%
X82575000Y-99035000D02*
X82550000Y-99060000D01*
X82575000Y-95860000D02*
X82575000Y-99035000D01*
X96415700Y-95145700D02*
X97084500Y-94476900D01*
X97084500Y-92639500D02*
X95880000Y-91435000D01*
X97084500Y-94476900D02*
X97084500Y-92639500D01*
X95701400Y-95860000D02*
X96415700Y-95145700D01*
X82575000Y-95860000D02*
X95701400Y-95860000D01*
X81305000Y-95860000D02*
X82575000Y-95860000D01*
%TD*%
%TA.AperFunction,Conductor*%
%TO.N,GND*%
G36*
X86303327Y-86380002D02*
G01*
X86349820Y-86433658D01*
X86359924Y-86503932D01*
X86330430Y-86568512D01*
X86324307Y-86575089D01*
X85714684Y-87184711D01*
X85114547Y-87784848D01*
X85106261Y-87792388D01*
X85099782Y-87796500D01*
X85094357Y-87802277D01*
X85053157Y-87846151D01*
X85050402Y-87848993D01*
X85030665Y-87868730D01*
X85028185Y-87871927D01*
X85020482Y-87880947D01*
X84990214Y-87913179D01*
X84986395Y-87920125D01*
X84986393Y-87920128D01*
X84980452Y-87930934D01*
X84969601Y-87947453D01*
X84957186Y-87963459D01*
X84954041Y-87970728D01*
X84954038Y-87970732D01*
X84939626Y-88004037D01*
X84934409Y-88014687D01*
X84913105Y-88053440D01*
X84911134Y-88061115D01*
X84911134Y-88061116D01*
X84908067Y-88073062D01*
X84901663Y-88091766D01*
X84893619Y-88110355D01*
X84892380Y-88118178D01*
X84892377Y-88118188D01*
X84886701Y-88154024D01*
X84884295Y-88165644D01*
X84880345Y-88181029D01*
X84873300Y-88208470D01*
X84873300Y-88228724D01*
X84871749Y-88248434D01*
X84868580Y-88268443D01*
X84869326Y-88276335D01*
X84872741Y-88312461D01*
X84873300Y-88324319D01*
X84873300Y-89379075D01*
X84853298Y-89447196D01*
X84799642Y-89493689D01*
X84729368Y-89503793D01*
X84664788Y-89474299D01*
X84638181Y-89442075D01*
X84606542Y-89387274D01*
X84606539Y-89387269D01*
X84603240Y-89381556D01*
X84494570Y-89260865D01*
X84479875Y-89244545D01*
X84479874Y-89244544D01*
X84475453Y-89239634D01*
X84320952Y-89127382D01*
X84314924Y-89124698D01*
X84314922Y-89124697D01*
X84152519Y-89052391D01*
X84152518Y-89052391D01*
X84146488Y-89049706D01*
X84053088Y-89029853D01*
X83966144Y-89011372D01*
X83966139Y-89011372D01*
X83959687Y-89010000D01*
X83768713Y-89010000D01*
X83762261Y-89011372D01*
X83762256Y-89011372D01*
X83675312Y-89029853D01*
X83581912Y-89049706D01*
X83575882Y-89052391D01*
X83575881Y-89052391D01*
X83413478Y-89124697D01*
X83413476Y-89124698D01*
X83407448Y-89127382D01*
X83252947Y-89239634D01*
X83248526Y-89244544D01*
X83248525Y-89244545D01*
X83233831Y-89260865D01*
X83125160Y-89381556D01*
X83029673Y-89546944D01*
X82970658Y-89728572D01*
X82969968Y-89735133D01*
X82969968Y-89735135D01*
X82953293Y-89893792D01*
X82926280Y-89959449D01*
X82917078Y-89969718D01*
X82851799Y-90034996D01*
X82789486Y-90069021D01*
X82762704Y-90071900D01*
X75144500Y-90071900D01*
X75076379Y-90051898D01*
X75029886Y-89998242D01*
X75018500Y-89945900D01*
X75018500Y-88631866D01*
X75011745Y-88569684D01*
X74960615Y-88433295D01*
X74873261Y-88316739D01*
X74756705Y-88229385D01*
X74620316Y-88178255D01*
X74558134Y-88171500D01*
X72761866Y-88171500D01*
X72699684Y-88178255D01*
X72563295Y-88229385D01*
X72446739Y-88316739D01*
X72359385Y-88433295D01*
X72308255Y-88569684D01*
X72301500Y-88631866D01*
X72301500Y-90428134D01*
X72308255Y-90490316D01*
X72311029Y-90497715D01*
X72349283Y-90599757D01*
X72359385Y-90626705D01*
X72364768Y-90633887D01*
X72366310Y-90636704D01*
X72381480Y-90706061D01*
X72356744Y-90772609D01*
X72344887Y-90786309D01*
X71966429Y-91164766D01*
X71600842Y-91530353D01*
X71592563Y-91537887D01*
X71586082Y-91542000D01*
X71539457Y-91591651D01*
X71536702Y-91594493D01*
X71516965Y-91614230D01*
X71514485Y-91617427D01*
X71506782Y-91626447D01*
X71476514Y-91658679D01*
X71472695Y-91665625D01*
X71472693Y-91665628D01*
X71466752Y-91676434D01*
X71455901Y-91692953D01*
X71455541Y-91693417D01*
X71443486Y-91708959D01*
X71440341Y-91716228D01*
X71440338Y-91716232D01*
X71425926Y-91749537D01*
X71420709Y-91760187D01*
X71399405Y-91798940D01*
X71397434Y-91806615D01*
X71397434Y-91806616D01*
X71394367Y-91818562D01*
X71387963Y-91837266D01*
X71385767Y-91842342D01*
X71379919Y-91855855D01*
X71378680Y-91863678D01*
X71378677Y-91863688D01*
X71373001Y-91899524D01*
X71370595Y-91911144D01*
X71362861Y-91941267D01*
X71359600Y-91953970D01*
X71359600Y-91974224D01*
X71358049Y-91993934D01*
X71354880Y-92013943D01*
X71355626Y-92021835D01*
X71359041Y-92057961D01*
X71359600Y-92069819D01*
X71359600Y-102222033D01*
X71359073Y-102233216D01*
X71357398Y-102240709D01*
X71357647Y-102248635D01*
X71357647Y-102248636D01*
X71359538Y-102308786D01*
X71359600Y-102312745D01*
X71359600Y-102340656D01*
X71360097Y-102344590D01*
X71360097Y-102344591D01*
X71360105Y-102344656D01*
X71361038Y-102356493D01*
X71362427Y-102400689D01*
X71368078Y-102420139D01*
X71372087Y-102439500D01*
X71374626Y-102459597D01*
X71377545Y-102466968D01*
X71377545Y-102466970D01*
X71390904Y-102500712D01*
X71394749Y-102511942D01*
X71404871Y-102546783D01*
X71407082Y-102554393D01*
X71411115Y-102561212D01*
X71411117Y-102561217D01*
X71417393Y-102571828D01*
X71426088Y-102589576D01*
X71433548Y-102608417D01*
X71438210Y-102614833D01*
X71438210Y-102614834D01*
X71459536Y-102644187D01*
X71466052Y-102654107D01*
X71478560Y-102675256D01*
X71488558Y-102692162D01*
X71502879Y-102706483D01*
X71515719Y-102721516D01*
X71527628Y-102737907D01*
X71546640Y-102753635D01*
X71561705Y-102766098D01*
X71570484Y-102774088D01*
X72570910Y-103774515D01*
X72604936Y-103836827D01*
X72599871Y-103907643D01*
X72585903Y-103934615D01*
X72478095Y-104092655D01*
X72473000Y-104101623D01*
X72383338Y-104294783D01*
X72379775Y-104304470D01*
X72324389Y-104504183D01*
X72325912Y-104512607D01*
X72338292Y-104516000D01*
X74978344Y-104516000D01*
X74991875Y-104512027D01*
X74993180Y-104502947D01*
X74960282Y-104371976D01*
X74963086Y-104301035D01*
X75003799Y-104242871D01*
X75069494Y-104215952D01*
X75139314Y-104228823D01*
X75171581Y-104252185D01*
X81293143Y-110373747D01*
X81300687Y-110382037D01*
X81304800Y-110388518D01*
X81310577Y-110393943D01*
X81354467Y-110435158D01*
X81357309Y-110437913D01*
X81377030Y-110457634D01*
X81380225Y-110460112D01*
X81389247Y-110467818D01*
X81421479Y-110498086D01*
X81428428Y-110501906D01*
X81439232Y-110507846D01*
X81455756Y-110518699D01*
X81471759Y-110531113D01*
X81512343Y-110548676D01*
X81522973Y-110553883D01*
X81561740Y-110575195D01*
X81569417Y-110577166D01*
X81569422Y-110577168D01*
X81581358Y-110580232D01*
X81600066Y-110586637D01*
X81618655Y-110594681D01*
X81626483Y-110595921D01*
X81626490Y-110595923D01*
X81662324Y-110601599D01*
X81673944Y-110604005D01*
X81709089Y-110613028D01*
X81716770Y-110615000D01*
X81737024Y-110615000D01*
X81756734Y-110616551D01*
X81776743Y-110619720D01*
X81784635Y-110618974D01*
X81820761Y-110615559D01*
X81832619Y-110615000D01*
X91193800Y-110615000D01*
X91261921Y-110635002D01*
X91281147Y-110651343D01*
X91281420Y-110651040D01*
X91286332Y-110655463D01*
X91290747Y-110660366D01*
X91445248Y-110772618D01*
X91451276Y-110775302D01*
X91451278Y-110775303D01*
X91613681Y-110847609D01*
X91619712Y-110850294D01*
X91713112Y-110870147D01*
X91800056Y-110888628D01*
X91800061Y-110888628D01*
X91806513Y-110890000D01*
X91997487Y-110890000D01*
X92003939Y-110888628D01*
X92003944Y-110888628D01*
X92090887Y-110870147D01*
X92184288Y-110850294D01*
X92190319Y-110847609D01*
X92352722Y-110775303D01*
X92352724Y-110775302D01*
X92358752Y-110772618D01*
X92513253Y-110660366D01*
X92549851Y-110619720D01*
X92636621Y-110523352D01*
X92636622Y-110523351D01*
X92641040Y-110518444D01*
X92736527Y-110353056D01*
X92738568Y-110346775D01*
X92741254Y-110340742D01*
X92742629Y-110341354D01*
X92778324Y-110289155D01*
X92843721Y-110261521D01*
X92858080Y-110260700D01*
X105387233Y-110260700D01*
X105398416Y-110261227D01*
X105405909Y-110262902D01*
X105413835Y-110262653D01*
X105413836Y-110262653D01*
X105473986Y-110260762D01*
X105477945Y-110260700D01*
X105505856Y-110260700D01*
X105509791Y-110260203D01*
X105509856Y-110260195D01*
X105521693Y-110259262D01*
X105553951Y-110258248D01*
X105557970Y-110258122D01*
X105565889Y-110257873D01*
X105585343Y-110252221D01*
X105604700Y-110248213D01*
X105616930Y-110246668D01*
X105616931Y-110246668D01*
X105624797Y-110245674D01*
X105632168Y-110242755D01*
X105632170Y-110242755D01*
X105665912Y-110229396D01*
X105677142Y-110225551D01*
X105711983Y-110215429D01*
X105711984Y-110215429D01*
X105719593Y-110213218D01*
X105726412Y-110209185D01*
X105726417Y-110209183D01*
X105737028Y-110202907D01*
X105754776Y-110194212D01*
X105773617Y-110186752D01*
X105809387Y-110160764D01*
X105819307Y-110154248D01*
X105850535Y-110135780D01*
X105850538Y-110135778D01*
X105857362Y-110131742D01*
X105871683Y-110117421D01*
X105886717Y-110104580D01*
X105896694Y-110097331D01*
X105903107Y-110092672D01*
X105931298Y-110058595D01*
X105939288Y-110049816D01*
X110172853Y-105816252D01*
X110181139Y-105808712D01*
X110187618Y-105804600D01*
X110234244Y-105754948D01*
X110236998Y-105752107D01*
X110256735Y-105732370D01*
X110259215Y-105729173D01*
X110266920Y-105720151D01*
X110291759Y-105693700D01*
X110297186Y-105687921D01*
X110301005Y-105680975D01*
X110301007Y-105680972D01*
X110306948Y-105670166D01*
X110317799Y-105653647D01*
X110321323Y-105649104D01*
X110330214Y-105637641D01*
X110333359Y-105630372D01*
X110333362Y-105630368D01*
X110347774Y-105597063D01*
X110352991Y-105586413D01*
X110374295Y-105547660D01*
X110379333Y-105528037D01*
X110385737Y-105509334D01*
X110390633Y-105498020D01*
X110390633Y-105498019D01*
X110393781Y-105490745D01*
X110395020Y-105482922D01*
X110395023Y-105482912D01*
X110400699Y-105447076D01*
X110403105Y-105435456D01*
X110412128Y-105400311D01*
X110412128Y-105400310D01*
X110414100Y-105392630D01*
X110414100Y-105372376D01*
X110415651Y-105352665D01*
X110417580Y-105340486D01*
X110418820Y-105332657D01*
X110414659Y-105288638D01*
X110414100Y-105276781D01*
X110414100Y-101777367D01*
X110414627Y-101766184D01*
X110416302Y-101758691D01*
X110415479Y-101732494D01*
X110414162Y-101690614D01*
X110414100Y-101686655D01*
X110414100Y-101658744D01*
X110413595Y-101654744D01*
X110412662Y-101642901D01*
X110411522Y-101606629D01*
X110411273Y-101598710D01*
X110405622Y-101579258D01*
X110401614Y-101559906D01*
X110400067Y-101547663D01*
X110399074Y-101539803D01*
X110396006Y-101532054D01*
X110382800Y-101498697D01*
X110378955Y-101487470D01*
X110378321Y-101485287D01*
X110366618Y-101445007D01*
X110356307Y-101427572D01*
X110347612Y-101409824D01*
X110340152Y-101390983D01*
X110314164Y-101355213D01*
X110307648Y-101345293D01*
X110289180Y-101314065D01*
X110289178Y-101314062D01*
X110285142Y-101307238D01*
X110270821Y-101292917D01*
X110257980Y-101277883D01*
X110250731Y-101267906D01*
X110246072Y-101261493D01*
X110239967Y-101256442D01*
X110239962Y-101256437D01*
X110211996Y-101233301D01*
X110203218Y-101225313D01*
X109670899Y-100692994D01*
X109636873Y-100630682D01*
X109641938Y-100559867D01*
X109657671Y-100530373D01*
X109750435Y-100401277D01*
X109753453Y-100397077D01*
X109763006Y-100377749D01*
X109850136Y-100201453D01*
X109850137Y-100201451D01*
X109852430Y-100196811D01*
X109917370Y-99983069D01*
X109946529Y-99761590D01*
X109947643Y-99716000D01*
X109948074Y-99698365D01*
X109948074Y-99698361D01*
X109948156Y-99695000D01*
X109929852Y-99472361D01*
X109875431Y-99255702D01*
X109786354Y-99050840D01*
X109741194Y-98981033D01*
X109667822Y-98867617D01*
X109667820Y-98867614D01*
X109665014Y-98863277D01*
X109514670Y-98698051D01*
X109510619Y-98694852D01*
X109510615Y-98694848D01*
X109343414Y-98562800D01*
X109343410Y-98562798D01*
X109339359Y-98559598D01*
X109298053Y-98536796D01*
X109248084Y-98486364D01*
X109233312Y-98416921D01*
X109258428Y-98350516D01*
X109285780Y-98323909D01*
X109352562Y-98276274D01*
X109464860Y-98196173D01*
X109513447Y-98147756D01*
X109619435Y-98042137D01*
X109623096Y-98038489D01*
X109638982Y-98016382D01*
X109750435Y-97861277D01*
X109753453Y-97857077D01*
X109768368Y-97826900D01*
X109850136Y-97661453D01*
X109850137Y-97661451D01*
X109852430Y-97656811D01*
X109917370Y-97443069D01*
X109946529Y-97221590D01*
X109948156Y-97155000D01*
X109929852Y-96932361D01*
X109875431Y-96715702D01*
X109786354Y-96510840D01*
X109665014Y-96323277D01*
X109514670Y-96158051D01*
X109510619Y-96154852D01*
X109510615Y-96154848D01*
X109343414Y-96022800D01*
X109343410Y-96022798D01*
X109339359Y-96019598D01*
X109330302Y-96014598D01*
X109297569Y-95996529D01*
X109247598Y-95946097D01*
X109232826Y-95876654D01*
X109257942Y-95810248D01*
X109285294Y-95783641D01*
X109460328Y-95658792D01*
X109468200Y-95652139D01*
X109619052Y-95501812D01*
X109625730Y-95493965D01*
X109750003Y-95321020D01*
X109755313Y-95312183D01*
X109849670Y-95121267D01*
X109853469Y-95111672D01*
X109915377Y-94907910D01*
X109917555Y-94897837D01*
X109918986Y-94886962D01*
X109916775Y-94872778D01*
X109903617Y-94869000D01*
X108457000Y-94869000D01*
X108388879Y-94848998D01*
X108342386Y-94795342D01*
X108331000Y-94743000D01*
X108331000Y-94342885D01*
X108839000Y-94342885D01*
X108843475Y-94358124D01*
X108844865Y-94359329D01*
X108852548Y-94361000D01*
X109903344Y-94361000D01*
X109916875Y-94357027D01*
X109918180Y-94347947D01*
X109876214Y-94180875D01*
X109872894Y-94171124D01*
X109787972Y-93975814D01*
X109783105Y-93966739D01*
X109667426Y-93787926D01*
X109661136Y-93779757D01*
X109517806Y-93622240D01*
X109510273Y-93615215D01*
X109343139Y-93483222D01*
X109334552Y-93477517D01*
X109148117Y-93374599D01*
X109138705Y-93370369D01*
X108937959Y-93299280D01*
X108927988Y-93296646D01*
X108856837Y-93283972D01*
X108843540Y-93285432D01*
X108839000Y-93299989D01*
X108839000Y-94342885D01*
X108331000Y-94342885D01*
X108331000Y-93298102D01*
X108327082Y-93284758D01*
X108312806Y-93282771D01*
X108274324Y-93288660D01*
X108264288Y-93291051D01*
X108061868Y-93357212D01*
X108052359Y-93361209D01*
X107863463Y-93459542D01*
X107854738Y-93465036D01*
X107684433Y-93592905D01*
X107676726Y-93599748D01*
X107599478Y-93680584D01*
X107537954Y-93716014D01*
X107467042Y-93712557D01*
X107409255Y-93671311D01*
X107390402Y-93637763D01*
X107348767Y-93526703D01*
X107345615Y-93518295D01*
X107258261Y-93401739D01*
X107141705Y-93314385D01*
X107005316Y-93263255D01*
X106943134Y-93256500D01*
X105146866Y-93256500D01*
X105084684Y-93263255D01*
X104948295Y-93314385D01*
X104831739Y-93401739D01*
X104744385Y-93518295D01*
X104693255Y-93654684D01*
X104686500Y-93716866D01*
X104686500Y-95513134D01*
X104693255Y-95575316D01*
X104744385Y-95711705D01*
X104831739Y-95828261D01*
X104948295Y-95915615D01*
X104956704Y-95918767D01*
X104956705Y-95918768D01*
X105065451Y-95959535D01*
X105122216Y-96002176D01*
X105146916Y-96068738D01*
X105131709Y-96138087D01*
X105112316Y-96164568D01*
X104985629Y-96297138D01*
X104859743Y-96481680D01*
X104832687Y-96539967D01*
X104775262Y-96663680D01*
X104765688Y-96684305D01*
X104705989Y-96899570D01*
X104682251Y-97121695D01*
X104682548Y-97126848D01*
X104682548Y-97126851D01*
X104688011Y-97221590D01*
X104695110Y-97344715D01*
X104696247Y-97349761D01*
X104696248Y-97349767D01*
X104716119Y-97437939D01*
X104744222Y-97562639D01*
X104828266Y-97769616D01*
X104878798Y-97852077D01*
X104942291Y-97955688D01*
X104944987Y-97960088D01*
X105091250Y-98128938D01*
X105263126Y-98271632D01*
X105271070Y-98276274D01*
X105336445Y-98314476D01*
X105385169Y-98366114D01*
X105398240Y-98435897D01*
X105371509Y-98501669D01*
X105331055Y-98535027D01*
X105318607Y-98541507D01*
X105314474Y-98544610D01*
X105314471Y-98544612D01*
X105144100Y-98672530D01*
X105139965Y-98675635D01*
X104985629Y-98837138D01*
X104982720Y-98841403D01*
X104982714Y-98841411D01*
X104964838Y-98867617D01*
X104859743Y-99021680D01*
X104827207Y-99091773D01*
X104784192Y-99184442D01*
X104765688Y-99224305D01*
X104705989Y-99439570D01*
X104682251Y-99661695D01*
X104682548Y-99666848D01*
X104682548Y-99666851D01*
X104688011Y-99761590D01*
X104695110Y-99884715D01*
X104696247Y-99889761D01*
X104696248Y-99889767D01*
X104716119Y-99977939D01*
X104744222Y-100102639D01*
X104828266Y-100309616D01*
X104867638Y-100373866D01*
X104942291Y-100495688D01*
X104944987Y-100500088D01*
X104948367Y-100503990D01*
X104964281Y-100522361D01*
X104993765Y-100586946D01*
X104983651Y-100657219D01*
X104958140Y-100693955D01*
X103362047Y-102290048D01*
X103353761Y-102297588D01*
X103347282Y-102301700D01*
X103341857Y-102307477D01*
X103300657Y-102351351D01*
X103297902Y-102354193D01*
X103278165Y-102373930D01*
X103275685Y-102377127D01*
X103267982Y-102386147D01*
X103237714Y-102418379D01*
X103233895Y-102425325D01*
X103233893Y-102425328D01*
X103227952Y-102436134D01*
X103217101Y-102452653D01*
X103204686Y-102468659D01*
X103201541Y-102475928D01*
X103201538Y-102475932D01*
X103187126Y-102509237D01*
X103181909Y-102519887D01*
X103160605Y-102558640D01*
X103158634Y-102566315D01*
X103158634Y-102566316D01*
X103155567Y-102578262D01*
X103149163Y-102596966D01*
X103147398Y-102601046D01*
X103141119Y-102615555D01*
X103139880Y-102623378D01*
X103139877Y-102623388D01*
X103134201Y-102659224D01*
X103131795Y-102670844D01*
X103124881Y-102697773D01*
X103120800Y-102713670D01*
X103120800Y-102733924D01*
X103119249Y-102753634D01*
X103116080Y-102773643D01*
X103116826Y-102781535D01*
X103120241Y-102817661D01*
X103120800Y-102829519D01*
X103120800Y-104849305D01*
X103100798Y-104917426D01*
X103083895Y-104938400D01*
X100481900Y-107540395D01*
X100419588Y-107574421D01*
X100392805Y-107577300D01*
X94669294Y-107577300D01*
X94601173Y-107557298D01*
X94580199Y-107540395D01*
X93033022Y-105993217D01*
X92998996Y-105930905D01*
X92996807Y-105917292D01*
X92980132Y-105758635D01*
X92980132Y-105758633D01*
X92979442Y-105752072D01*
X92920427Y-105570444D01*
X92824940Y-105405056D01*
X92788694Y-105364800D01*
X92701575Y-105268045D01*
X92701574Y-105268044D01*
X92697153Y-105263134D01*
X92585861Y-105182275D01*
X92547994Y-105154763D01*
X92547993Y-105154762D01*
X92542652Y-105150882D01*
X92536624Y-105148198D01*
X92536622Y-105148197D01*
X92374219Y-105075891D01*
X92374218Y-105075891D01*
X92368188Y-105073206D01*
X92272360Y-105052837D01*
X92187844Y-105034872D01*
X92187839Y-105034872D01*
X92181387Y-105033500D01*
X91990413Y-105033500D01*
X91983961Y-105034872D01*
X91983956Y-105034872D01*
X91899440Y-105052837D01*
X91803612Y-105073206D01*
X91797582Y-105075891D01*
X91797581Y-105075891D01*
X91635178Y-105148197D01*
X91635176Y-105148198D01*
X91629148Y-105150882D01*
X91623807Y-105154762D01*
X91623806Y-105154763D01*
X91585939Y-105182275D01*
X91474647Y-105263134D01*
X91470226Y-105268044D01*
X91470225Y-105268045D01*
X91383107Y-105364800D01*
X91346860Y-105405056D01*
X91251373Y-105570444D01*
X91192358Y-105752072D01*
X91191668Y-105758633D01*
X91191668Y-105758635D01*
X91177228Y-105896022D01*
X91172396Y-105942000D01*
X91173086Y-105948565D01*
X91173086Y-105948567D01*
X91176497Y-105981023D01*
X91163724Y-106050861D01*
X91115222Y-106102707D01*
X91046389Y-106120101D01*
X90979079Y-106097519D01*
X90962092Y-106083287D01*
X90630680Y-105751875D01*
X90596654Y-105689563D01*
X90593775Y-105662780D01*
X90593775Y-102266442D01*
X90594302Y-102255259D01*
X90595977Y-102247766D01*
X90593837Y-102179675D01*
X90593775Y-102175718D01*
X90593775Y-102147819D01*
X90593351Y-102144465D01*
X90595245Y-102118670D01*
X90594842Y-102118628D01*
X90614114Y-101935265D01*
X90614804Y-101928700D01*
X90614114Y-101922135D01*
X90595532Y-101745335D01*
X90595532Y-101745333D01*
X90594842Y-101738772D01*
X90535827Y-101557144D01*
X90521560Y-101532432D01*
X90495601Y-101487470D01*
X90440340Y-101391756D01*
X90337809Y-101277883D01*
X90316975Y-101254745D01*
X90316971Y-101254741D01*
X90312553Y-101249834D01*
X90158052Y-101137582D01*
X90152024Y-101134898D01*
X90152022Y-101134897D01*
X89989619Y-101062591D01*
X89989618Y-101062591D01*
X89983588Y-101059906D01*
X89890188Y-101040053D01*
X89803244Y-101021572D01*
X89803239Y-101021572D01*
X89796787Y-101020200D01*
X89605813Y-101020200D01*
X89599361Y-101021572D01*
X89599356Y-101021572D01*
X89512412Y-101040053D01*
X89419012Y-101059906D01*
X89412982Y-101062591D01*
X89412981Y-101062591D01*
X89250578Y-101134897D01*
X89250576Y-101134898D01*
X89244548Y-101137582D01*
X89090047Y-101249834D01*
X88967888Y-101385506D01*
X88907443Y-101422744D01*
X88848056Y-101424441D01*
X88716944Y-101396572D01*
X88716939Y-101396572D01*
X88710487Y-101395200D01*
X88654595Y-101395200D01*
X88586474Y-101375198D01*
X88565499Y-101358295D01*
X87947400Y-100740195D01*
X87913375Y-100677883D01*
X87918440Y-100607067D01*
X87960987Y-100550232D01*
X88027507Y-100525421D01*
X88036496Y-100525100D01*
X88504021Y-100525100D01*
X88555269Y-100535993D01*
X88611676Y-100561107D01*
X88611679Y-100561108D01*
X88617712Y-100563794D01*
X88656262Y-100571988D01*
X88798056Y-100602128D01*
X88798061Y-100602128D01*
X88804513Y-100603500D01*
X88995487Y-100603500D01*
X89001939Y-100602128D01*
X89001944Y-100602128D01*
X89095991Y-100582137D01*
X89182288Y-100563794D01*
X89188323Y-100561107D01*
X89350722Y-100488803D01*
X89350724Y-100488802D01*
X89356752Y-100486118D01*
X89511253Y-100373866D01*
X89528369Y-100354857D01*
X89634621Y-100236852D01*
X89634622Y-100236851D01*
X89639040Y-100231944D01*
X89710931Y-100107425D01*
X89731223Y-100072279D01*
X89731224Y-100072278D01*
X89734527Y-100066556D01*
X89793542Y-99884928D01*
X89806157Y-99764908D01*
X89812814Y-99701565D01*
X89813504Y-99695000D01*
X89793542Y-99505072D01*
X89734527Y-99323444D01*
X89639040Y-99158056D01*
X89624725Y-99142157D01*
X89515675Y-99021045D01*
X89515674Y-99021044D01*
X89511253Y-99016134D01*
X89356752Y-98903882D01*
X89350724Y-98901198D01*
X89350722Y-98901197D01*
X89188319Y-98828891D01*
X89188318Y-98828891D01*
X89182288Y-98826206D01*
X89082339Y-98804961D01*
X89001944Y-98787872D01*
X89001939Y-98787872D01*
X88995487Y-98786500D01*
X88804513Y-98786500D01*
X88798061Y-98787872D01*
X88798056Y-98787872D01*
X88717661Y-98804961D01*
X88617712Y-98826206D01*
X88611682Y-98828891D01*
X88611681Y-98828891D01*
X88449278Y-98901197D01*
X88449276Y-98901198D01*
X88443248Y-98903882D01*
X88288747Y-99016134D01*
X88284326Y-99021044D01*
X88284325Y-99021045D01*
X88175276Y-99142157D01*
X88160960Y-99158056D01*
X88157659Y-99163774D01*
X88157656Y-99163778D01*
X88139571Y-99195101D01*
X88088188Y-99244094D01*
X88030453Y-99258100D01*
X83705767Y-99258100D01*
X83637646Y-99238098D01*
X83591153Y-99184442D01*
X83580552Y-99118055D01*
X83583108Y-99095270D01*
X83583108Y-99095266D01*
X83583500Y-99091773D01*
X83583500Y-99088246D01*
X83583555Y-99087261D01*
X83584002Y-99081581D01*
X83588374Y-99038538D01*
X83584059Y-98992891D01*
X83583500Y-98981033D01*
X83583500Y-96994500D01*
X83603502Y-96926379D01*
X83657158Y-96879886D01*
X83709500Y-96868500D01*
X95489005Y-96868500D01*
X95557126Y-96888502D01*
X95603619Y-96942158D01*
X95613723Y-97012432D01*
X95584229Y-97077012D01*
X95578100Y-97083595D01*
X94799600Y-97862095D01*
X94737288Y-97896121D01*
X94710505Y-97899000D01*
X94664513Y-97899000D01*
X94658061Y-97900372D01*
X94658056Y-97900372D01*
X94571112Y-97918853D01*
X94477712Y-97938706D01*
X94471682Y-97941391D01*
X94471681Y-97941391D01*
X94309278Y-98013697D01*
X94309276Y-98013698D01*
X94303248Y-98016382D01*
X94148747Y-98128634D01*
X94144326Y-98133544D01*
X94144325Y-98133545D01*
X94046648Y-98242027D01*
X94020960Y-98270556D01*
X93925473Y-98435944D01*
X93866458Y-98617572D01*
X93865768Y-98624133D01*
X93865768Y-98624135D01*
X93859886Y-98680104D01*
X93846496Y-98807500D01*
X93847186Y-98814065D01*
X93865360Y-98986978D01*
X93866458Y-98997428D01*
X93925473Y-99179056D01*
X93928776Y-99184778D01*
X93928777Y-99184779D01*
X93948887Y-99219610D01*
X94020960Y-99344444D01*
X94148747Y-99486366D01*
X94303248Y-99598618D01*
X94309276Y-99601302D01*
X94309278Y-99601303D01*
X94471681Y-99673609D01*
X94477712Y-99676294D01*
X94565716Y-99695000D01*
X94658056Y-99714628D01*
X94658061Y-99714628D01*
X94664513Y-99716000D01*
X94855487Y-99716000D01*
X94861939Y-99714628D01*
X94861944Y-99714628D01*
X94954284Y-99695000D01*
X95042288Y-99676294D01*
X95048319Y-99673609D01*
X95210722Y-99601303D01*
X95210724Y-99601302D01*
X95216752Y-99598618D01*
X95371253Y-99486366D01*
X95499040Y-99344444D01*
X95571113Y-99219610D01*
X95591223Y-99184779D01*
X95591224Y-99184778D01*
X95594527Y-99179056D01*
X95653542Y-98997428D01*
X95654641Y-98986978D01*
X95672070Y-98821144D01*
X95699083Y-98755487D01*
X95708285Y-98745219D01*
X99061799Y-95391705D01*
X99124111Y-95357679D01*
X99150894Y-95354800D01*
X99206787Y-95354800D01*
X99213239Y-95353428D01*
X99213244Y-95353428D01*
X99300187Y-95334947D01*
X99393588Y-95315094D01*
X99399619Y-95312409D01*
X99562022Y-95240103D01*
X99562024Y-95240102D01*
X99568052Y-95237418D01*
X99722553Y-95125166D01*
X99850340Y-94983244D01*
X99945827Y-94817856D01*
X100004842Y-94636228D01*
X100024804Y-94446300D01*
X100015663Y-94359329D01*
X100005532Y-94262935D01*
X100005532Y-94262933D01*
X100004842Y-94256372D01*
X99945827Y-94074744D01*
X99937538Y-94060386D01*
X99873851Y-93950079D01*
X99850340Y-93909356D01*
X99722553Y-93767434D01*
X99590252Y-93671311D01*
X99573394Y-93659063D01*
X99573393Y-93659062D01*
X99568052Y-93655182D01*
X99562024Y-93652498D01*
X99562022Y-93652497D01*
X99399619Y-93580191D01*
X99399618Y-93580191D01*
X99393588Y-93577506D01*
X99300188Y-93557653D01*
X99213244Y-93539172D01*
X99213239Y-93539172D01*
X99206787Y-93537800D01*
X99015813Y-93537800D01*
X99009361Y-93539172D01*
X99009356Y-93539172D01*
X98922412Y-93557653D01*
X98829012Y-93577506D01*
X98822982Y-93580191D01*
X98822981Y-93580191D01*
X98660578Y-93652497D01*
X98660576Y-93652498D01*
X98654548Y-93655182D01*
X98649207Y-93659062D01*
X98649206Y-93659063D01*
X98632348Y-93671311D01*
X98500047Y-93767434D01*
X98372260Y-93909356D01*
X98348749Y-93950079D01*
X98328119Y-93985810D01*
X98276736Y-94034803D01*
X98207023Y-94048239D01*
X98141112Y-94021852D01*
X98099930Y-93964020D01*
X98093000Y-93922810D01*
X98093000Y-92880987D01*
X98113002Y-92812866D01*
X98142138Y-92781146D01*
X98161700Y-92766086D01*
X98166000Y-92754065D01*
X98166000Y-92753517D01*
X98674000Y-92753517D01*
X98678064Y-92767359D01*
X98691478Y-92769393D01*
X98698184Y-92768534D01*
X98708262Y-92766392D01*
X98912255Y-92705191D01*
X98921842Y-92701433D01*
X99113095Y-92607739D01*
X99121945Y-92602464D01*
X99295328Y-92478792D01*
X99303200Y-92472139D01*
X99454052Y-92321812D01*
X99460730Y-92313965D01*
X99585003Y-92141020D01*
X99590313Y-92132183D01*
X99684670Y-91941267D01*
X99688469Y-91931672D01*
X99750377Y-91727910D01*
X99752555Y-91717837D01*
X99753986Y-91706962D01*
X99751775Y-91692778D01*
X99738617Y-91689000D01*
X98692115Y-91689000D01*
X98676876Y-91693475D01*
X98675671Y-91694865D01*
X98674000Y-91702548D01*
X98674000Y-92753517D01*
X98166000Y-92753517D01*
X98166000Y-91307000D01*
X98186002Y-91238879D01*
X98239658Y-91192386D01*
X98292000Y-91181000D01*
X99738344Y-91181000D01*
X99751875Y-91177027D01*
X99753180Y-91167947D01*
X99711214Y-91000875D01*
X99707894Y-90991124D01*
X99622972Y-90795814D01*
X99618105Y-90786739D01*
X99502426Y-90607926D01*
X99496136Y-90599757D01*
X99352293Y-90441677D01*
X99321241Y-90377831D01*
X99329635Y-90307333D01*
X99374812Y-90252564D01*
X99401256Y-90238895D01*
X99508297Y-90198767D01*
X99516705Y-90195615D01*
X99633261Y-90108261D01*
X99720615Y-89991705D01*
X99771745Y-89855316D01*
X99778500Y-89793134D01*
X99778500Y-87996866D01*
X99771745Y-87934684D01*
X99720615Y-87798295D01*
X99633261Y-87681739D01*
X99516705Y-87594385D01*
X99380316Y-87543255D01*
X99318134Y-87536500D01*
X97521866Y-87536500D01*
X97459684Y-87543255D01*
X97323295Y-87594385D01*
X97206739Y-87681739D01*
X97119385Y-87798295D01*
X97116233Y-87806703D01*
X97074919Y-87916907D01*
X97032277Y-87973671D01*
X96965716Y-87998371D01*
X96896367Y-87983163D01*
X96863743Y-87957476D01*
X96813151Y-87901875D01*
X96813142Y-87901866D01*
X96809670Y-87898051D01*
X96805619Y-87894852D01*
X96805615Y-87894848D01*
X96638414Y-87762800D01*
X96638410Y-87762798D01*
X96634359Y-87759598D01*
X96438789Y-87651638D01*
X96433920Y-87649914D01*
X96433916Y-87649912D01*
X96233087Y-87578795D01*
X96233083Y-87578794D01*
X96228212Y-87577069D01*
X96223119Y-87576162D01*
X96223116Y-87576161D01*
X96013373Y-87538800D01*
X96013367Y-87538799D01*
X96008284Y-87537894D01*
X95934452Y-87536992D01*
X95790081Y-87535228D01*
X95790079Y-87535228D01*
X95784911Y-87535165D01*
X95564091Y-87568955D01*
X95351756Y-87638357D01*
X95153607Y-87741507D01*
X95149474Y-87744610D01*
X95149471Y-87744612D01*
X94979998Y-87871856D01*
X94974965Y-87875635D01*
X94925607Y-87927285D01*
X94881280Y-87973671D01*
X94820629Y-88037138D01*
X94713201Y-88194621D01*
X94658293Y-88239621D01*
X94587768Y-88247792D01*
X94524021Y-88216538D01*
X94503324Y-88192054D01*
X94422822Y-88067617D01*
X94422820Y-88067614D01*
X94420014Y-88063277D01*
X94269670Y-87898051D01*
X94265619Y-87894852D01*
X94265615Y-87894848D01*
X94098414Y-87762800D01*
X94098410Y-87762798D01*
X94094359Y-87759598D01*
X93898789Y-87651638D01*
X93893920Y-87649914D01*
X93893916Y-87649912D01*
X93693087Y-87578795D01*
X93693083Y-87578794D01*
X93688212Y-87577069D01*
X93683119Y-87576162D01*
X93683116Y-87576161D01*
X93473373Y-87538800D01*
X93473367Y-87538799D01*
X93468284Y-87537894D01*
X93394452Y-87536992D01*
X93250081Y-87535228D01*
X93250079Y-87535228D01*
X93244911Y-87535165D01*
X93024091Y-87568955D01*
X92811756Y-87638357D01*
X92613607Y-87741507D01*
X92609474Y-87744610D01*
X92609471Y-87744612D01*
X92439998Y-87871856D01*
X92434965Y-87875635D01*
X92385607Y-87927285D01*
X92341280Y-87973671D01*
X92280629Y-88037138D01*
X92173201Y-88194621D01*
X92118293Y-88239621D01*
X92047768Y-88247792D01*
X91984021Y-88216538D01*
X91963324Y-88192054D01*
X91882822Y-88067617D01*
X91882820Y-88067614D01*
X91880014Y-88063277D01*
X91729670Y-87898051D01*
X91725619Y-87894852D01*
X91725615Y-87894848D01*
X91558414Y-87762800D01*
X91558410Y-87762798D01*
X91554359Y-87759598D01*
X91358789Y-87651638D01*
X91353920Y-87649914D01*
X91353916Y-87649912D01*
X91153087Y-87578795D01*
X91153083Y-87578794D01*
X91148212Y-87577069D01*
X91143119Y-87576162D01*
X91143116Y-87576161D01*
X90933373Y-87538800D01*
X90933367Y-87538799D01*
X90928284Y-87537894D01*
X90854452Y-87536992D01*
X90710081Y-87535228D01*
X90710079Y-87535228D01*
X90704911Y-87535165D01*
X90484091Y-87568955D01*
X90271756Y-87638357D01*
X90073607Y-87741507D01*
X90069474Y-87744610D01*
X90069471Y-87744612D01*
X89899998Y-87871856D01*
X89894965Y-87875635D01*
X89845607Y-87927285D01*
X89801280Y-87973671D01*
X89740629Y-88037138D01*
X89633201Y-88194621D01*
X89578293Y-88239621D01*
X89507768Y-88247792D01*
X89444021Y-88216538D01*
X89423324Y-88192054D01*
X89342822Y-88067617D01*
X89342820Y-88067614D01*
X89340014Y-88063277D01*
X89189670Y-87898051D01*
X89185619Y-87894852D01*
X89185615Y-87894848D01*
X89018414Y-87762800D01*
X89018410Y-87762798D01*
X89014359Y-87759598D01*
X88818789Y-87651638D01*
X88813920Y-87649914D01*
X88813916Y-87649912D01*
X88613087Y-87578795D01*
X88613083Y-87578794D01*
X88608212Y-87577069D01*
X88603119Y-87576162D01*
X88603116Y-87576161D01*
X88393373Y-87538800D01*
X88393367Y-87538799D01*
X88388284Y-87537894D01*
X88314452Y-87536992D01*
X88170081Y-87535228D01*
X88170079Y-87535228D01*
X88164911Y-87535165D01*
X87944091Y-87568955D01*
X87731756Y-87638357D01*
X87533607Y-87741507D01*
X87529474Y-87744610D01*
X87529471Y-87744612D01*
X87359998Y-87871856D01*
X87354965Y-87875635D01*
X87305607Y-87927285D01*
X87261280Y-87973671D01*
X87200629Y-88037138D01*
X87197720Y-88041403D01*
X87197714Y-88041411D01*
X87185404Y-88059457D01*
X87074743Y-88221680D01*
X87049373Y-88276335D01*
X87003586Y-88374976D01*
X86980688Y-88424305D01*
X86920989Y-88639570D01*
X86897251Y-88861695D01*
X86910110Y-89084715D01*
X86911247Y-89089761D01*
X86911248Y-89089767D01*
X86920600Y-89131263D01*
X86959222Y-89302639D01*
X86997461Y-89396811D01*
X87040902Y-89503793D01*
X87043266Y-89509616D01*
X87080685Y-89570678D01*
X87157291Y-89695688D01*
X87159987Y-89700088D01*
X87306250Y-89868938D01*
X87478126Y-90011632D01*
X87518109Y-90034996D01*
X87551955Y-90054774D01*
X87600679Y-90106412D01*
X87613750Y-90176195D01*
X87587019Y-90241967D01*
X87546562Y-90275327D01*
X87538457Y-90279546D01*
X87529738Y-90285036D01*
X87359433Y-90412905D01*
X87351726Y-90419748D01*
X87204590Y-90573717D01*
X87198104Y-90581727D01*
X87078098Y-90757649D01*
X87073000Y-90766623D01*
X86983338Y-90959783D01*
X86979775Y-90969470D01*
X86924389Y-91169183D01*
X86925912Y-91177607D01*
X86938292Y-91181000D01*
X88388000Y-91181000D01*
X88456121Y-91201002D01*
X88502614Y-91254658D01*
X88514000Y-91307000D01*
X88514000Y-92753517D01*
X88518064Y-92767359D01*
X88531478Y-92769393D01*
X88538184Y-92768534D01*
X88548262Y-92766392D01*
X88752255Y-92705191D01*
X88761842Y-92701433D01*
X88953095Y-92607739D01*
X88961945Y-92602464D01*
X89135328Y-92478792D01*
X89143200Y-92472139D01*
X89294052Y-92321812D01*
X89300730Y-92313965D01*
X89428022Y-92136819D01*
X89429279Y-92137722D01*
X89476373Y-92094362D01*
X89546311Y-92082145D01*
X89611751Y-92109678D01*
X89639579Y-92141511D01*
X89699987Y-92240088D01*
X89846250Y-92408938D01*
X90018126Y-92551632D01*
X90211000Y-92664338D01*
X90419692Y-92744030D01*
X90424760Y-92745061D01*
X90424763Y-92745062D01*
X90519862Y-92764410D01*
X90638597Y-92788567D01*
X90643772Y-92788757D01*
X90643774Y-92788757D01*
X90856673Y-92796564D01*
X90856677Y-92796564D01*
X90861837Y-92796753D01*
X90866957Y-92796097D01*
X90866959Y-92796097D01*
X91078288Y-92769025D01*
X91078289Y-92769025D01*
X91083416Y-92768368D01*
X91088366Y-92766883D01*
X91292429Y-92705661D01*
X91292434Y-92705659D01*
X91297384Y-92704174D01*
X91497994Y-92605896D01*
X91679860Y-92476173D01*
X91838096Y-92318489D01*
X91968453Y-92137077D01*
X91969776Y-92138028D01*
X92016645Y-92094857D01*
X92086580Y-92082625D01*
X92152026Y-92110144D01*
X92179875Y-92141994D01*
X92239987Y-92240088D01*
X92386250Y-92408938D01*
X92558126Y-92551632D01*
X92751000Y-92664338D01*
X92959692Y-92744030D01*
X92964760Y-92745061D01*
X92964763Y-92745062D01*
X93059862Y-92764410D01*
X93178597Y-92788567D01*
X93183772Y-92788757D01*
X93183774Y-92788757D01*
X93396673Y-92796564D01*
X93396677Y-92796564D01*
X93401837Y-92796753D01*
X93406957Y-92796097D01*
X93406959Y-92796097D01*
X93618288Y-92769025D01*
X93618289Y-92769025D01*
X93623416Y-92768368D01*
X93628366Y-92766883D01*
X93832429Y-92705661D01*
X93832434Y-92705659D01*
X93837384Y-92704174D01*
X94037994Y-92605896D01*
X94219860Y-92476173D01*
X94378096Y-92318489D01*
X94508453Y-92137077D01*
X94509776Y-92138028D01*
X94556645Y-92094857D01*
X94626580Y-92082625D01*
X94692026Y-92110144D01*
X94719875Y-92141994D01*
X94779987Y-92240088D01*
X94926250Y-92408938D01*
X95098126Y-92551632D01*
X95291000Y-92664338D01*
X95499692Y-92744030D01*
X95504760Y-92745061D01*
X95504763Y-92745062D01*
X95658190Y-92776277D01*
X95718597Y-92788567D01*
X95723774Y-92788757D01*
X95723775Y-92788757D01*
X95761238Y-92790131D01*
X95828580Y-92812616D01*
X95845715Y-92826950D01*
X96039095Y-93020329D01*
X96073120Y-93082641D01*
X96076000Y-93109425D01*
X96076000Y-94006975D01*
X96055998Y-94075096D01*
X96039095Y-94096070D01*
X95742727Y-94392438D01*
X95742726Y-94392440D01*
X95320571Y-94814595D01*
X95258259Y-94848621D01*
X95231476Y-94851500D01*
X88458653Y-94851500D01*
X88390532Y-94831498D01*
X88344039Y-94777842D01*
X88333935Y-94707568D01*
X88349533Y-94662503D01*
X88372827Y-94622156D01*
X88431842Y-94440528D01*
X88433067Y-94428878D01*
X88451114Y-94257165D01*
X88451804Y-94250600D01*
X88435854Y-94098841D01*
X88432532Y-94067235D01*
X88432532Y-94067233D01*
X88431842Y-94060672D01*
X88372827Y-93879044D01*
X88277340Y-93713656D01*
X88239213Y-93671311D01*
X88153975Y-93576645D01*
X88153974Y-93576644D01*
X88149553Y-93571734D01*
X88019875Y-93477517D01*
X88000394Y-93463363D01*
X88000393Y-93463362D01*
X87995052Y-93459482D01*
X87989024Y-93456798D01*
X87989022Y-93456797D01*
X87826619Y-93384491D01*
X87826618Y-93384491D01*
X87820588Y-93381806D01*
X87723687Y-93361209D01*
X87640244Y-93343472D01*
X87640239Y-93343472D01*
X87633787Y-93342100D01*
X87577894Y-93342100D01*
X87509773Y-93322098D01*
X87488799Y-93305195D01*
X86177205Y-91993600D01*
X86143179Y-91931288D01*
X86140300Y-91904505D01*
X86140300Y-91702966D01*
X86928257Y-91702966D01*
X86958565Y-91837446D01*
X86961645Y-91847275D01*
X87041770Y-92044603D01*
X87046413Y-92053794D01*
X87157694Y-92235388D01*
X87163777Y-92243699D01*
X87303213Y-92404667D01*
X87310580Y-92411883D01*
X87474434Y-92547916D01*
X87482881Y-92553831D01*
X87666756Y-92661279D01*
X87676042Y-92665729D01*
X87875001Y-92741703D01*
X87884899Y-92744579D01*
X87988250Y-92765606D01*
X88002299Y-92764410D01*
X88006000Y-92754065D01*
X88006000Y-91707115D01*
X88001525Y-91691876D01*
X88000135Y-91690671D01*
X87992452Y-91689000D01*
X86943225Y-91689000D01*
X86929694Y-91692973D01*
X86928257Y-91702966D01*
X86140300Y-91702966D01*
X86140300Y-88603094D01*
X86160302Y-88534973D01*
X86177205Y-88513999D01*
X87895800Y-86795405D01*
X87958112Y-86761379D01*
X87984895Y-86758500D01*
X99677905Y-86758500D01*
X99746026Y-86778502D01*
X99767001Y-86795405D01*
X100437496Y-87465901D01*
X100471521Y-87528213D01*
X100474400Y-87554996D01*
X100474400Y-88374976D01*
X100454398Y-88443097D01*
X100442042Y-88459279D01*
X100368860Y-88540556D01*
X100273373Y-88705944D01*
X100214358Y-88887572D01*
X100194396Y-89077500D01*
X100195086Y-89084065D01*
X100211029Y-89235751D01*
X100214358Y-89267428D01*
X100273373Y-89449056D01*
X100368860Y-89614444D01*
X100373278Y-89619351D01*
X100373279Y-89619352D01*
X100492225Y-89751455D01*
X100496647Y-89756366D01*
X100521320Y-89774292D01*
X100622027Y-89847460D01*
X100651148Y-89868618D01*
X100657176Y-89871302D01*
X100657178Y-89871303D01*
X100809613Y-89939171D01*
X100825612Y-89946294D01*
X100919013Y-89966147D01*
X101005956Y-89984628D01*
X101005961Y-89984628D01*
X101012413Y-89986000D01*
X101203387Y-89986000D01*
X101209839Y-89984628D01*
X101209844Y-89984628D01*
X101296787Y-89966147D01*
X101390188Y-89946294D01*
X101406187Y-89939171D01*
X101558622Y-89871303D01*
X101558624Y-89871302D01*
X101564652Y-89868618D01*
X101593774Y-89847460D01*
X101694480Y-89774292D01*
X101719153Y-89756366D01*
X101723575Y-89751455D01*
X101842521Y-89619352D01*
X101842522Y-89619351D01*
X101846940Y-89614444D01*
X101942427Y-89449056D01*
X102001442Y-89267428D01*
X102004772Y-89235751D01*
X102020714Y-89084065D01*
X102021404Y-89077500D01*
X102001442Y-88887572D01*
X101942427Y-88705944D01*
X101846940Y-88540556D01*
X101773763Y-88459285D01*
X101743047Y-88395279D01*
X101741400Y-88374976D01*
X101741400Y-87319167D01*
X101741927Y-87307984D01*
X101743602Y-87300491D01*
X101741462Y-87232400D01*
X101741400Y-87228443D01*
X101741400Y-87200544D01*
X101740896Y-87196553D01*
X101739963Y-87184711D01*
X101738823Y-87148436D01*
X101738574Y-87140511D01*
X101736362Y-87132897D01*
X101736361Y-87132892D01*
X101732923Y-87121059D01*
X101728912Y-87101695D01*
X101727367Y-87089464D01*
X101726374Y-87081603D01*
X101723457Y-87074236D01*
X101723456Y-87074231D01*
X101710098Y-87040492D01*
X101706254Y-87029265D01*
X101696130Y-86994422D01*
X101693918Y-86986807D01*
X101683607Y-86969372D01*
X101674912Y-86951624D01*
X101667452Y-86932783D01*
X101641464Y-86897013D01*
X101634948Y-86887093D01*
X101616480Y-86855865D01*
X101616478Y-86855862D01*
X101612442Y-86849038D01*
X101598121Y-86834717D01*
X101585280Y-86819683D01*
X101578031Y-86809706D01*
X101573372Y-86803293D01*
X101539295Y-86775102D01*
X101530516Y-86767112D01*
X101338499Y-86575095D01*
X101304473Y-86512783D01*
X101309538Y-86441968D01*
X101352085Y-86385132D01*
X101418605Y-86360321D01*
X101427594Y-86360000D01*
X110999000Y-86360000D01*
X111067121Y-86380002D01*
X111113614Y-86433658D01*
X111125000Y-86486000D01*
X111125000Y-112904000D01*
X111104998Y-112972121D01*
X111051342Y-113018614D01*
X110999000Y-113030000D01*
X70611000Y-113030000D01*
X70542879Y-113009998D01*
X70496386Y-112956342D01*
X70485000Y-112904000D01*
X70485000Y-105037966D01*
X72328257Y-105037966D01*
X72358565Y-105172446D01*
X72361645Y-105182275D01*
X72441770Y-105379603D01*
X72446413Y-105388794D01*
X72557694Y-105570388D01*
X72563777Y-105578699D01*
X72703213Y-105739667D01*
X72710580Y-105746883D01*
X72874434Y-105882916D01*
X72882881Y-105888831D01*
X73066756Y-105996279D01*
X73076042Y-106000729D01*
X73275001Y-106076703D01*
X73284899Y-106079579D01*
X73388250Y-106100606D01*
X73402299Y-106099410D01*
X73406000Y-106089065D01*
X73406000Y-106088517D01*
X73914000Y-106088517D01*
X73918064Y-106102359D01*
X73931478Y-106104393D01*
X73938184Y-106103534D01*
X73948262Y-106101392D01*
X74152255Y-106040191D01*
X74161842Y-106036433D01*
X74353095Y-105942739D01*
X74361945Y-105937464D01*
X74535328Y-105813792D01*
X74543200Y-105807139D01*
X74694052Y-105656812D01*
X74700730Y-105648965D01*
X74825003Y-105476020D01*
X74830313Y-105467183D01*
X74924670Y-105276267D01*
X74928469Y-105266672D01*
X74990377Y-105062910D01*
X74992555Y-105052837D01*
X74993986Y-105041962D01*
X74991775Y-105027778D01*
X74978617Y-105024000D01*
X73932115Y-105024000D01*
X73916876Y-105028475D01*
X73915671Y-105029865D01*
X73914000Y-105037548D01*
X73914000Y-106088517D01*
X73406000Y-106088517D01*
X73406000Y-105042115D01*
X73401525Y-105026876D01*
X73400135Y-105025671D01*
X73392452Y-105024000D01*
X72343225Y-105024000D01*
X72329694Y-105027973D01*
X72328257Y-105037966D01*
X70485000Y-105037966D01*
X70485000Y-86486000D01*
X70505002Y-86417879D01*
X70558658Y-86371386D01*
X70611000Y-86360000D01*
X86235206Y-86360000D01*
X86303327Y-86380002D01*
G37*
%TD.AperFunction*%
%TD*%
M02*
