M48
; DRILL file {KiCad (6.0.6-0)} date Tuesday, 07 February 2023 at 03:51:46
; FORMAT={-:-/ absolute / inch / decimal}
; #@! TF.CreationDate,2023-02-07T03:51:46+09:00
; #@! TF.GenerationSoftware,Kicad,Pcbnew,(6.0.6-0)
; #@! TF.FileFunction,MixedPlating,1,2
FMAT,2
INCH
; #@! TA.AperFunction,Plated,PTH,ViaDrill
T1C0.0157
; #@! TA.AperFunction,Plated,PTH,ComponentDrill
T2C0.0394
%
G90
G05
T1
X3.0Y-4.05
X3.016Y-4.4339
X3.034Y-4.3661
X3.075Y-4.0
X3.175Y-3.9
X3.1809Y-4.0559
X3.2Y-3.65
X3.2111Y-4.2939
X3.2208Y-3.5208
X3.2708Y-3.4708
X3.316Y-4.3339
X3.325Y-3.95
X3.3412Y-4.4278
X3.35Y-4.0
X3.375Y-3.775
X3.425Y-4.15
X3.4416Y-4.074
X3.45Y-4.4
X3.4904Y-3.8125
X3.532Y-4.4382
X3.5539Y-4.2364
X3.5713Y-4.3556
X3.5734Y-3.5333
X3.575Y-4.15
X3.5767Y-4.2842
X3.5783Y-4.0673
X3.6356Y-3.8979
X3.6614Y-3.3908
X3.675Y-3.125
X3.6888Y-4.3554
X3.7335Y-3.3969
X3.7465Y-3.2649
X3.7577Y-4.0791
X3.762Y-3.4243
X3.7842Y-3.8037
X3.7895Y-3.8622
X3.7924Y-4.356
X3.8Y-3.125
X3.801Y-3.2649
X3.8058Y-4.1275
X3.8094Y-3.5594
X3.8172Y-3.4785
X3.8181Y-3.5201
X3.8291Y-3.4073
X3.8323Y-4.1953
X3.85Y-3.575
X3.85Y-3.9
X3.8545Y-4.3559
X3.8568Y-4.3158
X3.875Y-3.4068
X3.876Y-4.0505
X3.8855Y-3.2804
X3.8857Y-4.1565
X3.8946Y-3.5225
X3.8946Y-3.4832
X3.8951Y-4.2945
X3.8959Y-4.1099
X3.9Y-3.725
X3.9Y-3.9
X3.941Y-3.6243
X3.9831Y-3.9957
X3.9849Y-3.7068
X4.0046Y-4.3295
X4.0268Y-3.7893
X4.0421Y-3.7027
X4.05Y-3.4
X4.05Y-4.275
X4.0663Y-3.4557
X4.0977Y-3.6106
X4.1502Y-3.56
X4.1726Y-3.6534
X4.2718Y-3.659
T2
X2.9Y-3.5248
X2.9Y-3.6248
X2.9Y-3.7248
X2.9Y-3.8248
X2.9Y-3.9248
X2.9Y-4.0248
X2.9Y-4.1248
X4.225Y-3.225
X4.225Y-3.325
X4.225Y-3.425
X4.225Y-3.525
X4.225Y-3.625
X4.225Y-4.0
X4.225Y-4.1
X4.225Y-4.2
X4.225Y-4.3
X4.225Y-4.4
X4.325Y-3.225
X4.325Y-3.325
X4.325Y-3.425
X4.325Y-3.525
X4.325Y-3.625
X4.325Y-4.0
X4.325Y-4.1
X4.325Y-4.2
X4.325Y-4.3
X4.325Y-4.4
T0
M30
