%TF.GenerationSoftware,KiCad,Pcbnew,(6.0.6-0)*%
%TF.CreationDate,2022-12-11T00:29:41+09:00*%
%TF.ProjectId,AD1868I2S,41443138-3638-4493-9253-2e6b69636164,rev?*%
%TF.SameCoordinates,Original*%
%TF.FileFunction,Copper,L1,Top*%
%TF.FilePolarity,Positive*%
%FSLAX46Y46*%
G04 Gerber Fmt 4.6, Leading zero omitted, Abs format (unit mm)*
G04 Created by KiCad (PCBNEW (6.0.6-0)) date 2022-12-11 00:29:41*
%MOMM*%
%LPD*%
G01*
G04 APERTURE LIST*
G04 Aperture macros list*
%AMRoundRect*
0 Rectangle with rounded corners*
0 $1 Rounding radius*
0 $2 $3 $4 $5 $6 $7 $8 $9 X,Y pos of 4 corners*
0 Add a 4 corners polygon primitive as box body*
4,1,4,$2,$3,$4,$5,$6,$7,$8,$9,$2,$3,0*
0 Add four circle primitives for the rounded corners*
1,1,$1+$1,$2,$3*
1,1,$1+$1,$4,$5*
1,1,$1+$1,$6,$7*
1,1,$1+$1,$8,$9*
0 Add four rect primitives between the rounded corners*
20,1,$1+$1,$2,$3,$4,$5,0*
20,1,$1+$1,$4,$5,$6,$7,0*
20,1,$1+$1,$6,$7,$8,$9,0*
20,1,$1+$1,$8,$9,$2,$3,0*%
G04 Aperture macros list end*
%TA.AperFunction,ComponentPad*%
%ADD10R,1.600000X1.600000*%
%TD*%
%TA.AperFunction,ComponentPad*%
%ADD11O,1.600000X1.600000*%
%TD*%
%TA.AperFunction,SMDPad,CuDef*%
%ADD12RoundRect,0.237500X0.237500X-0.250000X0.237500X0.250000X-0.237500X0.250000X-0.237500X-0.250000X0*%
%TD*%
%TA.AperFunction,SMDPad,CuDef*%
%ADD13RoundRect,0.237500X-0.237500X0.300000X-0.237500X-0.300000X0.237500X-0.300000X0.237500X0.300000X0*%
%TD*%
%TA.AperFunction,SMDPad,CuDef*%
%ADD14RoundRect,0.237500X-0.300000X-0.237500X0.300000X-0.237500X0.300000X0.237500X-0.300000X0.237500X0*%
%TD*%
%TA.AperFunction,SMDPad,CuDef*%
%ADD15R,0.550000X1.500000*%
%TD*%
%TA.AperFunction,SMDPad,CuDef*%
%ADD16R,1.500000X0.550000*%
%TD*%
%TA.AperFunction,ComponentPad*%
%ADD17R,1.700000X1.700000*%
%TD*%
%TA.AperFunction,ComponentPad*%
%ADD18O,1.700000X1.700000*%
%TD*%
%TA.AperFunction,SMDPad,CuDef*%
%ADD19RoundRect,0.237500X0.300000X0.237500X-0.300000X0.237500X-0.300000X-0.237500X0.300000X-0.237500X0*%
%TD*%
%TA.AperFunction,SMDPad,CuDef*%
%ADD20R,0.900000X0.650000*%
%TD*%
%TA.AperFunction,SMDPad,CuDef*%
%ADD21R,1.500000X2.000000*%
%TD*%
%TA.AperFunction,SMDPad,CuDef*%
%ADD22R,3.800000X2.000000*%
%TD*%
%TA.AperFunction,SMDPad,CuDef*%
%ADD23RoundRect,0.237500X0.237500X-0.300000X0.237500X0.300000X-0.237500X0.300000X-0.237500X-0.300000X0*%
%TD*%
%TA.AperFunction,ViaPad*%
%ADD24C,0.800000*%
%TD*%
%TA.AperFunction,Conductor*%
%ADD25C,0.250000*%
%TD*%
%TA.AperFunction,Conductor*%
%ADD26C,1.000000*%
%TD*%
%TA.AperFunction,Conductor*%
%ADD27C,0.350000*%
%TD*%
G04 APERTURE END LIST*
D10*
%TO.P,SW1,1*%
%TO.N,+3.3V*%
X78100000Y-107272500D03*
D11*
%TO.P,SW1,2*%
X80640000Y-107272500D03*
%TO.P,SW1,3*%
%TO.N,Net-(R2-Pad1)*%
X80640000Y-99652500D03*
%TO.P,SW1,4*%
%TO.N,Net-(R1-Pad1)*%
X78100000Y-99652500D03*
%TD*%
D12*
%TO.P,R2,1*%
%TO.N,Net-(R2-Pad1)*%
X84455000Y-96797500D03*
%TO.P,R2,2*%
%TO.N,GND*%
X84455000Y-94972500D03*
%TD*%
%TO.P,R1,1*%
%TO.N,Net-(R1-Pad1)*%
X76835000Y-96797500D03*
%TO.P,R1,2*%
%TO.N,GND*%
X76835000Y-94972500D03*
%TD*%
D13*
%TO.P,C2,1*%
%TO.N,+3.3V*%
X84455000Y-104547500D03*
%TO.P,C2,2*%
%TO.N,GND*%
X84455000Y-106272500D03*
%TD*%
D14*
%TO.P,C6,1*%
%TO.N,+3.3V*%
X79782500Y-97155000D03*
%TO.P,C6,2*%
%TO.N,GND*%
X81507500Y-97155000D03*
%TD*%
D15*
%TO.P,U1,1,I/O/TDI*%
%TO.N,/TDI*%
X88710000Y-108570000D03*
%TO.P,U1,2,I/O*%
%TO.N,/I2S_CLK*%
X89510000Y-108570000D03*
%TO.P,U1,3,I/O*%
%TO.N,/I2S_DT*%
X90310000Y-108570000D03*
%TO.P,U1,4,GND*%
%TO.N,GND*%
X91110000Y-108570000D03*
%TO.P,U1,5,I/O*%
%TO.N,/I2S_LR*%
X91910000Y-108570000D03*
%TO.P,U1,6,I/O*%
%TO.N,unconnected-(U1-Pad6)*%
X92710000Y-108570000D03*
%TO.P,U1,7,I/O/TMS*%
%TO.N,/TMS*%
X93510000Y-108570000D03*
%TO.P,U1,8,I/O*%
%TO.N,/DIP1*%
X94310000Y-108570000D03*
%TO.P,U1,9,VCC*%
%TO.N,+3.3V*%
X95110000Y-108570000D03*
%TO.P,U1,10,I/O*%
%TO.N,/DIP2*%
X95910000Y-108570000D03*
%TO.P,U1,11,GND*%
%TO.N,GND*%
X96710000Y-108570000D03*
D16*
%TO.P,U1,12,I/O*%
%TO.N,unconnected-(U1-Pad12)*%
X98410000Y-106870000D03*
%TO.P,U1,13,I/O*%
%TO.N,unconnected-(U1-Pad13)*%
X98410000Y-106070000D03*
%TO.P,U1,14,I/O*%
%TO.N,unconnected-(U1-Pad14)*%
X98410000Y-105270000D03*
%TO.P,U1,15,I/O*%
%TO.N,unconnected-(U1-Pad15)*%
X98410000Y-104470000D03*
%TO.P,U1,16,GND*%
%TO.N,GND*%
X98410000Y-103670000D03*
%TO.P,U1,17,VCC*%
%TO.N,+3.3V*%
X98410000Y-102870000D03*
%TO.P,U1,18,I/O*%
%TO.N,unconnected-(U1-Pad18)*%
X98410000Y-102070000D03*
%TO.P,U1,19,I/O*%
%TO.N,unconnected-(U1-Pad19)*%
X98410000Y-101270000D03*
%TO.P,U1,20,I/O*%
%TO.N,unconnected-(U1-Pad20)*%
X98410000Y-100470000D03*
%TO.P,U1,21,I/O*%
%TO.N,unconnected-(U1-Pad21)*%
X98410000Y-99670000D03*
%TO.P,U1,22,I/O*%
%TO.N,unconnected-(U1-Pad22)*%
X98410000Y-98870000D03*
D15*
%TO.P,U1,23,I/O*%
%TO.N,unconnected-(U1-Pad23)*%
X96710000Y-97170000D03*
%TO.P,U1,24,GND*%
%TO.N,GND*%
X95910000Y-97170000D03*
%TO.P,U1,25,I/O*%
%TO.N,unconnected-(U1-Pad25)*%
X95110000Y-97170000D03*
%TO.P,U1,26,I/O/TCK*%
%TO.N,/TCK*%
X94310000Y-97170000D03*
%TO.P,U1,27,I/O*%
%TO.N,unconnected-(U1-Pad27)*%
X93510000Y-97170000D03*
%TO.P,U1,28,I/O*%
%TO.N,unconnected-(U1-Pad28)*%
X92710000Y-97170000D03*
%TO.P,U1,29,VCC*%
%TO.N,+3.3V*%
X91910000Y-97170000D03*
%TO.P,U1,30,GND*%
%TO.N,GND*%
X91110000Y-97170000D03*
%TO.P,U1,31,I/O*%
%TO.N,unconnected-(U1-Pad31)*%
X90310000Y-97170000D03*
%TO.P,U1,32,I/O/TDO*%
%TO.N,/TDO*%
X89510000Y-97170000D03*
%TO.P,U1,33,I/O*%
%TO.N,unconnected-(U1-Pad33)*%
X88710000Y-97170000D03*
D16*
%TO.P,U1,34,I/O*%
%TO.N,unconnected-(U1-Pad34)*%
X87010000Y-98870000D03*
%TO.P,U1,35,I/O*%
%TO.N,/DL*%
X87010000Y-99670000D03*
%TO.P,U1,36,GND*%
%TO.N,GND*%
X87010000Y-100470000D03*
%TO.P,U1,37,INPUT/GCLK1*%
%TO.N,/I2S_MCK*%
X87010000Y-101270000D03*
%TO.P,U1,38,INPUT/OE1*%
%TO.N,unconnected-(U1-Pad38)*%
X87010000Y-102070000D03*
%TO.P,U1,39,INPUT/GCLRn*%
%TO.N,unconnected-(U1-Pad39)*%
X87010000Y-102870000D03*
%TO.P,U1,40,INPUT/OE2/GCLK2*%
%TO.N,/CK*%
X87010000Y-103670000D03*
%TO.P,U1,41,VCC*%
%TO.N,+3.3V*%
X87010000Y-104470000D03*
%TO.P,U1,42,I/O*%
%TO.N,/LL*%
X87010000Y-105270000D03*
%TO.P,U1,43,I/O*%
%TO.N,/DR*%
X87010000Y-106070000D03*
%TO.P,U1,44,I/O*%
%TO.N,/LR*%
X87010000Y-106870000D03*
%TD*%
D17*
%TO.P,J2,1,Pin_1*%
%TO.N,/TCK*%
X98420000Y-88895000D03*
D18*
%TO.P,J2,2,Pin_2*%
%TO.N,GND*%
X98420000Y-91435000D03*
%TO.P,J2,3,Pin_3*%
%TO.N,/TDO*%
X95880000Y-88895000D03*
%TO.P,J2,4,Pin_4*%
%TO.N,+3.3V*%
X95880000Y-91435000D03*
%TO.P,J2,5,Pin_5*%
%TO.N,/TMS*%
X93340000Y-88895000D03*
%TO.P,J2,6,Pin_6*%
%TO.N,unconnected-(J2-Pad6)*%
X93340000Y-91435000D03*
%TO.P,J2,7,Pin_7*%
%TO.N,unconnected-(J2-Pad7)*%
X90800000Y-88895000D03*
%TO.P,J2,8,Pin_8*%
%TO.N,unconnected-(J2-Pad8)*%
X90800000Y-91435000D03*
%TO.P,J2,9,Pin_9*%
%TO.N,/TDI*%
X88260000Y-88895000D03*
%TO.P,J2,10,Pin_10*%
%TO.N,GND*%
X88260000Y-91435000D03*
%TD*%
D19*
%TO.P,C3,1*%
%TO.N,+3.3V*%
X92302500Y-95250000D03*
%TO.P,C3,2*%
%TO.N,GND*%
X90577500Y-95250000D03*
%TD*%
D14*
%TO.P,C1,1*%
%TO.N,+3.3V*%
X95022500Y-110490000D03*
%TO.P,C1,2*%
%TO.N,GND*%
X96747500Y-110490000D03*
%TD*%
D20*
%TO.P,X1,1,Tri-State*%
%TO.N,unconnected-(X1-Pad1)*%
X78325000Y-111035000D03*
%TO.P,X1,2,GND*%
%TO.N,GND*%
X80425000Y-111035000D03*
%TO.P,X1,3,OUT*%
%TO.N,/I2S_MCK*%
X78325000Y-112485000D03*
%TO.P,X1,4,VDD*%
%TO.N,+3.3V*%
X80425000Y-112485000D03*
%TD*%
D17*
%TO.P,J1,1,Pin_1*%
%TO.N,+5V*%
X73660000Y-89530000D03*
D18*
%TO.P,J1,2,Pin_2*%
%TO.N,/LL*%
X73660000Y-92070000D03*
%TO.P,J1,3,Pin_3*%
%TO.N,/DL*%
X73660000Y-94610000D03*
%TO.P,J1,4,Pin_4*%
%TO.N,/CK*%
X73660000Y-97150000D03*
%TO.P,J1,5,Pin_5*%
%TO.N,/DR*%
X73660000Y-99690000D03*
%TO.P,J1,6,Pin_6*%
%TO.N,/LR*%
X73660000Y-102230000D03*
%TO.P,J1,7,Pin_7*%
%TO.N,GND*%
X73660000Y-104770000D03*
%TD*%
D17*
%TO.P,J3,1,Pin_1*%
%TO.N,+5V*%
X106045000Y-94615000D03*
D18*
%TO.P,J3,2,Pin_2*%
%TO.N,GND*%
X108585000Y-94615000D03*
%TO.P,J3,3,Pin_3*%
%TO.N,unconnected-(J3-Pad3)*%
X106045000Y-97155000D03*
%TO.P,J3,4,Pin_4*%
%TO.N,unconnected-(J3-Pad4)*%
X108585000Y-97155000D03*
%TO.P,J3,5,Pin_5*%
%TO.N,/I2S_DT*%
X106045000Y-99695000D03*
%TO.P,J3,6,Pin_6*%
%TO.N,/I2S_CLK*%
X108585000Y-99695000D03*
%TO.P,J3,7,Pin_7*%
%TO.N,/I2S_LR*%
X106045000Y-102235000D03*
%TO.P,J3,8,Pin_8*%
%TO.N,/I2S_MCK*%
X108585000Y-102235000D03*
%TO.P,J3,9,Pin_9*%
%TO.N,unconnected-(J3-Pad9)*%
X106045000Y-104775000D03*
%TO.P,J3,10,Pin_10*%
%TO.N,unconnected-(J3-Pad10)*%
X108585000Y-104775000D03*
%TD*%
D21*
%TO.P,U2,1,GND*%
%TO.N,GND*%
X82945000Y-87655000D03*
%TO.P,U2,2,VO*%
%TO.N,+3.3V*%
X80645000Y-87655000D03*
D22*
X80645000Y-93955000D03*
D21*
%TO.P,U2,3,VI*%
%TO.N,+5V*%
X78345000Y-87655000D03*
%TD*%
D23*
%TO.P,C7,1*%
%TO.N,+3.3V*%
X83185000Y-112622500D03*
%TO.P,C7,2*%
%TO.N,GND*%
X83185000Y-110897500D03*
%TD*%
%TO.P,C5,1*%
%TO.N,/I2S_MCK*%
X75565000Y-112622500D03*
%TO.P,C5,2*%
%TO.N,GND*%
X75565000Y-110897500D03*
%TD*%
D13*
%TO.P,C4,1*%
%TO.N,+3.3V*%
X100965000Y-102642500D03*
%TO.P,C4,2*%
%TO.N,GND*%
X100965000Y-104367500D03*
%TD*%
D24*
%TO.N,Net-(R1-Pad1)*%
X72191000Y-94348500D03*
%TO.N,/I2S_LR*%
X93877700Y-109922400D03*
%TO.N,/I2S_DT*%
X90781700Y-107203400D03*
%TO.N,/I2S_CLK*%
X89539600Y-107204300D03*
%TO.N,/TDI*%
X90022000Y-105060300D03*
%TO.N,/TMS*%
X92224300Y-106527700D03*
%TO.N,/TDO*%
X87323000Y-95077300D03*
%TO.N,/TCK*%
X95109000Y-95817300D03*
%TO.N,/LR*%
X85656900Y-106870000D03*
%TO.N,/DR*%
X85655800Y-105790400D03*
%TO.N,/CK*%
X79461700Y-98829200D03*
%TO.N,/DL*%
X86349600Y-97994200D03*
%TO.N,/LL*%
X88391700Y-105270000D03*
%TO.N,/I2S_MCK*%
X77263000Y-112545400D03*
X85226000Y-102943200D03*
%TO.N,GND*%
X97282000Y-94742000D03*
X84316200Y-95111200D03*
X76835000Y-94972500D03*
%TD*%
D25*
%TO.N,Net-(R2-Pad1)*%
X81765300Y-99487200D02*
X81765300Y-99652500D01*
X84455000Y-96797500D02*
X81765300Y-99487200D01*
X80640000Y-99652500D02*
X81765300Y-99652500D01*
%TO.N,Net-(R1-Pad1)*%
X73127700Y-93411800D02*
X72191000Y-94348500D01*
X76610000Y-93411800D02*
X73127700Y-93411800D01*
X77710000Y-94511800D02*
X76610000Y-93411800D01*
X77710000Y-95922500D02*
X77710000Y-94511800D01*
X76835000Y-96797500D02*
X77710000Y-95922500D01*
%TO.N,/I2S_LR*%
X93600600Y-109645300D02*
X93877700Y-109922400D01*
X91910000Y-109645300D02*
X93600600Y-109645300D01*
X91910000Y-108570000D02*
X91910000Y-109645300D01*
%TO.N,/I2S_DT*%
X90310000Y-108570000D02*
X90310000Y-107494700D01*
X90490400Y-107494700D02*
X90310000Y-107494700D01*
X90781700Y-107203400D02*
X90490400Y-107494700D01*
%TO.N,/I2S_CLK*%
X89510000Y-107233900D02*
X89510000Y-108570000D01*
X89539600Y-107204300D02*
X89510000Y-107233900D01*
%TO.N,/TDI*%
X88710000Y-106372300D02*
X88710000Y-108570000D01*
X90022000Y-105060300D02*
X88710000Y-106372300D01*
%TO.N,/TMS*%
X93191300Y-107494700D02*
X93510000Y-107494700D01*
X92224300Y-106527700D02*
X93191300Y-107494700D01*
X93510000Y-108570000D02*
X93510000Y-107494700D01*
%TO.N,/TDO*%
X88492600Y-95077300D02*
X89510000Y-96094700D01*
X87323000Y-95077300D02*
X88492600Y-95077300D01*
X89510000Y-97170000D02*
X89510000Y-96094700D01*
%TO.N,/TCK*%
X94831600Y-96094700D02*
X95109000Y-95817300D01*
X94310000Y-96094700D02*
X94831600Y-96094700D01*
X94310000Y-97170000D02*
X94310000Y-96094700D01*
%TO.N,/LR*%
X87010000Y-106870000D02*
X85934700Y-106870000D01*
X85934700Y-106870000D02*
X85656900Y-106870000D01*
%TO.N,/DR*%
X87010000Y-106070000D02*
X85934700Y-106070000D01*
X85934700Y-106069300D02*
X85655800Y-105790400D01*
X85934700Y-106070000D02*
X85934700Y-106069300D01*
%TO.N,/CK*%
X83047800Y-103670000D02*
X85934700Y-103670000D01*
X79461700Y-100083900D02*
X83047800Y-103670000D01*
X79461700Y-98829200D02*
X79461700Y-100083900D01*
X87010000Y-103670000D02*
X85934700Y-103670000D01*
%TO.N,/DL*%
X87010000Y-99670000D02*
X85934700Y-99670000D01*
X85934700Y-98409100D02*
X85934700Y-99670000D01*
X86349600Y-97994200D02*
X85934700Y-98409100D01*
%TO.N,/LL*%
X87010000Y-105270000D02*
X88085300Y-105270000D01*
X88085300Y-105270000D02*
X88391700Y-105270000D01*
D26*
%TO.N,+5V*%
X76470000Y-89530000D02*
X78345000Y-87655000D01*
X73660000Y-89530000D02*
X76470000Y-89530000D01*
D25*
%TO.N,/I2S_MCK*%
X78325000Y-112485000D02*
X77549700Y-112485000D01*
X85934700Y-102234500D02*
X85226000Y-102943200D01*
X85934700Y-101270000D02*
X85934700Y-102234500D01*
X87010000Y-101270000D02*
X85934700Y-101270000D01*
X77185900Y-112622500D02*
X77263000Y-112545400D01*
X75565000Y-112622500D02*
X77185900Y-112622500D01*
X77323400Y-112485000D02*
X77263000Y-112545400D01*
X77549700Y-112485000D02*
X77323400Y-112485000D01*
D27*
%TO.N,GND*%
X89882500Y-110898000D02*
X83185000Y-110898000D01*
X91110000Y-109670000D02*
X89882500Y-110898000D01*
X91110000Y-108570000D02*
X91110000Y-109670000D01*
X95910000Y-96114000D02*
X97282000Y-94742000D01*
X95910000Y-97170000D02*
X95910000Y-96114000D01*
X85305000Y-95822500D02*
X84455000Y-94972500D01*
X85305000Y-99865000D02*
X85305000Y-95822500D01*
X85910000Y-100470000D02*
X85305000Y-99865000D01*
X87010000Y-100470000D02*
X85910000Y-100470000D01*
D26*
X84316200Y-95111200D02*
X84455000Y-94972500D01*
X103505000Y-110490000D02*
X96747500Y-110490000D01*
X108585000Y-93412900D02*
X108585000Y-94615000D01*
X106607000Y-91435000D02*
X108585000Y-93412900D01*
X98420000Y-91435000D02*
X106607000Y-91435000D01*
X80562500Y-110898000D02*
X80425000Y-111035000D01*
X83185000Y-110898000D02*
X80562500Y-110898000D01*
X75210000Y-96597500D02*
X76835000Y-94972500D01*
X75210000Y-103220000D02*
X75210000Y-96597500D01*
X73660000Y-104770000D02*
X75210000Y-103220000D01*
X88260000Y-92932500D02*
X90577500Y-95250000D01*
X88260000Y-91435000D02*
X88260000Y-92932500D01*
X84722500Y-94972500D02*
X88260000Y-91435000D01*
X84455000Y-94972500D02*
X84722500Y-94972500D01*
X82272500Y-97155000D02*
X84316200Y-95111200D01*
X81507500Y-97155000D02*
X82272500Y-97155000D01*
X84455000Y-89165000D02*
X84455000Y-94972500D01*
X82945000Y-87655000D02*
X84455000Y-89165000D01*
D27*
X91110000Y-95782500D02*
X90577500Y-95250000D01*
X91110000Y-97170000D02*
X91110000Y-95782500D01*
X96710000Y-110452000D02*
X96747500Y-110490000D01*
X96710000Y-108570000D02*
X96710000Y-110452000D01*
D26*
X83185000Y-110898000D02*
X83185000Y-110897500D01*
X105410000Y-110490000D02*
X103505000Y-110490000D01*
X110490000Y-105410000D02*
X105410000Y-110490000D01*
X110490000Y-96520000D02*
X110490000Y-105410000D01*
X108585000Y-94615000D02*
X110490000Y-96520000D01*
X100965000Y-107950000D02*
X100965000Y-104368000D01*
X103505000Y-110490000D02*
X100965000Y-107950000D01*
D27*
X100616500Y-104019000D02*
X100965000Y-104367500D01*
X100268000Y-103670000D02*
X100616500Y-104019000D01*
X98410000Y-103670000D02*
X100268000Y-103670000D01*
X100616500Y-104019000D02*
X100965000Y-104368000D01*
D26*
X83185000Y-107542000D02*
X83820000Y-106907000D01*
X83185000Y-110897500D02*
X83185000Y-107542000D01*
X83820000Y-106907000D02*
X84455000Y-106272000D01*
D27*
X83820500Y-106907000D02*
X84455000Y-106272500D01*
X83820000Y-106907000D02*
X83820500Y-106907000D01*
D26*
X75565000Y-110898000D02*
X76008800Y-110454000D01*
X73660000Y-108992000D02*
X75565000Y-110898000D01*
X73660000Y-104770000D02*
X73660000Y-108992000D01*
D27*
X76008500Y-110454000D02*
X75565000Y-110897500D01*
X76008800Y-110454000D02*
X76008500Y-110454000D01*
D26*
X79400000Y-110010000D02*
X80425000Y-111035000D01*
X76452500Y-110010000D02*
X79400000Y-110010000D01*
X76008800Y-110454000D02*
X76452500Y-110010000D01*
%TO.N,+3.3V*%
X100965000Y-96520000D02*
X100965000Y-102642000D01*
X95880000Y-91435000D02*
X100965000Y-96520000D01*
X95880000Y-91672500D02*
X92302500Y-95250000D01*
X95880000Y-91435000D02*
X95880000Y-91672500D01*
X79782500Y-94817500D02*
X79782500Y-97155000D01*
X80645000Y-93955000D02*
X79782500Y-94817500D01*
X80645000Y-87655000D02*
X80645000Y-93955000D01*
D27*
X91910000Y-95642500D02*
X92302500Y-95250000D01*
X91910000Y-97170000D02*
X91910000Y-95642500D01*
X95110000Y-110402000D02*
X95022500Y-110490000D01*
X95110000Y-108570000D02*
X95110000Y-110402000D01*
X100851500Y-102756000D02*
X100965000Y-102642500D01*
X100738000Y-102870000D02*
X100851500Y-102756000D01*
X98410000Y-102870000D02*
X100738000Y-102870000D01*
X100851500Y-102756000D02*
X100965000Y-102642000D01*
X84455000Y-104548000D02*
X84455500Y-104548000D01*
X86932500Y-104548000D02*
X87010000Y-104470000D01*
X84455500Y-104548000D02*
X86932500Y-104548000D01*
X84455500Y-104548000D02*
X84455000Y-104547500D01*
D26*
X80562500Y-112622000D02*
X80425000Y-112485000D01*
X83185500Y-112622000D02*
X80562500Y-112622000D01*
X92890000Y-112622000D02*
X83185500Y-112622000D01*
X95022500Y-110490000D02*
X92890000Y-112622000D01*
D27*
X83185500Y-112622000D02*
X83185000Y-112622500D01*
X97310000Y-102870000D02*
X95710000Y-104470000D01*
X98410000Y-102870000D02*
X97310000Y-102870000D01*
X95110000Y-105070000D02*
X95110000Y-108570000D01*
X95710000Y-104470000D02*
X95110000Y-105070000D01*
X87010000Y-104470000D02*
X88135300Y-104470000D01*
D26*
X76600000Y-105772000D02*
X78100000Y-107272000D01*
X76600000Y-99031200D02*
X76600000Y-105772000D01*
X78476200Y-97155000D02*
X76600000Y-99031200D01*
X79782500Y-97155000D02*
X78476200Y-97155000D01*
D27*
X78100000Y-107272000D02*
X78100000Y-107272500D01*
X88320300Y-104285000D02*
X88135300Y-104470000D01*
X95525000Y-104285000D02*
X88320300Y-104285000D01*
X95710000Y-104470000D02*
X95525000Y-104285000D01*
D26*
X78100000Y-107272000D02*
X80639500Y-107272000D01*
X83365000Y-104548000D02*
X84455000Y-104548000D01*
X80640000Y-107272000D02*
X83365000Y-104548000D01*
X80639500Y-107272000D02*
X80640000Y-107272000D01*
D27*
X80639500Y-107272000D02*
X80640000Y-107272500D01*
%TD*%
%TA.AperFunction,Conductor*%
%TO.N,+3.3V*%
G36*
X111043032Y-106387368D02*
G01*
X111099868Y-106429915D01*
X111124679Y-106496435D01*
X111125000Y-106505424D01*
X111125000Y-112904000D01*
X111104998Y-112972121D01*
X111051342Y-113018614D01*
X110999000Y-113030000D01*
X84294000Y-113030000D01*
X84225879Y-113009998D01*
X84179386Y-112956342D01*
X84168000Y-112904000D01*
X84168000Y-112894615D01*
X84163525Y-112879376D01*
X84162135Y-112878171D01*
X84154452Y-112876500D01*
X82220115Y-112876500D01*
X82204876Y-112880975D01*
X82203671Y-112882365D01*
X82202000Y-112890048D01*
X82202000Y-112904000D01*
X82181998Y-112972121D01*
X82128342Y-113018614D01*
X82076000Y-113030000D01*
X81504754Y-113030000D01*
X81436633Y-113009998D01*
X81390140Y-112956342D01*
X81379491Y-112890393D01*
X81382631Y-112861488D01*
X81383000Y-112854672D01*
X81383000Y-112757115D01*
X81378525Y-112741876D01*
X81377135Y-112740671D01*
X81369452Y-112739000D01*
X80297000Y-112739000D01*
X80228879Y-112718998D01*
X80182386Y-112665342D01*
X80171000Y-112613000D01*
X80171000Y-112357000D01*
X80191002Y-112288879D01*
X80244658Y-112242386D01*
X80297000Y-112231000D01*
X81364884Y-112231000D01*
X81380123Y-112226525D01*
X81381328Y-112225135D01*
X81382999Y-112217452D01*
X81382999Y-112115331D01*
X81382629Y-112108510D01*
X81376252Y-112049793D01*
X81378689Y-112049528D01*
X81381756Y-111990750D01*
X81423200Y-111933105D01*
X81489230Y-111907017D01*
X81500638Y-111906500D01*
X82125474Y-111906500D01*
X82193595Y-111926502D01*
X82240088Y-111980158D01*
X82250192Y-112050432D01*
X82245067Y-112072167D01*
X82214685Y-112163766D01*
X82211819Y-112177132D01*
X82202328Y-112269770D01*
X82202000Y-112276185D01*
X82202000Y-112350385D01*
X82206475Y-112365624D01*
X82207865Y-112366829D01*
X82215548Y-112368500D01*
X84149885Y-112368500D01*
X84165124Y-112364025D01*
X84166329Y-112362635D01*
X84168000Y-112354952D01*
X84168000Y-112276234D01*
X84167663Y-112269718D01*
X84157925Y-112175868D01*
X84155032Y-112162472D01*
X84104512Y-112011047D01*
X84098347Y-111997885D01*
X84014574Y-111862508D01*
X84005536Y-111851106D01*
X84003861Y-111849433D01*
X84003081Y-111848007D01*
X84000993Y-111845373D01*
X84001444Y-111845016D01*
X83969781Y-111787151D01*
X83974784Y-111716331D01*
X84003701Y-111671246D01*
X84006756Y-111668185D01*
X84006757Y-111668184D01*
X84011929Y-111663003D01*
X84015772Y-111656769D01*
X84025255Y-111641385D01*
X84078027Y-111593891D01*
X84132515Y-111581500D01*
X89854529Y-111581500D01*
X89863073Y-111581790D01*
X89911094Y-111585054D01*
X89911096Y-111585054D01*
X89918674Y-111585569D01*
X89941959Y-111581500D01*
X89979180Y-111574996D01*
X89985732Y-111574028D01*
X90039186Y-111567560D01*
X90039198Y-111567557D01*
X90046735Y-111566645D01*
X90053844Y-111563959D01*
X90058454Y-111562826D01*
X90069670Y-111559756D01*
X90074159Y-111558400D01*
X90081638Y-111557093D01*
X90137880Y-111532391D01*
X90144007Y-111529890D01*
X90194381Y-111510855D01*
X90194382Y-111510855D01*
X90201489Y-111508169D01*
X90207749Y-111503866D01*
X90211952Y-111501669D01*
X90222071Y-111496035D01*
X90226148Y-111493623D01*
X90233106Y-111490567D01*
X90281873Y-111453131D01*
X90287204Y-111449258D01*
X90331561Y-111418772D01*
X90337826Y-111414466D01*
X90377787Y-111369615D01*
X90382735Y-111364373D01*
X91500086Y-110246567D01*
X91562392Y-110212529D01*
X91633208Y-110217579D01*
X91649899Y-110225229D01*
X91674940Y-110238995D01*
X91682615Y-110240965D01*
X91682621Y-110240968D01*
X91682919Y-110241044D01*
X91705228Y-110249076D01*
X91705503Y-110249206D01*
X91705511Y-110249209D01*
X91712682Y-110252583D01*
X91767849Y-110263106D01*
X91775558Y-110264829D01*
X91809551Y-110273557D01*
X91822293Y-110276829D01*
X91822294Y-110276829D01*
X91829970Y-110278800D01*
X91838207Y-110278800D01*
X91861816Y-110281032D01*
X91862119Y-110281090D01*
X91862123Y-110281090D01*
X91869906Y-110282575D01*
X91925951Y-110279049D01*
X91933862Y-110278800D01*
X92961677Y-110278800D01*
X93029798Y-110298802D01*
X93070795Y-110341799D01*
X93138660Y-110459344D01*
X93266447Y-110601266D01*
X93420948Y-110713518D01*
X93426976Y-110716202D01*
X93426978Y-110716203D01*
X93563693Y-110777072D01*
X93595412Y-110791194D01*
X93688813Y-110811047D01*
X93775756Y-110829528D01*
X93775761Y-110829528D01*
X93782213Y-110830900D01*
X93880285Y-110830900D01*
X93948406Y-110850902D01*
X93994899Y-110904558D01*
X93999809Y-110917024D01*
X94040488Y-111038953D01*
X94046653Y-111052115D01*
X94130426Y-111187492D01*
X94139460Y-111198890D01*
X94252129Y-111311363D01*
X94263540Y-111320375D01*
X94399063Y-111403912D01*
X94412241Y-111410056D01*
X94563766Y-111460315D01*
X94577132Y-111463181D01*
X94669770Y-111472672D01*
X94676185Y-111473000D01*
X94750385Y-111473000D01*
X94765624Y-111468525D01*
X94766829Y-111467135D01*
X94768500Y-111459452D01*
X94768500Y-110135151D01*
X94770735Y-110113888D01*
X94771242Y-110112328D01*
X94791204Y-109922400D01*
X94786847Y-109880948D01*
X94799619Y-109811111D01*
X94836591Y-109766953D01*
X94948261Y-109683261D01*
X95009174Y-109601985D01*
X95066033Y-109559470D01*
X95136852Y-109554444D01*
X95199145Y-109588504D01*
X95210825Y-109601984D01*
X95271739Y-109683261D01*
X95278919Y-109688642D01*
X95281555Y-109691278D01*
X95315581Y-109753590D01*
X95310516Y-109824405D01*
X95287685Y-109862884D01*
X95278172Y-109873863D01*
X95276500Y-109881548D01*
X95276500Y-111454885D01*
X95280975Y-111470124D01*
X95282365Y-111471329D01*
X95290048Y-111473000D01*
X95368766Y-111473000D01*
X95375282Y-111472663D01*
X95469132Y-111462925D01*
X95482528Y-111460032D01*
X95633953Y-111409512D01*
X95647115Y-111403347D01*
X95782492Y-111319574D01*
X95793894Y-111310536D01*
X95795567Y-111308861D01*
X95796993Y-111308081D01*
X95799627Y-111305993D01*
X95799984Y-111306444D01*
X95857849Y-111274781D01*
X95928669Y-111279784D01*
X95973754Y-111308701D01*
X95975593Y-111310536D01*
X95981997Y-111316929D01*
X95988227Y-111320769D01*
X95988228Y-111320770D01*
X96067494Y-111369630D01*
X96130080Y-111408209D01*
X96295191Y-111462974D01*
X96302027Y-111463674D01*
X96302030Y-111463675D01*
X96349370Y-111468525D01*
X96397928Y-111473500D01*
X96492917Y-111473500D01*
X96524833Y-111478441D01*
X96524907Y-111478091D01*
X96530934Y-111479372D01*
X96536806Y-111481235D01*
X96542923Y-111481921D01*
X96542927Y-111481922D01*
X96615758Y-111490091D01*
X96690727Y-111498500D01*
X103447096Y-111498500D01*
X103459829Y-111499145D01*
X103495334Y-111502752D01*
X103495339Y-111502752D01*
X103501462Y-111503374D01*
X103547108Y-111499059D01*
X103558967Y-111498500D01*
X105348157Y-111498500D01*
X105361764Y-111499237D01*
X105393262Y-111502659D01*
X105393267Y-111502659D01*
X105399388Y-111503324D01*
X105425638Y-111501027D01*
X105449388Y-111498950D01*
X105454214Y-111498621D01*
X105456686Y-111498500D01*
X105459769Y-111498500D01*
X105471738Y-111497326D01*
X105502506Y-111494310D01*
X105503819Y-111494188D01*
X105548084Y-111490315D01*
X105596413Y-111486087D01*
X105601532Y-111484600D01*
X105606833Y-111484080D01*
X105695834Y-111457209D01*
X105696967Y-111456874D01*
X105780414Y-111432630D01*
X105780418Y-111432628D01*
X105786336Y-111430909D01*
X105791068Y-111428456D01*
X105796169Y-111426916D01*
X105825105Y-111411531D01*
X105878260Y-111383269D01*
X105879426Y-111382657D01*
X105956453Y-111342729D01*
X105961926Y-111339892D01*
X105966089Y-111336569D01*
X105970796Y-111334066D01*
X106042918Y-111275245D01*
X106043774Y-111274554D01*
X106082973Y-111243262D01*
X106085477Y-111240758D01*
X106086195Y-111240116D01*
X106090528Y-111236415D01*
X106124062Y-111209065D01*
X106132480Y-111198890D01*
X106153287Y-111173738D01*
X106161277Y-111164958D01*
X108396227Y-108930008D01*
X110909905Y-106416329D01*
X110972217Y-106382303D01*
X111043032Y-106387368D01*
G37*
%TD.AperFunction*%
%TA.AperFunction,Conductor*%
G36*
X80841121Y-87421002D02*
G01*
X80887614Y-87474658D01*
X80899000Y-87527000D01*
X80899000Y-89144884D01*
X80903475Y-89160123D01*
X80904865Y-89161328D01*
X80912548Y-89162999D01*
X81439669Y-89162999D01*
X81446490Y-89162629D01*
X81497352Y-89157105D01*
X81512604Y-89153479D01*
X81633054Y-89108324D01*
X81648648Y-89099786D01*
X81719018Y-89047047D01*
X81785524Y-89022199D01*
X81854907Y-89037252D01*
X81870148Y-89047047D01*
X81948295Y-89105615D01*
X82084684Y-89156745D01*
X82146866Y-89163500D01*
X82975075Y-89163500D01*
X83043196Y-89183502D01*
X83064170Y-89200405D01*
X83409595Y-89545830D01*
X83443621Y-89608142D01*
X83446500Y-89634925D01*
X83446500Y-94502485D01*
X83426498Y-94570606D01*
X83409599Y-94591577D01*
X83275404Y-94725779D01*
X83268098Y-94733085D01*
X83205786Y-94767112D01*
X83134970Y-94762049D01*
X83078134Y-94719503D01*
X83053321Y-94652984D01*
X83053000Y-94643992D01*
X83053000Y-94227115D01*
X83048525Y-94211876D01*
X83047135Y-94210671D01*
X83039452Y-94209000D01*
X80917115Y-94209000D01*
X80901876Y-94213475D01*
X80900671Y-94214865D01*
X80899000Y-94222548D01*
X80899000Y-95444884D01*
X80903475Y-95460123D01*
X80904865Y-95461328D01*
X80912548Y-95462999D01*
X82234038Y-95462999D01*
X82302159Y-95483001D01*
X82348652Y-95536657D01*
X82358756Y-95606931D01*
X82329262Y-95671511D01*
X82323136Y-95678092D01*
X81891656Y-96109593D01*
X81829344Y-96143620D01*
X81802558Y-96146500D01*
X81457731Y-96146500D01*
X81454675Y-96146800D01*
X81454668Y-96146800D01*
X81396160Y-96152537D01*
X81310667Y-96160920D01*
X81304768Y-96162701D01*
X81304763Y-96162702D01*
X81293437Y-96166122D01*
X81257019Y-96171500D01*
X81157928Y-96171500D01*
X81154682Y-96171837D01*
X81154678Y-96171837D01*
X81060765Y-96181581D01*
X81060761Y-96181582D01*
X81053907Y-96182293D01*
X81047371Y-96184474D01*
X81047369Y-96184474D01*
X80979962Y-96206963D01*
X80888893Y-96237346D01*
X80740969Y-96328884D01*
X80735797Y-96334065D01*
X80733727Y-96336139D01*
X80731962Y-96337105D01*
X80730059Y-96338613D01*
X80729801Y-96338287D01*
X80671446Y-96370219D01*
X80600625Y-96365218D01*
X80555530Y-96336292D01*
X80552869Y-96333636D01*
X80541460Y-96324625D01*
X80405937Y-96241088D01*
X80392759Y-96234944D01*
X80241234Y-96184685D01*
X80227868Y-96181819D01*
X80135230Y-96172328D01*
X80128815Y-96172000D01*
X80054615Y-96172000D01*
X80039376Y-96176475D01*
X80038171Y-96177865D01*
X80036500Y-96185548D01*
X80036500Y-97283000D01*
X80016498Y-97351121D01*
X79962842Y-97397614D01*
X79910500Y-97409000D01*
X78755115Y-97409000D01*
X78739876Y-97413475D01*
X78738671Y-97414865D01*
X78737000Y-97422548D01*
X78737000Y-97438766D01*
X78737337Y-97445282D01*
X78747075Y-97539132D01*
X78749968Y-97552528D01*
X78800488Y-97703953D01*
X78806653Y-97717115D01*
X78890426Y-97852492D01*
X78899460Y-97863890D01*
X78940387Y-97904746D01*
X78974466Y-97967029D01*
X78969463Y-98037849D01*
X78925431Y-98095854D01*
X78850447Y-98150334D01*
X78846026Y-98155244D01*
X78846025Y-98155245D01*
X78816079Y-98188504D01*
X78722660Y-98292256D01*
X78694455Y-98341109D01*
X78684788Y-98357852D01*
X78633405Y-98406845D01*
X78563692Y-98420281D01*
X78543063Y-98416560D01*
X78328087Y-98358957D01*
X78100000Y-98339002D01*
X77871913Y-98358957D01*
X77866600Y-98360381D01*
X77866598Y-98360381D01*
X77656067Y-98416793D01*
X77656065Y-98416794D01*
X77650757Y-98418216D01*
X77645776Y-98420539D01*
X77645775Y-98420539D01*
X77448238Y-98512651D01*
X77448233Y-98512654D01*
X77443251Y-98514977D01*
X77383088Y-98557104D01*
X77260211Y-98643143D01*
X77260208Y-98643145D01*
X77255700Y-98646302D01*
X77093802Y-98808200D01*
X77090645Y-98812708D01*
X77090643Y-98812711D01*
X77052198Y-98867617D01*
X76962477Y-98995751D01*
X76960154Y-99000733D01*
X76960151Y-99000738D01*
X76872030Y-99189717D01*
X76865716Y-99203257D01*
X76864294Y-99208565D01*
X76864293Y-99208567D01*
X76828146Y-99343469D01*
X76806457Y-99424413D01*
X76786502Y-99652500D01*
X76806457Y-99880587D01*
X76807881Y-99885900D01*
X76807881Y-99885902D01*
X76853347Y-100055580D01*
X76865716Y-100101743D01*
X76868039Y-100106724D01*
X76868039Y-100106725D01*
X76960151Y-100304262D01*
X76960154Y-100304267D01*
X76962477Y-100309249D01*
X77093802Y-100496800D01*
X77255700Y-100658698D01*
X77260208Y-100661855D01*
X77260211Y-100661857D01*
X77263183Y-100663938D01*
X77443251Y-100790023D01*
X77448233Y-100792346D01*
X77448238Y-100792349D01*
X77605962Y-100865896D01*
X77650757Y-100886784D01*
X77656065Y-100888206D01*
X77656067Y-100888207D01*
X77866598Y-100944619D01*
X77866600Y-100944619D01*
X77871913Y-100946043D01*
X78100000Y-100965998D01*
X78328087Y-100946043D01*
X78333400Y-100944619D01*
X78333402Y-100944619D01*
X78543933Y-100888207D01*
X78543935Y-100888206D01*
X78549243Y-100886784D01*
X78594038Y-100865896D01*
X78751762Y-100792349D01*
X78751767Y-100792346D01*
X78756749Y-100790023D01*
X78936817Y-100663938D01*
X78939789Y-100661857D01*
X78939792Y-100661855D01*
X78944300Y-100658698D01*
X78953352Y-100649646D01*
X79015664Y-100615620D01*
X79086479Y-100620685D01*
X79131542Y-100649646D01*
X82544143Y-104062247D01*
X82551687Y-104070537D01*
X82555800Y-104077018D01*
X82561577Y-104082443D01*
X82605467Y-104123658D01*
X82608309Y-104126413D01*
X82628030Y-104146134D01*
X82631225Y-104148612D01*
X82640247Y-104156318D01*
X82672479Y-104186586D01*
X82679428Y-104190406D01*
X82690232Y-104196346D01*
X82706756Y-104207199D01*
X82722759Y-104219613D01*
X82763343Y-104237176D01*
X82773973Y-104242383D01*
X82812740Y-104263695D01*
X82820417Y-104265666D01*
X82820422Y-104265668D01*
X82832358Y-104268732D01*
X82851066Y-104275137D01*
X82869655Y-104283181D01*
X82877483Y-104284421D01*
X82877490Y-104284423D01*
X82913324Y-104290099D01*
X82924944Y-104292505D01*
X82960089Y-104301528D01*
X82967770Y-104303500D01*
X82988024Y-104303500D01*
X83007734Y-104305051D01*
X83027743Y-104308220D01*
X83035635Y-104307474D01*
X83069159Y-104304305D01*
X83071762Y-104304059D01*
X83083619Y-104303500D01*
X85848411Y-104303500D01*
X85916532Y-104323502D01*
X85923975Y-104328674D01*
X85972294Y-104364886D01*
X85978015Y-104369174D01*
X86020530Y-104426033D01*
X86025556Y-104496852D01*
X85991496Y-104559145D01*
X85978016Y-104570825D01*
X85896739Y-104631739D01*
X85891358Y-104638919D01*
X85891357Y-104638920D01*
X85865392Y-104673565D01*
X85808533Y-104716080D01*
X85778926Y-104721413D01*
X85754877Y-104728475D01*
X85753672Y-104729865D01*
X85752001Y-104737548D01*
X85752001Y-104755900D01*
X85731999Y-104824021D01*
X85678343Y-104870514D01*
X85626001Y-104881900D01*
X85560313Y-104881900D01*
X85560313Y-104881512D01*
X85494230Y-104869425D01*
X85442385Y-104820922D01*
X85436219Y-104806710D01*
X85432135Y-104803171D01*
X85424452Y-104801500D01*
X83490115Y-104801500D01*
X83474876Y-104805975D01*
X83473671Y-104807365D01*
X83472000Y-104815048D01*
X83472000Y-104893766D01*
X83472337Y-104900282D01*
X83482075Y-104994132D01*
X83484968Y-105007528D01*
X83535488Y-105158953D01*
X83541653Y-105172115D01*
X83625426Y-105307492D01*
X83634464Y-105318894D01*
X83636139Y-105320567D01*
X83636919Y-105321993D01*
X83639007Y-105324627D01*
X83638556Y-105324984D01*
X83670219Y-105382849D01*
X83665216Y-105453669D01*
X83636299Y-105498754D01*
X83633476Y-105501583D01*
X83628071Y-105506997D01*
X83624231Y-105513227D01*
X83624230Y-105513228D01*
X83564393Y-105610302D01*
X83536791Y-105655080D01*
X83504564Y-105752240D01*
X83492141Y-105789695D01*
X83461643Y-105839123D01*
X82515621Y-106785145D01*
X82505478Y-106794247D01*
X82475975Y-106817968D01*
X82472008Y-106822696D01*
X82443709Y-106856421D01*
X82440528Y-106860069D01*
X82438885Y-106861881D01*
X82436691Y-106864075D01*
X82409358Y-106897349D01*
X82408696Y-106898147D01*
X82348846Y-106969474D01*
X82346278Y-106974144D01*
X82342897Y-106978261D01*
X82311860Y-107036145D01*
X82299023Y-107060086D01*
X82298394Y-107061245D01*
X82256538Y-107137381D01*
X82256535Y-107137389D01*
X82253567Y-107142787D01*
X82251955Y-107147869D01*
X82249438Y-107152563D01*
X82222238Y-107241531D01*
X82221918Y-107242559D01*
X82193765Y-107331306D01*
X82193171Y-107336602D01*
X82191613Y-107341698D01*
X82186434Y-107392687D01*
X82182218Y-107434187D01*
X82182089Y-107435393D01*
X82176500Y-107485227D01*
X82176500Y-107488754D01*
X82176445Y-107489739D01*
X82175998Y-107495423D01*
X82172212Y-107532696D01*
X82169265Y-107539931D01*
X82172659Y-107549387D01*
X82175941Y-107584111D01*
X82176500Y-107595967D01*
X82176500Y-109763500D01*
X82156498Y-109831621D01*
X82102842Y-109878114D01*
X82050500Y-109889500D01*
X80757926Y-109889500D01*
X80689805Y-109869498D01*
X80668831Y-109852596D01*
X80156851Y-109340617D01*
X80147749Y-109330473D01*
X80127897Y-109305782D01*
X80124032Y-109300975D01*
X80085578Y-109268708D01*
X80081931Y-109265528D01*
X80080119Y-109263885D01*
X80077925Y-109261691D01*
X80044651Y-109234358D01*
X80043853Y-109233696D01*
X79972526Y-109173846D01*
X79967856Y-109171278D01*
X79963739Y-109167897D01*
X79881914Y-109124023D01*
X79880755Y-109123394D01*
X79804619Y-109081538D01*
X79804611Y-109081535D01*
X79799213Y-109078567D01*
X79794131Y-109076955D01*
X79789437Y-109074438D01*
X79700469Y-109047238D01*
X79699441Y-109046918D01*
X79610694Y-109018765D01*
X79605398Y-109018171D01*
X79600302Y-109016613D01*
X79507743Y-109007210D01*
X79506607Y-109007089D01*
X79472992Y-109003319D01*
X79460270Y-109001892D01*
X79460266Y-109001892D01*
X79456773Y-109001500D01*
X79453246Y-109001500D01*
X79452261Y-109001445D01*
X79446581Y-109000998D01*
X79417175Y-108998011D01*
X79409663Y-108997248D01*
X79409661Y-108997248D01*
X79403538Y-108996626D01*
X79361259Y-109000623D01*
X79357891Y-109000941D01*
X79346033Y-109001500D01*
X76514158Y-109001500D01*
X76500593Y-109000768D01*
X76462769Y-108996672D01*
X76456632Y-108997211D01*
X76456627Y-108997211D01*
X76412724Y-109001067D01*
X76407856Y-109001400D01*
X76405809Y-109001500D01*
X76402731Y-109001500D01*
X76399675Y-109001800D01*
X76399648Y-109001801D01*
X76359811Y-109005708D01*
X76358559Y-109005825D01*
X76342457Y-109007239D01*
X76271881Y-109013437D01*
X76271876Y-109013438D01*
X76265750Y-109013976D01*
X76260796Y-109015417D01*
X76255667Y-109015920D01*
X76166488Y-109042845D01*
X76165350Y-109043182D01*
X76151245Y-109047285D01*
X76075846Y-109069218D01*
X76071266Y-109071594D01*
X76066331Y-109073084D01*
X75983979Y-109116870D01*
X75983053Y-109117356D01*
X75937857Y-109140803D01*
X75905755Y-109157457D01*
X75905753Y-109157458D01*
X75900287Y-109160294D01*
X75896258Y-109163513D01*
X75891704Y-109165934D01*
X75886932Y-109169826D01*
X75886926Y-109169830D01*
X75819474Y-109224844D01*
X75818530Y-109225606D01*
X75779273Y-109256966D01*
X75776781Y-109259460D01*
X75776362Y-109259835D01*
X75771982Y-109263578D01*
X75738438Y-109290935D01*
X75734511Y-109295682D01*
X75734509Y-109295684D01*
X75709089Y-109326412D01*
X75701129Y-109335163D01*
X75654114Y-109382209D01*
X75591813Y-109416255D01*
X75520995Y-109411213D01*
X75475870Y-109382215D01*
X74705381Y-108611321D01*
X74671372Y-108549000D01*
X74668500Y-108522249D01*
X74668500Y-108117169D01*
X76792001Y-108117169D01*
X76792371Y-108123990D01*
X76797895Y-108174852D01*
X76801521Y-108190104D01*
X76846676Y-108310554D01*
X76855214Y-108326149D01*
X76931715Y-108428224D01*
X76944276Y-108440785D01*
X77046351Y-108517286D01*
X77061946Y-108525824D01*
X77182394Y-108570978D01*
X77197649Y-108574605D01*
X77248514Y-108580131D01*
X77255328Y-108580500D01*
X77827885Y-108580500D01*
X77843124Y-108576025D01*
X77844329Y-108574635D01*
X77846000Y-108566952D01*
X77846000Y-108562384D01*
X78354000Y-108562384D01*
X78358475Y-108577623D01*
X78359865Y-108578828D01*
X78367548Y-108580499D01*
X78944669Y-108580499D01*
X78951490Y-108580129D01*
X79002352Y-108574605D01*
X79017604Y-108570979D01*
X79138054Y-108525824D01*
X79153649Y-108517286D01*
X79255724Y-108440785D01*
X79268285Y-108428224D01*
X79344786Y-108326149D01*
X79353324Y-108310554D01*
X79398478Y-108190106D01*
X79402104Y-108174857D01*
X79402561Y-108170649D01*
X79403832Y-108167590D01*
X79403932Y-108167169D01*
X79404000Y-108167185D01*
X79429801Y-108105086D01*
X79488163Y-108064657D01*
X79559117Y-108062199D01*
X79620136Y-108098492D01*
X79630972Y-108111900D01*
X79638084Y-108120375D01*
X79792125Y-108274416D01*
X79800533Y-108281472D01*
X79978993Y-108406431D01*
X79988489Y-108411914D01*
X80185947Y-108503990D01*
X80196239Y-108507736D01*
X80368503Y-108553894D01*
X80382599Y-108553558D01*
X80386000Y-108545616D01*
X80386000Y-108540467D01*
X80894000Y-108540467D01*
X80897973Y-108553998D01*
X80906522Y-108555227D01*
X81083761Y-108507736D01*
X81094053Y-108503990D01*
X81291511Y-108411914D01*
X81301007Y-108406431D01*
X81479467Y-108281472D01*
X81487875Y-108274416D01*
X81641916Y-108120375D01*
X81648972Y-108111967D01*
X81773931Y-107933507D01*
X81779414Y-107924011D01*
X81871490Y-107726553D01*
X81875236Y-107716261D01*
X81922614Y-107539443D01*
X81921644Y-107530152D01*
X81913116Y-107526500D01*
X80912115Y-107526500D01*
X80896876Y-107530975D01*
X80895671Y-107532365D01*
X80894000Y-107540048D01*
X80894000Y-108540467D01*
X80386000Y-108540467D01*
X80386000Y-107544615D01*
X80381525Y-107529376D01*
X80380135Y-107528171D01*
X80372452Y-107526500D01*
X78372115Y-107526500D01*
X78356876Y-107530975D01*
X78355671Y-107532365D01*
X78354000Y-107540048D01*
X78354000Y-108562384D01*
X77846000Y-108562384D01*
X77846000Y-107544615D01*
X77841525Y-107529376D01*
X77840135Y-107528171D01*
X77832452Y-107526500D01*
X76810116Y-107526500D01*
X76794877Y-107530975D01*
X76793672Y-107532365D01*
X76792001Y-107540048D01*
X76792001Y-108117169D01*
X74668500Y-108117169D01*
X74668500Y-107000385D01*
X76792000Y-107000385D01*
X76796475Y-107015624D01*
X76797865Y-107016829D01*
X76805548Y-107018500D01*
X77827885Y-107018500D01*
X77843124Y-107014025D01*
X77844329Y-107012635D01*
X77846000Y-107004952D01*
X77846000Y-107000385D01*
X78354000Y-107000385D01*
X78358475Y-107015624D01*
X78359865Y-107016829D01*
X78367548Y-107018500D01*
X80367885Y-107018500D01*
X80383124Y-107014025D01*
X80384329Y-107012635D01*
X80386000Y-107004952D01*
X80386000Y-107000385D01*
X80894000Y-107000385D01*
X80898475Y-107015624D01*
X80899865Y-107016829D01*
X80907548Y-107018500D01*
X81907967Y-107018500D01*
X81921498Y-107014527D01*
X81922727Y-107005978D01*
X81875236Y-106828739D01*
X81871490Y-106818447D01*
X81779414Y-106620989D01*
X81773931Y-106611493D01*
X81648972Y-106433033D01*
X81641916Y-106424625D01*
X81487875Y-106270584D01*
X81479467Y-106263528D01*
X81301007Y-106138569D01*
X81291511Y-106133086D01*
X81094053Y-106041010D01*
X81083761Y-106037264D01*
X80911497Y-105991106D01*
X80897401Y-105991442D01*
X80894000Y-105999384D01*
X80894000Y-107000385D01*
X80386000Y-107000385D01*
X80386000Y-106004533D01*
X80382027Y-105991002D01*
X80373478Y-105989773D01*
X80196239Y-106037264D01*
X80185947Y-106041010D01*
X79988489Y-106133086D01*
X79978993Y-106138569D01*
X79800533Y-106263528D01*
X79792125Y-106270584D01*
X79638084Y-106424625D01*
X79627493Y-106437246D01*
X79626643Y-106436532D01*
X79575578Y-106477348D01*
X79504959Y-106484656D01*
X79441599Y-106452623D01*
X79405615Y-106391421D01*
X79402562Y-106374355D01*
X79402105Y-106370147D01*
X79398479Y-106354896D01*
X79353324Y-106234446D01*
X79344786Y-106218851D01*
X79268285Y-106116776D01*
X79255724Y-106104215D01*
X79153649Y-106027714D01*
X79138054Y-106019176D01*
X79017606Y-105974022D01*
X79002351Y-105970395D01*
X78951486Y-105964869D01*
X78944672Y-105964500D01*
X78372115Y-105964500D01*
X78356876Y-105968975D01*
X78355671Y-105970365D01*
X78354000Y-105978048D01*
X78354000Y-107000385D01*
X77846000Y-107000385D01*
X77846000Y-105982616D01*
X77841525Y-105967377D01*
X77840135Y-105966172D01*
X77832452Y-105964501D01*
X77255331Y-105964501D01*
X77248510Y-105964871D01*
X77197648Y-105970395D01*
X77182396Y-105974021D01*
X77061946Y-106019176D01*
X77046351Y-106027714D01*
X76944276Y-106104215D01*
X76931715Y-106116776D01*
X76855214Y-106218851D01*
X76846676Y-106234446D01*
X76801522Y-106354894D01*
X76797895Y-106370149D01*
X76792369Y-106421014D01*
X76792000Y-106427828D01*
X76792000Y-107000385D01*
X74668500Y-107000385D01*
X74668500Y-105733970D01*
X74688502Y-105665849D01*
X74696460Y-105655120D01*
X74698096Y-105653489D01*
X74828453Y-105472077D01*
X74831075Y-105466773D01*
X74925136Y-105276453D01*
X74925137Y-105276451D01*
X74927430Y-105271811D01*
X74992370Y-105058069D01*
X75016232Y-104876823D01*
X75044955Y-104811896D01*
X75052059Y-104804175D01*
X75879379Y-103976855D01*
X75889522Y-103967753D01*
X75914218Y-103947897D01*
X75919025Y-103944032D01*
X75951292Y-103905578D01*
X75954472Y-103901931D01*
X75956115Y-103900119D01*
X75958309Y-103897925D01*
X75985642Y-103864651D01*
X75986348Y-103863800D01*
X76042195Y-103797244D01*
X76046154Y-103792526D01*
X76048722Y-103787856D01*
X76052103Y-103783739D01*
X76095977Y-103701914D01*
X76096606Y-103700755D01*
X76138462Y-103624619D01*
X76138465Y-103624611D01*
X76141433Y-103619213D01*
X76143045Y-103614131D01*
X76145562Y-103609437D01*
X76172762Y-103520469D01*
X76173108Y-103519358D01*
X76175793Y-103510897D01*
X76201235Y-103430694D01*
X76201829Y-103425398D01*
X76203387Y-103420302D01*
X76212790Y-103327743D01*
X76212911Y-103326607D01*
X76217613Y-103284684D01*
X76218108Y-103280270D01*
X76218108Y-103280266D01*
X76218500Y-103276773D01*
X76218500Y-103273246D01*
X76218555Y-103272261D01*
X76219002Y-103266581D01*
X76223374Y-103223538D01*
X76219059Y-103177891D01*
X76218500Y-103166033D01*
X76218500Y-97882326D01*
X76238502Y-97814205D01*
X76292158Y-97767712D01*
X76362432Y-97757608D01*
X76384162Y-97762732D01*
X76445191Y-97782974D01*
X76452027Y-97783674D01*
X76452030Y-97783675D01*
X76503526Y-97788951D01*
X76547928Y-97793500D01*
X77122072Y-97793500D01*
X77125318Y-97793163D01*
X77125322Y-97793163D01*
X77219235Y-97783419D01*
X77219239Y-97783418D01*
X77226093Y-97782707D01*
X77232629Y-97780526D01*
X77232631Y-97780526D01*
X77384159Y-97729972D01*
X77391107Y-97727654D01*
X77539031Y-97636116D01*
X77544204Y-97630934D01*
X77656758Y-97518184D01*
X77656762Y-97518179D01*
X77661929Y-97513003D01*
X77665770Y-97506772D01*
X77749369Y-97371150D01*
X77749370Y-97371148D01*
X77753209Y-97364920D01*
X77807974Y-97199809D01*
X77818500Y-97097072D01*
X77818500Y-96882885D01*
X78737000Y-96882885D01*
X78741475Y-96898124D01*
X78742865Y-96899329D01*
X78750548Y-96901000D01*
X79510385Y-96901000D01*
X79525624Y-96896525D01*
X79526829Y-96895135D01*
X79528500Y-96887452D01*
X79528500Y-96190115D01*
X79524025Y-96174876D01*
X79522635Y-96173671D01*
X79514952Y-96172000D01*
X79436234Y-96172000D01*
X79429718Y-96172337D01*
X79335868Y-96182075D01*
X79322472Y-96184968D01*
X79171047Y-96235488D01*
X79157885Y-96241653D01*
X79022508Y-96325426D01*
X79011110Y-96334460D01*
X78898637Y-96447129D01*
X78889625Y-96458540D01*
X78806088Y-96594063D01*
X78799944Y-96607241D01*
X78749685Y-96758766D01*
X78746819Y-96772132D01*
X78737328Y-96864770D01*
X78737000Y-96871185D01*
X78737000Y-96882885D01*
X77818500Y-96882885D01*
X77818500Y-96762095D01*
X77838502Y-96693974D01*
X77855405Y-96673000D01*
X78102253Y-96426152D01*
X78110539Y-96418612D01*
X78117018Y-96414500D01*
X78163644Y-96364848D01*
X78166398Y-96362007D01*
X78186135Y-96342270D01*
X78188615Y-96339073D01*
X78196320Y-96330051D01*
X78201034Y-96325031D01*
X78226586Y-96297821D01*
X78230405Y-96290875D01*
X78230407Y-96290872D01*
X78236348Y-96280066D01*
X78247199Y-96263547D01*
X78254758Y-96253801D01*
X78259614Y-96247541D01*
X78262759Y-96240272D01*
X78262762Y-96240268D01*
X78277174Y-96206963D01*
X78282391Y-96196313D01*
X78303695Y-96157560D01*
X78308733Y-96137937D01*
X78315137Y-96119234D01*
X78320033Y-96107920D01*
X78320033Y-96107919D01*
X78323181Y-96100645D01*
X78324420Y-96092822D01*
X78324423Y-96092812D01*
X78330099Y-96056976D01*
X78332505Y-96045356D01*
X78341528Y-96010211D01*
X78341528Y-96010210D01*
X78343500Y-96002530D01*
X78343500Y-95982276D01*
X78345051Y-95962565D01*
X78346528Y-95953243D01*
X78348220Y-95942557D01*
X78344059Y-95898538D01*
X78343500Y-95886681D01*
X78343500Y-95528849D01*
X78363502Y-95460728D01*
X78417158Y-95414235D01*
X78487432Y-95404131D01*
X78513730Y-95410867D01*
X78627394Y-95453478D01*
X78642649Y-95457105D01*
X78693514Y-95462631D01*
X78700328Y-95463000D01*
X80372885Y-95463000D01*
X80388124Y-95458525D01*
X80389329Y-95457135D01*
X80391000Y-95449452D01*
X80391000Y-93682885D01*
X80899000Y-93682885D01*
X80903475Y-93698124D01*
X80904865Y-93699329D01*
X80912548Y-93701000D01*
X83034884Y-93701000D01*
X83050123Y-93696525D01*
X83051328Y-93695135D01*
X83052999Y-93687452D01*
X83052999Y-92910331D01*
X83052629Y-92903510D01*
X83047105Y-92852648D01*
X83043479Y-92837396D01*
X82998324Y-92716946D01*
X82989786Y-92701351D01*
X82913285Y-92599276D01*
X82900724Y-92586715D01*
X82798649Y-92510214D01*
X82783054Y-92501676D01*
X82662606Y-92456522D01*
X82647351Y-92452895D01*
X82596486Y-92447369D01*
X82589672Y-92447000D01*
X80917115Y-92447000D01*
X80901876Y-92451475D01*
X80900671Y-92452865D01*
X80899000Y-92460548D01*
X80899000Y-93682885D01*
X80391000Y-93682885D01*
X80391000Y-92465116D01*
X80386525Y-92449877D01*
X80385135Y-92448672D01*
X80377452Y-92447001D01*
X78700331Y-92447001D01*
X78693510Y-92447371D01*
X78642648Y-92452895D01*
X78627396Y-92456521D01*
X78506946Y-92501676D01*
X78491351Y-92510214D01*
X78389276Y-92586715D01*
X78376715Y-92599276D01*
X78300214Y-92701351D01*
X78291676Y-92716946D01*
X78246522Y-92837394D01*
X78242895Y-92852649D01*
X78237369Y-92903514D01*
X78237000Y-92910328D01*
X78237001Y-93838707D01*
X78216999Y-93906828D01*
X78163343Y-93953321D01*
X78093069Y-93963425D01*
X78028489Y-93933932D01*
X78021921Y-93927817D01*
X77113641Y-93019536D01*
X77106112Y-93011262D01*
X77102000Y-93004782D01*
X77052348Y-92958156D01*
X77049507Y-92955402D01*
X77029770Y-92935665D01*
X77026573Y-92933185D01*
X77017551Y-92925480D01*
X77001416Y-92910328D01*
X76985321Y-92895214D01*
X76978375Y-92891395D01*
X76978372Y-92891393D01*
X76967566Y-92885452D01*
X76951047Y-92874601D01*
X76946001Y-92870687D01*
X76935041Y-92862186D01*
X76927772Y-92859041D01*
X76927768Y-92859038D01*
X76894463Y-92844626D01*
X76883813Y-92839409D01*
X76845060Y-92818105D01*
X76825437Y-92813067D01*
X76806734Y-92806663D01*
X76795420Y-92801767D01*
X76795419Y-92801767D01*
X76788145Y-92798619D01*
X76780322Y-92797380D01*
X76780312Y-92797377D01*
X76744476Y-92791701D01*
X76732856Y-92789295D01*
X76697711Y-92780272D01*
X76697710Y-92780272D01*
X76690030Y-92778300D01*
X76669776Y-92778300D01*
X76650065Y-92776749D01*
X76637886Y-92774820D01*
X76630057Y-92773580D01*
X76622165Y-92774326D01*
X76586039Y-92777741D01*
X76574181Y-92778300D01*
X75028198Y-92778300D01*
X74960077Y-92758298D01*
X74913584Y-92704642D01*
X74903480Y-92634368D01*
X74915240Y-92596477D01*
X74927430Y-92571811D01*
X74965238Y-92447371D01*
X74990865Y-92363023D01*
X74990865Y-92363021D01*
X74992370Y-92358069D01*
X75021529Y-92136590D01*
X75023156Y-92070000D01*
X75004852Y-91847361D01*
X74950431Y-91630702D01*
X74861354Y-91425840D01*
X74784473Y-91307000D01*
X74742822Y-91242617D01*
X74742820Y-91242614D01*
X74740014Y-91238277D01*
X74736532Y-91234450D01*
X74592798Y-91076488D01*
X74561746Y-91012642D01*
X74570141Y-90942143D01*
X74615317Y-90887375D01*
X74641761Y-90873706D01*
X74748297Y-90833767D01*
X74756705Y-90830615D01*
X74873261Y-90743261D01*
X74960615Y-90626705D01*
X74963767Y-90618296D01*
X74968077Y-90610425D01*
X74969741Y-90611336D01*
X75005663Y-90563510D01*
X75072224Y-90538807D01*
X75081009Y-90538500D01*
X76408157Y-90538500D01*
X76421764Y-90539237D01*
X76453262Y-90542659D01*
X76453267Y-90542659D01*
X76459388Y-90543324D01*
X76485638Y-90541027D01*
X76509388Y-90538950D01*
X76514214Y-90538621D01*
X76516686Y-90538500D01*
X76519769Y-90538500D01*
X76531738Y-90537326D01*
X76562506Y-90534310D01*
X76563819Y-90534188D01*
X76608084Y-90530315D01*
X76656413Y-90526087D01*
X76661532Y-90524600D01*
X76666833Y-90524080D01*
X76755834Y-90497209D01*
X76756967Y-90496874D01*
X76840414Y-90472630D01*
X76840418Y-90472628D01*
X76846336Y-90470909D01*
X76851068Y-90468456D01*
X76856169Y-90466916D01*
X76896207Y-90445628D01*
X76938260Y-90423269D01*
X76939426Y-90422657D01*
X77016453Y-90382729D01*
X77021926Y-90379892D01*
X77026089Y-90376569D01*
X77030796Y-90374066D01*
X77102918Y-90315245D01*
X77103774Y-90314554D01*
X77142973Y-90283262D01*
X77145477Y-90280758D01*
X77146195Y-90280116D01*
X77150528Y-90276415D01*
X77184062Y-90249065D01*
X77213288Y-90213737D01*
X77221277Y-90204958D01*
X77722245Y-89703990D01*
X78225829Y-89200405D01*
X78288141Y-89166380D01*
X78314924Y-89163500D01*
X79143134Y-89163500D01*
X79205316Y-89156745D01*
X79341705Y-89105615D01*
X79419852Y-89047047D01*
X79486358Y-89022199D01*
X79555741Y-89037252D01*
X79570982Y-89047047D01*
X79641352Y-89099786D01*
X79656946Y-89108324D01*
X79777394Y-89153478D01*
X79792649Y-89157105D01*
X79843514Y-89162631D01*
X79850328Y-89163000D01*
X80372885Y-89163000D01*
X80388124Y-89158525D01*
X80389329Y-89157135D01*
X80391000Y-89149452D01*
X80391000Y-87527000D01*
X80411002Y-87458879D01*
X80464658Y-87412386D01*
X80517000Y-87401000D01*
X80773000Y-87401000D01*
X80841121Y-87421002D01*
G37*
%TD.AperFunction*%
%TA.AperFunction,Conductor*%
G36*
X96076121Y-91201002D02*
G01*
X96122614Y-91254658D01*
X96134000Y-91307000D01*
X96134000Y-92753517D01*
X96138064Y-92767359D01*
X96151478Y-92769393D01*
X96158184Y-92768534D01*
X96168262Y-92766392D01*
X96372255Y-92705191D01*
X96381842Y-92701433D01*
X96573095Y-92607739D01*
X96581945Y-92602464D01*
X96755328Y-92478792D01*
X96763200Y-92472139D01*
X96914052Y-92321812D01*
X96920730Y-92313965D01*
X97048022Y-92136819D01*
X97049279Y-92137722D01*
X97096373Y-92094362D01*
X97166311Y-92082145D01*
X97231751Y-92109678D01*
X97259579Y-92141511D01*
X97319987Y-92240088D01*
X97466250Y-92408938D01*
X97638126Y-92551632D01*
X97831000Y-92664338D01*
X97835825Y-92666180D01*
X97835826Y-92666181D01*
X97908612Y-92693975D01*
X98039692Y-92744030D01*
X98044760Y-92745061D01*
X98044763Y-92745062D01*
X98139862Y-92764410D01*
X98258597Y-92788567D01*
X98263772Y-92788757D01*
X98263774Y-92788757D01*
X98476673Y-92796564D01*
X98476677Y-92796564D01*
X98481837Y-92796753D01*
X98486957Y-92796097D01*
X98486959Y-92796097D01*
X98698288Y-92769025D01*
X98698289Y-92769025D01*
X98703416Y-92768368D01*
X98708366Y-92766883D01*
X98912429Y-92705661D01*
X98912434Y-92705659D01*
X98917384Y-92704174D01*
X99117994Y-92605896D01*
X99299860Y-92476173D01*
X99302886Y-92473157D01*
X99367588Y-92444570D01*
X99383976Y-92443500D01*
X106137091Y-92443500D01*
X106205212Y-92463502D01*
X106226183Y-92480402D01*
X106783645Y-93037834D01*
X106787213Y-93041402D01*
X106821240Y-93103714D01*
X106816177Y-93174529D01*
X106773632Y-93231366D01*
X106707112Y-93256179D01*
X106698120Y-93256500D01*
X105146866Y-93256500D01*
X105084684Y-93263255D01*
X104948295Y-93314385D01*
X104831739Y-93401739D01*
X104744385Y-93518295D01*
X104693255Y-93654684D01*
X104686500Y-93716866D01*
X104686500Y-95513134D01*
X104693255Y-95575316D01*
X104744385Y-95711705D01*
X104831739Y-95828261D01*
X104948295Y-95915615D01*
X104956704Y-95918767D01*
X104956705Y-95918768D01*
X105065451Y-95959535D01*
X105122216Y-96002176D01*
X105146916Y-96068738D01*
X105131709Y-96138087D01*
X105112316Y-96164568D01*
X104985629Y-96297138D01*
X104982720Y-96301403D01*
X104982714Y-96301411D01*
X104934653Y-96371866D01*
X104859743Y-96481680D01*
X104837030Y-96530612D01*
X104770936Y-96673000D01*
X104765688Y-96684305D01*
X104705989Y-96899570D01*
X104682251Y-97121695D01*
X104682548Y-97126848D01*
X104682548Y-97126851D01*
X104687131Y-97206335D01*
X104695110Y-97344715D01*
X104696247Y-97349761D01*
X104696248Y-97349767D01*
X104699663Y-97364920D01*
X104744222Y-97562639D01*
X104828266Y-97769616D01*
X104865517Y-97830405D01*
X104942291Y-97955688D01*
X104944987Y-97960088D01*
X104948367Y-97963990D01*
X104951957Y-97968134D01*
X105091250Y-98128938D01*
X105215075Y-98231739D01*
X105253123Y-98263327D01*
X105263126Y-98271632D01*
X105270740Y-98276081D01*
X105336445Y-98314476D01*
X105385169Y-98366114D01*
X105398240Y-98435897D01*
X105371509Y-98501669D01*
X105331055Y-98535027D01*
X105318607Y-98541507D01*
X105314474Y-98544610D01*
X105314471Y-98544612D01*
X105146624Y-98670635D01*
X105139965Y-98675635D01*
X104985629Y-98837138D01*
X104859743Y-99021680D01*
X104812716Y-99122992D01*
X104777771Y-99198275D01*
X104765688Y-99224305D01*
X104705989Y-99439570D01*
X104682251Y-99661695D01*
X104695110Y-99884715D01*
X104696247Y-99889761D01*
X104696248Y-99889767D01*
X104713178Y-99964889D01*
X104744222Y-100102639D01*
X104794319Y-100226014D01*
X104818677Y-100286000D01*
X104828266Y-100309616D01*
X104879942Y-100393944D01*
X104942291Y-100495688D01*
X104944987Y-100500088D01*
X105091250Y-100668938D01*
X105152262Y-100719591D01*
X105253123Y-100803327D01*
X105263126Y-100811632D01*
X105327889Y-100849476D01*
X105336445Y-100854476D01*
X105385169Y-100906114D01*
X105398240Y-100975897D01*
X105371509Y-101041669D01*
X105331055Y-101075027D01*
X105318607Y-101081507D01*
X105314474Y-101084610D01*
X105314471Y-101084612D01*
X105147314Y-101210117D01*
X105139965Y-101215635D01*
X104985629Y-101377138D01*
X104859743Y-101561680D01*
X104816279Y-101655316D01*
X104772197Y-101750283D01*
X104765688Y-101764305D01*
X104705989Y-101979570D01*
X104682251Y-102201695D01*
X104682548Y-102206848D01*
X104682548Y-102206851D01*
X104693022Y-102388500D01*
X104695110Y-102424715D01*
X104696247Y-102429761D01*
X104696248Y-102429767D01*
X104708565Y-102484420D01*
X104744222Y-102642639D01*
X104828266Y-102849616D01*
X104867011Y-102912842D01*
X104942291Y-103035688D01*
X104944987Y-103040088D01*
X105091250Y-103208938D01*
X105147431Y-103255580D01*
X105253123Y-103343327D01*
X105263126Y-103351632D01*
X105323294Y-103386791D01*
X105336445Y-103394476D01*
X105385169Y-103446114D01*
X105398240Y-103515897D01*
X105371509Y-103581669D01*
X105331055Y-103615027D01*
X105318607Y-103621507D01*
X105314474Y-103624610D01*
X105314471Y-103624612D01*
X105146624Y-103750635D01*
X105139965Y-103755635D01*
X105074346Y-103824301D01*
X105000453Y-103901626D01*
X104985629Y-103917138D01*
X104859743Y-104101680D01*
X104837160Y-104150331D01*
X104776955Y-104280033D01*
X104765688Y-104304305D01*
X104705989Y-104519570D01*
X104682251Y-104741695D01*
X104682548Y-104746848D01*
X104682548Y-104746851D01*
X104691019Y-104893766D01*
X104695110Y-104964715D01*
X104696247Y-104969761D01*
X104696248Y-104969767D01*
X104716651Y-105060300D01*
X104744222Y-105182639D01*
X104828266Y-105389616D01*
X104867518Y-105453669D01*
X104942291Y-105575688D01*
X104944987Y-105580088D01*
X105091250Y-105748938D01*
X105263126Y-105891632D01*
X105456000Y-106004338D01*
X105664692Y-106084030D01*
X105669760Y-106085061D01*
X105669763Y-106085062D01*
X105763904Y-106104215D01*
X105883597Y-106128567D01*
X105888772Y-106128757D01*
X105888774Y-106128757D01*
X106101673Y-106136564D01*
X106101677Y-106136564D01*
X106106837Y-106136753D01*
X106111957Y-106136097D01*
X106111959Y-106136097D01*
X106323288Y-106109025D01*
X106323289Y-106109025D01*
X106328416Y-106108368D01*
X106396556Y-106087925D01*
X106537429Y-106045661D01*
X106537434Y-106045659D01*
X106542384Y-106044174D01*
X106742994Y-105945896D01*
X106924860Y-105816173D01*
X106931845Y-105809213D01*
X107060774Y-105680733D01*
X107083096Y-105658489D01*
X107087538Y-105652308D01*
X107213453Y-105477077D01*
X107214776Y-105478028D01*
X107261645Y-105434857D01*
X107331580Y-105422625D01*
X107397026Y-105450144D01*
X107424875Y-105481994D01*
X107484987Y-105580088D01*
X107631250Y-105748938D01*
X107803126Y-105891632D01*
X107996000Y-106004338D01*
X108000825Y-106006180D01*
X108000826Y-106006181D01*
X108156997Y-106065817D01*
X108213500Y-106108805D01*
X108237793Y-106175516D01*
X108222163Y-106244770D01*
X108201143Y-106272622D01*
X105029171Y-109444595D01*
X104966859Y-109478621D01*
X104940076Y-109481500D01*
X103974924Y-109481500D01*
X103906803Y-109461498D01*
X103885829Y-109444595D01*
X102010405Y-107569171D01*
X101976379Y-107506859D01*
X101973500Y-107480076D01*
X101973500Y-104318231D01*
X101972523Y-104308261D01*
X101965783Y-104239530D01*
X101959080Y-104171167D01*
X101957299Y-104165268D01*
X101957298Y-104165263D01*
X101953878Y-104153937D01*
X101948500Y-104117519D01*
X101948500Y-104017928D01*
X101946280Y-103996531D01*
X101938419Y-103920765D01*
X101938418Y-103920761D01*
X101937707Y-103913907D01*
X101933712Y-103901931D01*
X101884972Y-103755841D01*
X101882654Y-103748893D01*
X101791116Y-103600969D01*
X101783861Y-103593726D01*
X101782895Y-103591962D01*
X101781387Y-103590059D01*
X101781713Y-103589801D01*
X101749781Y-103531446D01*
X101754782Y-103460625D01*
X101783708Y-103415530D01*
X101786364Y-103412869D01*
X101795375Y-103401460D01*
X101878912Y-103265937D01*
X101885056Y-103252759D01*
X101935315Y-103101234D01*
X101938181Y-103087868D01*
X101947672Y-102995230D01*
X101948000Y-102988815D01*
X101948000Y-102914615D01*
X101943525Y-102899376D01*
X101942135Y-102898171D01*
X101934452Y-102896500D01*
X100000115Y-102896500D01*
X99984876Y-102900975D01*
X99970272Y-102917829D01*
X99952926Y-102949596D01*
X99890614Y-102983621D01*
X99863831Y-102986500D01*
X99530226Y-102986500D01*
X99462105Y-102966498D01*
X99415612Y-102912842D01*
X99405508Y-102842568D01*
X99435002Y-102777988D01*
X99454661Y-102759674D01*
X99516080Y-102713643D01*
X99516081Y-102713642D01*
X99523261Y-102708261D01*
X99554608Y-102666435D01*
X99611467Y-102623920D01*
X99641074Y-102618587D01*
X99665123Y-102611525D01*
X99666328Y-102610135D01*
X99667999Y-102602452D01*
X99667999Y-102550331D01*
X99667629Y-102543510D01*
X99661252Y-102484793D01*
X99663998Y-102484495D01*
X99663940Y-102455554D01*
X99661745Y-102455316D01*
X99668131Y-102396531D01*
X99668500Y-102393134D01*
X99668500Y-102370385D01*
X99982000Y-102370385D01*
X99986475Y-102385624D01*
X99987865Y-102386829D01*
X99995548Y-102388500D01*
X100692885Y-102388500D01*
X100708124Y-102384025D01*
X100709329Y-102382635D01*
X100711000Y-102374952D01*
X100711000Y-102370385D01*
X101219000Y-102370385D01*
X101223475Y-102385624D01*
X101224865Y-102386829D01*
X101232548Y-102388500D01*
X101929885Y-102388500D01*
X101945124Y-102384025D01*
X101946329Y-102382635D01*
X101948000Y-102374952D01*
X101948000Y-102296234D01*
X101947663Y-102289718D01*
X101937925Y-102195868D01*
X101935032Y-102182472D01*
X101884512Y-102031047D01*
X101878347Y-102017885D01*
X101794574Y-101882508D01*
X101785540Y-101871110D01*
X101672871Y-101758637D01*
X101661460Y-101749625D01*
X101525937Y-101666088D01*
X101512759Y-101659944D01*
X101361234Y-101609685D01*
X101347868Y-101606819D01*
X101255230Y-101597328D01*
X101248815Y-101597000D01*
X101237115Y-101597000D01*
X101221876Y-101601475D01*
X101220671Y-101602865D01*
X101219000Y-101610548D01*
X101219000Y-102370385D01*
X100711000Y-102370385D01*
X100711000Y-101615115D01*
X100706525Y-101599876D01*
X100705135Y-101598671D01*
X100697452Y-101597000D01*
X100681234Y-101597000D01*
X100674718Y-101597337D01*
X100580868Y-101607075D01*
X100567472Y-101609968D01*
X100416047Y-101660488D01*
X100402885Y-101666653D01*
X100267508Y-101750426D01*
X100256110Y-101759460D01*
X100143637Y-101872129D01*
X100134625Y-101883540D01*
X100051088Y-102019063D01*
X100044944Y-102032241D01*
X99994685Y-102183766D01*
X99991819Y-102197132D01*
X99982328Y-102289770D01*
X99982000Y-102296185D01*
X99982000Y-102370385D01*
X99668500Y-102370385D01*
X99668500Y-101746866D01*
X99661745Y-101684684D01*
X99664174Y-101684420D01*
X99664174Y-101655580D01*
X99661745Y-101655316D01*
X99668131Y-101596531D01*
X99668500Y-101593134D01*
X99668500Y-100946866D01*
X99661745Y-100884684D01*
X99664174Y-100884420D01*
X99664174Y-100855580D01*
X99661745Y-100855316D01*
X99668131Y-100796531D01*
X99668500Y-100793134D01*
X99668500Y-100146866D01*
X99661745Y-100084684D01*
X99664174Y-100084420D01*
X99664174Y-100055580D01*
X99661745Y-100055316D01*
X99668131Y-99996531D01*
X99668500Y-99993134D01*
X99668500Y-99346866D01*
X99661745Y-99284684D01*
X99664174Y-99284420D01*
X99664174Y-99255580D01*
X99661745Y-99255316D01*
X99668131Y-99196531D01*
X99668500Y-99193134D01*
X99668500Y-98546866D01*
X99661745Y-98484684D01*
X99610615Y-98348295D01*
X99523261Y-98231739D01*
X99406705Y-98144385D01*
X99270316Y-98093255D01*
X99208134Y-98086500D01*
X97619500Y-98086500D01*
X97551379Y-98066498D01*
X97504886Y-98012842D01*
X97493500Y-97960500D01*
X97493500Y-96371866D01*
X97486745Y-96309684D01*
X97435615Y-96173295D01*
X97348261Y-96056739D01*
X97231705Y-95969385D01*
X97233131Y-95967483D01*
X97192077Y-95926337D01*
X97177062Y-95856946D01*
X97201946Y-95790454D01*
X97213636Y-95776979D01*
X97304950Y-95685665D01*
X97367262Y-95651639D01*
X97374346Y-95650500D01*
X97377487Y-95650500D01*
X97383940Y-95649128D01*
X97383943Y-95649128D01*
X97448818Y-95635338D01*
X97564288Y-95610794D01*
X97570319Y-95608109D01*
X97732722Y-95535803D01*
X97732724Y-95535802D01*
X97738752Y-95533118D01*
X97765519Y-95513671D01*
X97829101Y-95467475D01*
X97893253Y-95420866D01*
X97902421Y-95410684D01*
X98016621Y-95283852D01*
X98016622Y-95283851D01*
X98021040Y-95278944D01*
X98116527Y-95113556D01*
X98175542Y-94931928D01*
X98176754Y-94920402D01*
X98194814Y-94748565D01*
X98195504Y-94742000D01*
X98193198Y-94720056D01*
X98176232Y-94558635D01*
X98176232Y-94558633D01*
X98175542Y-94552072D01*
X98116527Y-94370444D01*
X98106458Y-94353003D01*
X98064625Y-94280548D01*
X98021040Y-94205056D01*
X97990335Y-94170954D01*
X97897675Y-94068045D01*
X97897674Y-94068044D01*
X97893253Y-94063134D01*
X97738752Y-93950882D01*
X97732724Y-93948198D01*
X97732722Y-93948197D01*
X97570319Y-93875891D01*
X97570318Y-93875891D01*
X97564288Y-93873206D01*
X97470888Y-93853353D01*
X97383944Y-93834872D01*
X97383939Y-93834872D01*
X97377487Y-93833500D01*
X97186513Y-93833500D01*
X97180061Y-93834872D01*
X97180056Y-93834872D01*
X97093112Y-93853353D01*
X96999712Y-93873206D01*
X96993682Y-93875891D01*
X96993681Y-93875891D01*
X96831278Y-93948197D01*
X96831276Y-93948198D01*
X96825248Y-93950882D01*
X96670747Y-94063134D01*
X96666326Y-94068044D01*
X96666325Y-94068045D01*
X96573666Y-94170954D01*
X96542960Y-94205056D01*
X96499375Y-94280548D01*
X96457543Y-94353003D01*
X96447473Y-94370444D01*
X96388458Y-94552072D01*
X96387768Y-94558633D01*
X96387768Y-94558635D01*
X96379398Y-94638277D01*
X96352385Y-94703934D01*
X96343183Y-94714202D01*
X95908282Y-95149103D01*
X95845970Y-95183129D01*
X95775155Y-95178064D01*
X95729973Y-95147324D01*
X95729580Y-95147761D01*
X95726379Y-95144879D01*
X95725545Y-95144311D01*
X95720253Y-95138434D01*
X95565752Y-95026182D01*
X95559724Y-95023498D01*
X95559722Y-95023497D01*
X95397319Y-94951191D01*
X95397318Y-94951191D01*
X95391288Y-94948506D01*
X95282419Y-94925365D01*
X95210944Y-94910172D01*
X95210939Y-94910172D01*
X95204487Y-94908800D01*
X95013513Y-94908800D01*
X95007061Y-94910172D01*
X95007056Y-94910172D01*
X94935581Y-94925365D01*
X94826712Y-94948506D01*
X94820682Y-94951191D01*
X94820681Y-94951191D01*
X94658278Y-95023497D01*
X94658276Y-95023498D01*
X94652248Y-95026182D01*
X94497747Y-95138434D01*
X94493326Y-95143344D01*
X94493325Y-95143345D01*
X94399364Y-95247700D01*
X94369960Y-95280356D01*
X94298405Y-95404293D01*
X94247023Y-95453286D01*
X94205884Y-95464647D01*
X94206045Y-95465493D01*
X94198264Y-95466977D01*
X94190350Y-95467475D01*
X94182809Y-95469925D01*
X94182513Y-95470021D01*
X94159369Y-95475194D01*
X94159065Y-95475232D01*
X94159060Y-95475233D01*
X94151203Y-95476226D01*
X94143838Y-95479142D01*
X94143834Y-95479143D01*
X94098989Y-95496899D01*
X94091570Y-95499571D01*
X94038125Y-95516936D01*
X94031429Y-95521186D01*
X94031428Y-95521186D01*
X94031169Y-95521350D01*
X94010042Y-95532115D01*
X94009754Y-95532229D01*
X94009749Y-95532232D01*
X94002383Y-95535148D01*
X93995975Y-95539804D01*
X93995969Y-95539807D01*
X93956948Y-95568158D01*
X93950411Y-95572601D01*
X93902982Y-95602700D01*
X93897556Y-95608478D01*
X93897555Y-95608479D01*
X93897341Y-95608707D01*
X93879554Y-95624388D01*
X93879309Y-95624566D01*
X93879307Y-95624568D01*
X93872893Y-95629228D01*
X93867839Y-95635337D01*
X93867838Y-95635338D01*
X93837097Y-95672496D01*
X93831866Y-95678430D01*
X93798842Y-95713598D01*
X93798840Y-95713601D01*
X93793414Y-95719379D01*
X93789445Y-95726599D01*
X93776119Y-95746206D01*
X93775920Y-95746446D01*
X93775916Y-95746453D01*
X93770867Y-95752556D01*
X93759375Y-95776979D01*
X93746953Y-95803376D01*
X93743359Y-95810429D01*
X93723693Y-95846201D01*
X93673348Y-95896260D01*
X93613279Y-95911500D01*
X93421873Y-95911500D01*
X93353752Y-95891498D01*
X93307259Y-95837842D01*
X93297155Y-95767568D01*
X93302280Y-95745833D01*
X93335315Y-95646235D01*
X93338181Y-95632868D01*
X93347672Y-95540230D01*
X93348000Y-95533815D01*
X93348000Y-95522115D01*
X93343525Y-95506876D01*
X93342135Y-95505671D01*
X93334452Y-95504000D01*
X92174500Y-95504000D01*
X92106379Y-95483998D01*
X92059886Y-95430342D01*
X92048500Y-95378000D01*
X92048500Y-94977885D01*
X92556500Y-94977885D01*
X92560975Y-94993124D01*
X92562365Y-94994329D01*
X92570048Y-94996000D01*
X93329885Y-94996000D01*
X93345124Y-94991525D01*
X93346329Y-94990135D01*
X93348000Y-94982452D01*
X93348000Y-94966234D01*
X93347663Y-94959718D01*
X93337925Y-94865868D01*
X93335032Y-94852472D01*
X93284512Y-94701047D01*
X93278347Y-94687885D01*
X93194574Y-94552508D01*
X93185540Y-94541110D01*
X93072871Y-94428637D01*
X93061460Y-94419625D01*
X92925937Y-94336088D01*
X92912759Y-94329944D01*
X92761234Y-94279685D01*
X92747868Y-94276819D01*
X92655230Y-94267328D01*
X92648815Y-94267000D01*
X92574615Y-94267000D01*
X92559376Y-94271475D01*
X92558171Y-94272865D01*
X92556500Y-94280548D01*
X92556500Y-94977885D01*
X92048500Y-94977885D01*
X92048500Y-94285115D01*
X92044025Y-94269876D01*
X92042635Y-94268671D01*
X92034952Y-94267000D01*
X91956234Y-94267000D01*
X91949718Y-94267337D01*
X91855868Y-94277075D01*
X91842472Y-94279968D01*
X91691047Y-94330488D01*
X91677885Y-94336653D01*
X91542508Y-94420426D01*
X91531106Y-94429464D01*
X91529433Y-94431139D01*
X91528007Y-94431919D01*
X91525373Y-94434007D01*
X91525016Y-94433556D01*
X91467151Y-94465219D01*
X91396331Y-94460216D01*
X91351246Y-94431299D01*
X91348185Y-94428244D01*
X91343003Y-94423071D01*
X91194920Y-94331791D01*
X91187972Y-94329487D01*
X91187969Y-94329485D01*
X91059558Y-94286893D01*
X91010130Y-94256395D01*
X90162654Y-93408919D01*
X89305405Y-92551671D01*
X89271380Y-92489359D01*
X89268500Y-92462576D01*
X89268500Y-92398970D01*
X89288502Y-92330849D01*
X89296460Y-92320120D01*
X89298096Y-92318489D01*
X89428453Y-92137077D01*
X89429776Y-92138028D01*
X89476645Y-92094857D01*
X89546580Y-92082625D01*
X89612026Y-92110144D01*
X89639875Y-92141994D01*
X89699987Y-92240088D01*
X89846250Y-92408938D01*
X90018126Y-92551632D01*
X90211000Y-92664338D01*
X90215825Y-92666180D01*
X90215826Y-92666181D01*
X90288612Y-92693975D01*
X90419692Y-92744030D01*
X90424760Y-92745061D01*
X90424763Y-92745062D01*
X90519862Y-92764410D01*
X90638597Y-92788567D01*
X90643772Y-92788757D01*
X90643774Y-92788757D01*
X90856673Y-92796564D01*
X90856677Y-92796564D01*
X90861837Y-92796753D01*
X90866957Y-92796097D01*
X90866959Y-92796097D01*
X91078288Y-92769025D01*
X91078289Y-92769025D01*
X91083416Y-92768368D01*
X91088366Y-92766883D01*
X91292429Y-92705661D01*
X91292434Y-92705659D01*
X91297384Y-92704174D01*
X91497994Y-92605896D01*
X91679860Y-92476173D01*
X91692576Y-92463502D01*
X91834435Y-92322137D01*
X91838096Y-92318489D01*
X91968453Y-92137077D01*
X91969776Y-92138028D01*
X92016645Y-92094857D01*
X92086580Y-92082625D01*
X92152026Y-92110144D01*
X92179875Y-92141994D01*
X92239987Y-92240088D01*
X92386250Y-92408938D01*
X92558126Y-92551632D01*
X92751000Y-92664338D01*
X92755825Y-92666180D01*
X92755826Y-92666181D01*
X92828612Y-92693975D01*
X92959692Y-92744030D01*
X92964760Y-92745061D01*
X92964763Y-92745062D01*
X93059862Y-92764410D01*
X93178597Y-92788567D01*
X93183772Y-92788757D01*
X93183774Y-92788757D01*
X93396673Y-92796564D01*
X93396677Y-92796564D01*
X93401837Y-92796753D01*
X93406957Y-92796097D01*
X93406959Y-92796097D01*
X93618288Y-92769025D01*
X93618289Y-92769025D01*
X93623416Y-92768368D01*
X93628366Y-92766883D01*
X93832429Y-92705661D01*
X93832434Y-92705659D01*
X93837384Y-92704174D01*
X94037994Y-92605896D01*
X94219860Y-92476173D01*
X94232576Y-92463502D01*
X94374435Y-92322137D01*
X94378096Y-92318489D01*
X94508453Y-92137077D01*
X94509640Y-92137930D01*
X94556960Y-92094362D01*
X94626897Y-92082145D01*
X94692338Y-92109678D01*
X94720166Y-92141511D01*
X94777694Y-92235388D01*
X94783777Y-92243699D01*
X94923213Y-92404667D01*
X94930580Y-92411883D01*
X95094434Y-92547916D01*
X95102881Y-92553831D01*
X95286756Y-92661279D01*
X95296042Y-92665729D01*
X95495001Y-92741703D01*
X95504899Y-92744579D01*
X95608250Y-92765606D01*
X95622299Y-92764410D01*
X95626000Y-92754065D01*
X95626000Y-91307000D01*
X95646002Y-91238879D01*
X95699658Y-91192386D01*
X95752000Y-91181000D01*
X96008000Y-91181000D01*
X96076121Y-91201002D01*
G37*
%TD.AperFunction*%
%TA.AperFunction,Conductor*%
G36*
X91999145Y-98188504D02*
G01*
X92010825Y-98201984D01*
X92071739Y-98283261D01*
X92078919Y-98288642D01*
X92078920Y-98288643D01*
X92113565Y-98314608D01*
X92156080Y-98371467D01*
X92161413Y-98401074D01*
X92168475Y-98425123D01*
X92169865Y-98426328D01*
X92177548Y-98427999D01*
X92229669Y-98427999D01*
X92236490Y-98427629D01*
X92295207Y-98421252D01*
X92295505Y-98423998D01*
X92324446Y-98423940D01*
X92324684Y-98421745D01*
X92378867Y-98427631D01*
X92386866Y-98428500D01*
X93033134Y-98428500D01*
X93041134Y-98427631D01*
X93095316Y-98421745D01*
X93095580Y-98424174D01*
X93124420Y-98424174D01*
X93124684Y-98421745D01*
X93178867Y-98427631D01*
X93186866Y-98428500D01*
X93833134Y-98428500D01*
X93841134Y-98427631D01*
X93895316Y-98421745D01*
X93895580Y-98424174D01*
X93924420Y-98424174D01*
X93924684Y-98421745D01*
X93978867Y-98427631D01*
X93986866Y-98428500D01*
X94633134Y-98428500D01*
X94641134Y-98427631D01*
X94695316Y-98421745D01*
X94695580Y-98424174D01*
X94724420Y-98424174D01*
X94724684Y-98421745D01*
X94778867Y-98427631D01*
X94786866Y-98428500D01*
X95433134Y-98428500D01*
X95441134Y-98427631D01*
X95495316Y-98421745D01*
X95495580Y-98424174D01*
X95524420Y-98424174D01*
X95524684Y-98421745D01*
X95578867Y-98427631D01*
X95586866Y-98428500D01*
X96233134Y-98428500D01*
X96241134Y-98427631D01*
X96295316Y-98421745D01*
X96295580Y-98424174D01*
X96324420Y-98424174D01*
X96324684Y-98421745D01*
X96378867Y-98427631D01*
X96386866Y-98428500D01*
X97025500Y-98428500D01*
X97093621Y-98448502D01*
X97140114Y-98502158D01*
X97151500Y-98554500D01*
X97151500Y-99193134D01*
X97151869Y-99196531D01*
X97158255Y-99255316D01*
X97155826Y-99255580D01*
X97155826Y-99284420D01*
X97158255Y-99284684D01*
X97151500Y-99346866D01*
X97151500Y-99993134D01*
X97151869Y-99996531D01*
X97158255Y-100055316D01*
X97155826Y-100055580D01*
X97155826Y-100084420D01*
X97158255Y-100084684D01*
X97151500Y-100146866D01*
X97151500Y-100793134D01*
X97151869Y-100796531D01*
X97158255Y-100855316D01*
X97155826Y-100855580D01*
X97155826Y-100884420D01*
X97158255Y-100884684D01*
X97151500Y-100946866D01*
X97151500Y-101593134D01*
X97151869Y-101596531D01*
X97158255Y-101655316D01*
X97155826Y-101655580D01*
X97155826Y-101684420D01*
X97158255Y-101684684D01*
X97151500Y-101746866D01*
X97151500Y-102393134D01*
X97151869Y-102396531D01*
X97158255Y-102455316D01*
X97156116Y-102455548D01*
X97156166Y-102484512D01*
X97158748Y-102484793D01*
X97152369Y-102543514D01*
X97152000Y-102550328D01*
X97152000Y-102597885D01*
X97156475Y-102613124D01*
X97157865Y-102614329D01*
X97178783Y-102618879D01*
X97178518Y-102620097D01*
X97232687Y-102636002D01*
X97265392Y-102666435D01*
X97296739Y-102708261D01*
X97303919Y-102713642D01*
X97378015Y-102769174D01*
X97420530Y-102826033D01*
X97425556Y-102896852D01*
X97391496Y-102959145D01*
X97378016Y-102970825D01*
X97296739Y-103031739D01*
X97291358Y-103038919D01*
X97291357Y-103038920D01*
X97265392Y-103073565D01*
X97208533Y-103116080D01*
X97178926Y-103121413D01*
X97154877Y-103128475D01*
X97153672Y-103129865D01*
X97152001Y-103137548D01*
X97152001Y-103189669D01*
X97152371Y-103196490D01*
X97158748Y-103255207D01*
X97156002Y-103255505D01*
X97156060Y-103284446D01*
X97158255Y-103284684D01*
X97151500Y-103346866D01*
X97151500Y-103993134D01*
X97151869Y-103996531D01*
X97158255Y-104055316D01*
X97155826Y-104055580D01*
X97155826Y-104084420D01*
X97158255Y-104084684D01*
X97151500Y-104146866D01*
X97151500Y-104793134D01*
X97151869Y-104796531D01*
X97158255Y-104855316D01*
X97155826Y-104855580D01*
X97155826Y-104884420D01*
X97158255Y-104884684D01*
X97151500Y-104946866D01*
X97151500Y-105593134D01*
X97151869Y-105596531D01*
X97158255Y-105655316D01*
X97155826Y-105655580D01*
X97155826Y-105684420D01*
X97158255Y-105684684D01*
X97151500Y-105746866D01*
X97151500Y-106393134D01*
X97151869Y-106396531D01*
X97158255Y-106455316D01*
X97155826Y-106455580D01*
X97155826Y-106484420D01*
X97158255Y-106484684D01*
X97151500Y-106546866D01*
X97151500Y-107185500D01*
X97131498Y-107253621D01*
X97077842Y-107300114D01*
X97025500Y-107311500D01*
X96386866Y-107311500D01*
X96383469Y-107311869D01*
X96347044Y-107315826D01*
X96324684Y-107318255D01*
X96324420Y-107315826D01*
X96295580Y-107315826D01*
X96295316Y-107318255D01*
X96236531Y-107311869D01*
X96233134Y-107311500D01*
X95586866Y-107311500D01*
X95583469Y-107311869D01*
X95547044Y-107315826D01*
X95524684Y-107318255D01*
X95524452Y-107316116D01*
X95495488Y-107316166D01*
X95495207Y-107318748D01*
X95436486Y-107312369D01*
X95429672Y-107312000D01*
X95382115Y-107312000D01*
X95366876Y-107316475D01*
X95365671Y-107317865D01*
X95361121Y-107338783D01*
X95359903Y-107338518D01*
X95343998Y-107392687D01*
X95313565Y-107425392D01*
X95271739Y-107456739D01*
X95234176Y-107506859D01*
X95210826Y-107538015D01*
X95153967Y-107580530D01*
X95083148Y-107585556D01*
X95020855Y-107551496D01*
X95009174Y-107538015D01*
X94985824Y-107506859D01*
X94948261Y-107456739D01*
X94906435Y-107425392D01*
X94863920Y-107368533D01*
X94858587Y-107338926D01*
X94851525Y-107314877D01*
X94850135Y-107313672D01*
X94842452Y-107312001D01*
X94790331Y-107312001D01*
X94783510Y-107312371D01*
X94724793Y-107318748D01*
X94724495Y-107316002D01*
X94695554Y-107316060D01*
X94695316Y-107318255D01*
X94636531Y-107311869D01*
X94633134Y-107311500D01*
X94208120Y-107311500D01*
X94139999Y-107291498D01*
X94093506Y-107237842D01*
X94092425Y-107235065D01*
X94090215Y-107230368D01*
X94087764Y-107222825D01*
X94083514Y-107216128D01*
X94083350Y-107215869D01*
X94072585Y-107194742D01*
X94072471Y-107194454D01*
X94072468Y-107194449D01*
X94069552Y-107187083D01*
X94064896Y-107180675D01*
X94064893Y-107180669D01*
X94036542Y-107141648D01*
X94032092Y-107135101D01*
X94002000Y-107087682D01*
X93995993Y-107082041D01*
X93980312Y-107064254D01*
X93980134Y-107064009D01*
X93980132Y-107064007D01*
X93975472Y-107057593D01*
X93969362Y-107052538D01*
X93932204Y-107021797D01*
X93926270Y-107016566D01*
X93891102Y-106983542D01*
X93891099Y-106983540D01*
X93885321Y-106978114D01*
X93878097Y-106974142D01*
X93858494Y-106960819D01*
X93858254Y-106960620D01*
X93858247Y-106960616D01*
X93852144Y-106955567D01*
X93801324Y-106931653D01*
X93794292Y-106928071D01*
X93745060Y-106901005D01*
X93737385Y-106899035D01*
X93737379Y-106899032D01*
X93737081Y-106898956D01*
X93714772Y-106890924D01*
X93714497Y-106890794D01*
X93714489Y-106890791D01*
X93707318Y-106887417D01*
X93652151Y-106876894D01*
X93644442Y-106875171D01*
X93610449Y-106866443D01*
X93597707Y-106863171D01*
X93597706Y-106863171D01*
X93590030Y-106861200D01*
X93581793Y-106861200D01*
X93558184Y-106858968D01*
X93557881Y-106858910D01*
X93557877Y-106858910D01*
X93550094Y-106857425D01*
X93512636Y-106859782D01*
X93443395Y-106844098D01*
X93415630Y-106823126D01*
X93171422Y-106578918D01*
X93137396Y-106516606D01*
X93135207Y-106502993D01*
X93133429Y-106486071D01*
X93123661Y-106393134D01*
X93118532Y-106344335D01*
X93118532Y-106344333D01*
X93117842Y-106337772D01*
X93058827Y-106156144D01*
X93047523Y-106136564D01*
X93016127Y-106082185D01*
X92963340Y-105990756D01*
X92942336Y-105967428D01*
X92839975Y-105853745D01*
X92839974Y-105853744D01*
X92835553Y-105848834D01*
X92681052Y-105736582D01*
X92675024Y-105733898D01*
X92675022Y-105733897D01*
X92512619Y-105661591D01*
X92512618Y-105661591D01*
X92506588Y-105658906D01*
X92413187Y-105639053D01*
X92326244Y-105620572D01*
X92326239Y-105620572D01*
X92319787Y-105619200D01*
X92128813Y-105619200D01*
X92122361Y-105620572D01*
X92122356Y-105620572D01*
X92035413Y-105639053D01*
X91942012Y-105658906D01*
X91935982Y-105661591D01*
X91935981Y-105661591D01*
X91773578Y-105733897D01*
X91773576Y-105733898D01*
X91767548Y-105736582D01*
X91613047Y-105848834D01*
X91608626Y-105853744D01*
X91608625Y-105853745D01*
X91506265Y-105967428D01*
X91485260Y-105990756D01*
X91432473Y-106082185D01*
X91401078Y-106136564D01*
X91389773Y-106156144D01*
X91387732Y-106162426D01*
X91341185Y-106305681D01*
X91301111Y-106364286D01*
X91235714Y-106391923D01*
X91170104Y-106381851D01*
X91070023Y-106337292D01*
X91070015Y-106337289D01*
X91063988Y-106334606D01*
X90943000Y-106308889D01*
X90883644Y-106296272D01*
X90883639Y-106296272D01*
X90877187Y-106294900D01*
X90686213Y-106294900D01*
X90679761Y-106296272D01*
X90679756Y-106296272D01*
X90620400Y-106308889D01*
X90499412Y-106334606D01*
X90493382Y-106337291D01*
X90493381Y-106337291D01*
X90330978Y-106409597D01*
X90330976Y-106409598D01*
X90324948Y-106412282D01*
X90319607Y-106416162D01*
X90319606Y-106416163D01*
X90234092Y-106478293D01*
X90167224Y-106502151D01*
X90098073Y-106486071D01*
X90085970Y-106478293D01*
X90001694Y-106417063D01*
X90001693Y-106417062D01*
X89996352Y-106413182D01*
X89990324Y-106410498D01*
X89990322Y-106410497D01*
X89865382Y-106354870D01*
X89811286Y-106308889D01*
X89790637Y-106240962D01*
X89809990Y-106172654D01*
X89827536Y-106150668D01*
X89972499Y-106005705D01*
X90034811Y-105971679D01*
X90061594Y-105968800D01*
X90117487Y-105968800D01*
X90123939Y-105967428D01*
X90123944Y-105967428D01*
X90225241Y-105945896D01*
X90304288Y-105929094D01*
X90310319Y-105926409D01*
X90472722Y-105854103D01*
X90472724Y-105854102D01*
X90478752Y-105851418D01*
X90633253Y-105739166D01*
X90637675Y-105734255D01*
X90756621Y-105602152D01*
X90756622Y-105602151D01*
X90761040Y-105597244D01*
X90830419Y-105477077D01*
X90853223Y-105437579D01*
X90853224Y-105437578D01*
X90856527Y-105431856D01*
X90915542Y-105250228D01*
X90935504Y-105060300D01*
X90917046Y-104884684D01*
X90916232Y-104876935D01*
X90916232Y-104876933D01*
X90915542Y-104870372D01*
X90856527Y-104688744D01*
X90847764Y-104673565D01*
X90764341Y-104529074D01*
X90761040Y-104523356D01*
X90743924Y-104504346D01*
X90637675Y-104386345D01*
X90637674Y-104386344D01*
X90633253Y-104381434D01*
X90528121Y-104305051D01*
X90484094Y-104273063D01*
X90484093Y-104273062D01*
X90478752Y-104269182D01*
X90472724Y-104266498D01*
X90472722Y-104266497D01*
X90310319Y-104194191D01*
X90310318Y-104194191D01*
X90304288Y-104191506D01*
X90208601Y-104171167D01*
X90123944Y-104153172D01*
X90123939Y-104153172D01*
X90117487Y-104151800D01*
X89926513Y-104151800D01*
X89920061Y-104153172D01*
X89920056Y-104153172D01*
X89835399Y-104171167D01*
X89739712Y-104191506D01*
X89733682Y-104194191D01*
X89733681Y-104194191D01*
X89571278Y-104266497D01*
X89571276Y-104266498D01*
X89565248Y-104269182D01*
X89559907Y-104273062D01*
X89559906Y-104273063D01*
X89515879Y-104305051D01*
X89410747Y-104381434D01*
X89406326Y-104386344D01*
X89406325Y-104386345D01*
X89300077Y-104504346D01*
X89282960Y-104523356D01*
X89279661Y-104529069D01*
X89279658Y-104529074D01*
X89236431Y-104603946D01*
X89185048Y-104652939D01*
X89115335Y-104666375D01*
X89049424Y-104639988D01*
X89033685Y-104625265D01*
X89002953Y-104591134D01*
X88883500Y-104504346D01*
X88853794Y-104482763D01*
X88853793Y-104482762D01*
X88848452Y-104478882D01*
X88842424Y-104476198D01*
X88842422Y-104476197D01*
X88680019Y-104403891D01*
X88680018Y-104403891D01*
X88673988Y-104401206D01*
X88562701Y-104377551D01*
X88493644Y-104362872D01*
X88493639Y-104362872D01*
X88487187Y-104361500D01*
X88393999Y-104361500D01*
X88325878Y-104341498D01*
X88279385Y-104287842D01*
X88267999Y-104235500D01*
X88267999Y-104150331D01*
X88267629Y-104143510D01*
X88261252Y-104084793D01*
X88263998Y-104084495D01*
X88263940Y-104055554D01*
X88261745Y-104055316D01*
X88268131Y-103996531D01*
X88268500Y-103993134D01*
X88268500Y-103346866D01*
X88261745Y-103284684D01*
X88264174Y-103284420D01*
X88264174Y-103255580D01*
X88261745Y-103255316D01*
X88268131Y-103196531D01*
X88268500Y-103193134D01*
X88268500Y-102546866D01*
X88261745Y-102484684D01*
X88264174Y-102484420D01*
X88264174Y-102455580D01*
X88261745Y-102455316D01*
X88268131Y-102396531D01*
X88268500Y-102393134D01*
X88268500Y-101746866D01*
X88261745Y-101684684D01*
X88264174Y-101684420D01*
X88264174Y-101655580D01*
X88261745Y-101655316D01*
X88268131Y-101596531D01*
X88268500Y-101593134D01*
X88268500Y-100946866D01*
X88261745Y-100884684D01*
X88264174Y-100884420D01*
X88264174Y-100855580D01*
X88261745Y-100855316D01*
X88268131Y-100796531D01*
X88268500Y-100793134D01*
X88268500Y-100146866D01*
X88261745Y-100084684D01*
X88264174Y-100084420D01*
X88264174Y-100055580D01*
X88261745Y-100055316D01*
X88268131Y-99996531D01*
X88268500Y-99993134D01*
X88268500Y-99346866D01*
X88261745Y-99284684D01*
X88264174Y-99284420D01*
X88264174Y-99255580D01*
X88261745Y-99255316D01*
X88268131Y-99196531D01*
X88268500Y-99193134D01*
X88268500Y-98554500D01*
X88288502Y-98486379D01*
X88342158Y-98439886D01*
X88394500Y-98428500D01*
X89033134Y-98428500D01*
X89041134Y-98427631D01*
X89095316Y-98421745D01*
X89095580Y-98424174D01*
X89124420Y-98424174D01*
X89124684Y-98421745D01*
X89178867Y-98427631D01*
X89186866Y-98428500D01*
X89833134Y-98428500D01*
X89841134Y-98427631D01*
X89895316Y-98421745D01*
X89895580Y-98424174D01*
X89924420Y-98424174D01*
X89924684Y-98421745D01*
X89978867Y-98427631D01*
X89986866Y-98428500D01*
X90633134Y-98428500D01*
X90641134Y-98427631D01*
X90695316Y-98421745D01*
X90695580Y-98424174D01*
X90724420Y-98424174D01*
X90724684Y-98421745D01*
X90778867Y-98427631D01*
X90786866Y-98428500D01*
X91433134Y-98428500D01*
X91441134Y-98427631D01*
X91495316Y-98421745D01*
X91495548Y-98423884D01*
X91524512Y-98423834D01*
X91524793Y-98421252D01*
X91583514Y-98427631D01*
X91590328Y-98428000D01*
X91637885Y-98428000D01*
X91653124Y-98423525D01*
X91654329Y-98422135D01*
X91658879Y-98401217D01*
X91660097Y-98401482D01*
X91676002Y-98347313D01*
X91706435Y-98314608D01*
X91741080Y-98288643D01*
X91741081Y-98288642D01*
X91748261Y-98283261D01*
X91809174Y-98201985D01*
X91866033Y-98159470D01*
X91936852Y-98154444D01*
X91999145Y-98188504D01*
G37*
%TD.AperFunction*%
%TD*%
M02*
